SplineFontDB: 3.0
FontName: AftaSerifThin-Italic
FullName: Afta Serif Thin Italic
FamilyName: Afta Serif Thin
Weight: Book
Copyright: Copyright (c) 2010 by Oriol Esparraguera Font. All rights reserved.
Version: 1.000
ItalicAngle: -12
UnderlinePosition: -75
UnderlineWidth: 50
Ascent: 800
Descent: 200
sfntRevision: 0x00010000
LayerCount: 2
Layer: 0 1 "Back"  1
Layer: 1 1 "Fore"  0
XUID: [1021 288 713564382 2359403]
FSType: 0
OS2Version: 3
OS2_WeightWidthSlopeOnly: 0
OS2_UseTypoMetrics: 1
CreationTime: 1288205220
ModificationTime: 1304694771
PfmFamily: 17
TTFWeight: 400
TTFWidth: 5
LineGap: 0
VLineGap: 0
Panose: 2 0 5 3 0 0 0 2 0 4
OS2TypoAscent: 185
OS2TypoAOffset: 1
OS2TypoDescent: -34
OS2TypoDOffset: 1
OS2TypoLinegap: 0
OS2WinAscent: 0
OS2WinAOffset: 1
OS2WinDescent: 0
OS2WinDOffset: 1
HheadAscent: 0
HheadAOffset: 1
HheadDescent: 0
HheadDOffset: 1
OS2SubXSize: 204
OS2SubYSize: 204
OS2SubXOff: 0
OS2SubYOff: 286
OS2SupXSize: 204
OS2SupYSize: 204
OS2SupXOff: 0
OS2SupYOff: 286
OS2StrikeYSize: 50
OS2StrikeYPos: 250
OS2Vendor: 'AFTA'
OS2CodePages: 00000011.00000000
OS2UnicodeRanges: 8000002f.40000042.00000000.00000000
Lookup: 258 0 0 "'kern' Horizontal Kerning in Latin lookup 0"  {"'kern' Horizontal Kerning in Latin lookup 0 subtable"  } ['kern' ('latn' <'dflt' > ) ]
DEI: 91125
TtTable: prep
PUSHW_1
 511
SCANCTRL
PUSHB_1
 4
SCANTYPE
EndTTInstrs
TtTable: fpgm
PUSHW_1
 0
FDEF
MPPEM
PUSHW_1
 9
LT
IF
PUSHB_2
 1
 1
INSTCTRL
EIF
PUSHW_1
 511
SCANCTRL
PUSHW_1
 68
SCVTCI
PUSHW_2
 9
 3
SDS
SDB
ENDF
PUSHW_1
 1
FDEF
DUP
DUP
RCVT
ROUND[Black]
WCVTP
PUSHB_1
 1
ADD
ENDF
PUSHW_1
 2
FDEF
PUSHW_1
 1
LOOPCALL
POP
ENDF
PUSHW_1
 3
FDEF
DUP
GC[cur]
PUSHB_1
 3
CINDEX
GC[cur]
GT
IF
SWAP
EIF
DUP
ROLL
DUP
ROLL
MD[grid]
ABS
ROLL
DUP
GC[cur]
DUP
ROUND[Grey]
SUB
ABS
PUSHB_1
 4
CINDEX
GC[cur]
DUP
ROUND[Grey]
SUB
ABS
GT
IF
SWAP
NEG
ROLL
EIF
MDAP[rnd]
DUP
PUSHB_1
 0
GTEQ
IF
ROUND[Black]
DUP
PUSHB_1
 0
EQ
IF
POP
PUSHB_1
 64
EIF
ELSE
ROUND[Black]
DUP
PUSHB_1
 0
EQ
IF
POP
PUSHB_1
 64
NEG
EIF
EIF

StartChar: exclam
Encoding: 33 33 4
Width: 284
Flags: W
LayerCount: 2
Fore
SplineSet
201 223 m 1,0,-1
 180 223 l 1,1,-1
 217 517 l 1,2,-1
 263 730 l 1,3,-1
 334 730 l 1,4,-1
 288 517 l 1,5,-1
 201 223 l 1,0,-1
121 83 m 1,6,-1
 206 83 l 1,7,-1
 188 -1 l 1,8,-1
 103 -1 l 1,9,-1
 121 83 l 1,6,-1
EndSplineSet
EndChar

StartChar: quotedbl
Encoding: 34 34 5
Width: 455
Flags: W
LayerCount: 2
Fore
SplineSet
397 493 m 1,0,-1
 448 730 l 1,1,-1
 494 730 l 1,2,-1
 443 493 l 1,3,-1
 397 493 l 1,0,-1
342 730 m 1,4,-1
 291 493 l 1,5,-1
 245 493 l 1,6,-1
 296 730 l 1,7,-1
 342 730 l 1,4,-1
EndSplineSet
EndChar

StartChar: numbersign
Encoding: 35 35 6
Width: 594
Flags: W
LayerCount: 2
Fore
SplineSet
354 459 m 1,0,1
 344 431 344 431 334 406 c 128,-1,2
 324 381 324 381 314.5 357 c 128,-1,3
 305 333 305 333 296 308 c 128,-1,4
 287 283 287 283 277 255 c 1,5,-1
 444 255 l 1,6,7
 463 309 463 309 482.5 357 c 128,-1,8
 502 405 502 405 521 459 c 1,9,-1
 354 459 l 1,0,1
179 459 m 1,10,-1
 186 490 l 1,11,-1
 321 490 l 1,12,-1
 403 710 l 1,13,-1
 450 710 l 1,14,-1
 366 490 l 1,15,-1
 534 490 l 1,16,-1
 616 710 l 1,17,-1
 663 710 l 1,18,-1
 579 490 l 1,19,-1
 674 490 l 1,20,-1
 667 459 l 1,21,-1
 566 459 l 1,22,-1
 489 255 l 1,23,-1
 592 255 l 1,24,-1
 585 224 l 1,25,-1
 479 224 l 1,26,27
 454 167 454 167 436 112.5 c 128,-1,28
 418 58 418 58 394 1 c 1,29,-1
 349 1 l 1,30,-1
 432 224 l 1,31,-1
 264 224 l 1,32,33
 245 170 245 170 232 134.5 c 128,-1,34
 219 99 219 99 209.5 75 c 128,-1,35
 200 51 200 51 193.5 34 c 128,-1,36
 187 17 187 17 181 1 c 1,37,-1
 135 1 l 1,38,-1
 219 224 l 1,39,-1
 103 224 l 1,40,-1
 110 255 l 1,41,-1
 232 255 l 1,42,-1
 309 459 l 1,43,-1
 179 459 l 1,10,-1
EndSplineSet
EndChar

StartChar: dollar
Encoding: 36 36 7
Width: 605
Flags: W
LayerCount: 2
Fore
SplineSet
344 27 m 1,0,1
 378 35 378 35 410 50 c 128,-1,2
 442 65 442 65 468 84.5 c 128,-1,3
 494 104 494 104 511.5 127 c 128,-1,4
 529 150 529 150 534 174 c 0,5,6
 537 188 537 188 538 208 c 128,-1,7
 539 228 539 228 528.5 250.5 c 128,-1,8
 518 273 518 273 491 297 c 128,-1,9
 464 321 464 321 412 344 c 1,10,-1
 344 27 l 1,0,1
458 709 m 1,11,12
 426 703 426 703 395 690.5 c 128,-1,13
 364 678 364 678 337.5 659 c 128,-1,14
 311 640 311 640 292.5 616 c 128,-1,15
 274 592 274 592 268 563 c 0,16,17
 262 536 262 536 269.5 513.5 c 128,-1,18
 277 491 277 491 294 472.5 c 128,-1,19
 311 454 311 454 336.5 438 c 128,-1,20
 362 422 362 422 394 409 c 1,21,-1
 458 709 l 1,11,12
498 751 m 1,22,23
 583 746 583 746 631 732 c 128,-1,24
 679 718 679 718 702 704 c 1,25,-1
 692 654 l 1,26,27
 641 681 641 681 592 693 c 128,-1,28
 543 705 543 705 489 709 c 1,29,-1
 424 402 l 1,30,31
 463 387 463 387 501.5 369 c 128,-1,32
 540 351 540 351 568.5 325 c 128,-1,33
 597 299 597 299 610.5 262.5 c 128,-1,34
 624 226 624 226 613 174 c 0,35,36
 603 127 603 127 574 93 c 128,-1,37
 545 59 545 59 505.5 36 c 128,-1,38
 466 13 466 13 421 0 c 128,-1,39
 376 -13 376 -13 334 -19 c 1,40,-1
 313 -119 l 1,41,-1
 282 -119 l 1,42,-1
 303 -20 l 1,43,44
 211 -16 211 -16 155.5 3 c 128,-1,45
 100 22 100 22 77 40 c 1,46,-1
 91 105 l 1,47,48
 106 93 106 93 127 80 c 128,-1,49
 148 67 148 67 175.5 56 c 128,-1,50
 203 45 203 45 237 37 c 128,-1,51
 271 29 271 29 313 28 c 1,52,-1
 382 350 l 1,53,54
 272 384 272 384 221.5 433.5 c 128,-1,55
 171 483 171 483 188 564 c 0,56,57
 195 596 195 596 216.5 627 c 128,-1,58
 238 658 238 658 273.5 683.5 c 128,-1,59
 309 709 309 709 358 727 c 128,-1,60
 407 745 407 745 467 751 c 1,61,-1
 482 820 l 1,62,-1
 513 820 l 1,63,-1
 498 751 l 1,22,23
EndSplineSet
EndChar

StartChar: percent
Encoding: 37 37 8
Width: 1020
Flags: W
LayerCount: 2
Fore
SplineSet
886 383 m 0,0,1
 934 383 934 383 960.5 366 c 128,-1,2
 987 349 987 349 998.5 321.5 c 128,-1,3
 1010 294 1010 294 1009.5 258 c 128,-1,4
 1009 222 1009 222 1001 183 c 0,5,6
 986 117 986 117 963 78.5 c 128,-1,7
 940 40 940 40 913.5 20.5 c 128,-1,8
 887 1 887 1 858.5 -4 c 128,-1,9
 830 -9 830 -9 804 -9 c 0,10,11
 777 -9 777 -9 749.5 -4 c 128,-1,12
 722 1 722 1 703 20.5 c 128,-1,13
 684 40 684 40 676.5 78.5 c 128,-1,14
 669 117 669 117 682 183 c 1,15,16
 705 278 705 278 752 330.5 c 128,-1,17
 799 383 799 383 886 383 c 0,0,1
806 6 m 0,18,19
 834 6 834 6 858.5 15 c 128,-1,20
 883 24 883 24 902 44.5 c 128,-1,21
 921 65 921 65 936.5 99 c 128,-1,22
 952 133 952 133 962 183 c 0,23,24
 973 235 973 235 973.5 270 c 128,-1,25
 974 305 974 305 964 326 c 128,-1,26
 954 347 954 347 933.5 356 c 128,-1,27
 913 365 913 365 882 365 c 0,28,29
 854 365 854 365 829.5 356.5 c 128,-1,30
 805 348 805 348 785 326.5 c 128,-1,31
 765 305 765 305 749 269 c 128,-1,32
 733 233 733 233 722 179 c 0,33,34
 711 128 711 128 712 94.5 c 128,-1,35
 713 61 713 61 725 41.5 c 128,-1,36
 737 22 737 22 758 14 c 128,-1,37
 779 6 779 6 806 6 c 0,18,19
1015 740 m 1,38,-1
 291 -19 l 1,39,-1
 240 -19 l 1,40,-1
 964 740 l 1,41,-1
 1015 740 l 1,38,-1
349 353 m 0,42,43
 376 353 376 353 399.5 361 c 128,-1,44
 423 369 423 369 442.5 389 c 128,-1,45
 462 409 462 409 477.5 442 c 128,-1,46
 493 475 493 475 504 525 c 0,47,48
 515 578 515 578 513.5 612.5 c 128,-1,49
 512 647 512 647 501 667 c 128,-1,50
 490 687 490 687 469.5 695 c 128,-1,51
 449 703 449 703 423 703 c 0,52,53
 396 703 396 703 372 695 c 128,-1,54
 348 687 348 687 328 666.5 c 128,-1,55
 308 646 308 646 291.5 611 c 128,-1,56
 275 576 275 576 263 522 c 1,57,58
 253 471 253 471 256 438 c 128,-1,59
 259 405 259 405 271.5 386 c 128,-1,60
 284 367 284 367 304.5 360 c 128,-1,61
 325 353 325 353 349 353 c 0,42,43
428 726 m 0,62,63
 476 726 476 726 502.5 709 c 128,-1,64
 529 692 529 692 540.5 664.5 c 128,-1,65
 552 637 552 637 551 600.5 c 128,-1,66
 550 564 550 564 544 525 c 1,67,68
 528 459 528 459 504 420.5 c 128,-1,69
 480 382 480 382 451.5 362.5 c 128,-1,70
 423 343 423 343 395 337.5 c 128,-1,71
 367 332 367 332 345 332 c 256,72,73
 323 332 323 332 296 337.5 c 128,-1,74
 269 343 269 343 249 362.5 c 128,-1,75
 229 382 229 382 219.5 420.5 c 128,-1,76
 210 459 210 459 223 525 c 1,77,78
 246 620 246 620 293.5 673 c 128,-1,79
 341 726 341 726 428 726 c 0,62,63
EndSplineSet
EndChar

StartChar: ampersand
Encoding: 38 38 9
Width: 759
Flags: W
LayerCount: 2
Fore
SplineSet
562 728 m 0,0,1
 635 727 635 727 672 702 c 128,-1,2
 709 677 709 677 696 614 c 0,3,4
 694 606 694 606 688.5 589 c 128,-1,5
 683 572 683 572 674 548 c 1,6,7
 724 539 724 539 757.5 521 c 128,-1,8
 791 503 791 503 809 474 c 128,-1,9
 827 445 827 445 829.5 403.5 c 128,-1,10
 832 362 832 362 821 306 c 1,11,12
 804 230 804 230 762.5 168 c 128,-1,13
 721 106 721 106 642 56 c 1,14,15
 684 36 684 36 706.5 31 c 128,-1,16
 729 26 729 26 746 26 c 0,17,18
 798 26 798 26 837 38 c 128,-1,19
 876 50 876 50 911 67 c 1,20,-1
 899 14 l 1,21,22
 869 -1 869 -1 830.5 -8.5 c 128,-1,23
 792 -16 792 -16 734 -16 c 0,24,25
 694 -16 694 -16 659 -7.5 c 128,-1,26
 624 1 624 1 585 29 c 1,27,28
 463 -21 463 -21 323 -18 c 1,29,30
 245 -18 245 -18 195 0.5 c 128,-1,31
 145 19 145 19 119 53.5 c 128,-1,32
 93 88 93 88 89.5 138.5 c 128,-1,33
 86 189 86 189 99 254 c 1,34,35
 112 312 112 312 134 354.5 c 128,-1,36
 156 397 156 397 189.5 426 c 128,-1,37
 223 455 223 455 269 472.5 c 128,-1,38
 315 490 315 490 375 499 c 1,39,40
 373 541 373 541 373 569 c 128,-1,41
 373 597 373 597 377 614 c 0,42,43
 385 650 385 650 403.5 672 c 128,-1,44
 422 694 422 694 447 706.5 c 128,-1,45
 472 719 472 719 502 723.5 c 128,-1,46
 532 728 532 728 562 728 c 0,0,1
375 471 m 1,47,48
 331 461 331 461 297.5 448.5 c 128,-1,49
 264 436 264 436 239.5 413.5 c 128,-1,50
 215 391 215 391 197 354.5 c 128,-1,51
 179 318 179 318 166 258 c 0,52,53
 152 190 152 190 155.5 145 c 128,-1,54
 159 100 159 100 180 73 c 128,-1,55
 201 46 201 46 239.5 35 c 128,-1,56
 278 24 278 24 334 24 c 0,57,58
 425 24 425 24 549 57 c 1,59,60
 475 146 475 146 435 252.5 c 128,-1,61
 395 359 395 359 375 471 c 1,47,48
657 515 m 1,62,63
 624 456 624 456 577.5 391 c 128,-1,64
 531 326 531 326 479 263 c 1,65,66
 496 225 496 225 508.5 199.5 c 128,-1,67
 521 174 521 174 533 154.5 c 128,-1,68
 545 135 545 135 558.5 119.5 c 128,-1,69
 572 104 572 104 590 86 c 1,70,71
 654 114 654 114 694.5 167 c 128,-1,72
 735 220 735 220 754 310 c 0,73,74
 765 362 765 362 764 396.5 c 128,-1,75
 763 431 763 431 750 453 c 128,-1,76
 737 475 737 475 713.5 489 c 128,-1,77
 690 503 690 503 657 515 c 1,62,63
645 598 m 0,78,79
 651 626 651 626 645.5 643 c 128,-1,80
 640 660 640 660 627 669 c 128,-1,81
 614 678 614 678 594.5 681 c 128,-1,82
 575 684 575 684 553 684 c 0,83,84
 527 684 527 684 505.5 681 c 128,-1,85
 484 678 484 678 466.5 669 c 128,-1,86
 449 660 449 660 437 643 c 128,-1,87
 425 626 425 626 419 598 c 0,88,89
 413 571 413 571 416.5 533 c 128,-1,90
 420 495 420 495 428.5 454.5 c 128,-1,91
 437 414 437 414 449.5 374.5 c 128,-1,92
 462 335 462 335 473 306 c 1,93,94
 504 349 504 349 532.5 389 c 128,-1,95
 561 429 561 429 583.5 465.5 c 128,-1,96
 606 502 606 502 622 535.5 c 128,-1,97
 638 569 638 569 645 598 c 0,78,79
EndSplineSet
EndChar

StartChar: quotesingle
Encoding: 39 39 10
Width: 286
Flags: W
LayerCount: 2
Fore
SplineSet
234 493 m 1,0,-1
 285 730 l 1,1,-1
 330 730 l 1,2,-1
 279 493 l 1,3,-1
 234 493 l 1,0,-1
EndSplineSet
EndChar

StartChar: parenleft
Encoding: 40 40 11
Width: 315
Flags: W
LayerCount: 2
Fore
SplineSet
462 753 m 1,0,1
 435 722 435 722 396 670 c 128,-1,2
 357 618 357 618 317.5 553.5 c 128,-1,3
 278 489 278 489 244 416 c 128,-1,4
 210 343 210 343 195 269 c 1,5,6
 181 207 181 207 182 143.5 c 128,-1,7
 183 80 183 80 192 17.5 c 128,-1,8
 201 -45 201 -45 216.5 -103.5 c 128,-1,9
 232 -162 232 -162 249 -213 c 1,10,-1
 220 -213 l 1,11,12
 210 -198 210 -198 186.5 -154 c 128,-1,13
 163 -110 163 -110 142.5 -45.5 c 128,-1,14
 122 19 122 19 112.5 99.5 c 128,-1,15
 103 180 103 180 122 269 c 0,16,17
 136 336 136 336 166 402.5 c 128,-1,18
 196 469 196 469 237 531 c 128,-1,19
 278 593 278 593 326.5 649.5 c 128,-1,20
 375 706 375 706 426 753 c 1,21,-1
 462 753 l 1,0,1
EndSplineSet
EndChar

StartChar: parenright
Encoding: 41 41 12
Width: 308
Flags: W
LayerCount: 2
Fore
SplineSet
218 753 m 1,0,1
 249 701 249 701 273.5 643.5 c 128,-1,2
 298 586 298 586 312.5 524.5 c 128,-1,3
 327 463 327 463 329 399 c 128,-1,4
 331 335 331 335 317 269 c 0,5,6
 304 210 304 210 279.5 154 c 128,-1,7
 255 98 255 98 225 47.5 c 128,-1,8
 195 -3 195 -3 162.5 -46 c 128,-1,9
 130 -89 130 -89 100 -123 c 128,-1,10
 70 -157 70 -157 46.5 -180 c 128,-1,11
 23 -203 23 -203 13 -213 c 1,12,-1
 -17 -213 l 1,13,14
 23 -157 23 -157 64 -98.5 c 128,-1,15
 105 -40 105 -40 140.5 20.5 c 128,-1,16
 176 81 176 81 203 143.5 c 128,-1,17
 230 206 230 206 244 269 c 0,18,19
 260 344 260 344 256.5 417.5 c 128,-1,20
 253 491 253 491 240.5 555.5 c 128,-1,21
 228 620 228 620 211 671.5 c 128,-1,22
 194 723 194 723 182 753 c 1,23,-1
 218 753 l 1,0,1
EndSplineSet
EndChar

StartChar: asterisk
Encoding: 42 42 13
Width: 329
Flags: W
LayerCount: 2
Fore
SplineSet
174 523 m 1,0,-1
 167 544 l 1,1,-1
 284 597 l 1,2,-1
 190 650 l 1,3,-1
 205 671 l 1,4,-1
 296 617 l 1,5,-1
 320 731 l 1,6,-1
 345 731 l 1,7,-1
 321 617 l 1,8,-1
 432 671 l 1,9,-1
 439 650 l 1,10,-1
 322 597 l 1,11,-1
 416 544 l 1,12,-1
 401 523 l 1,13,-1
 312 577 l 1,14,-1
 288 462 l 1,15,-1
 263 462 l 1,16,-1
 287 577 l 1,17,-1
 174 523 l 1,0,-1
EndSplineSet
EndChar

StartChar: plus
Encoding: 43 43 14
Width: 600
Flags: W
LayerCount: 2
Fore
SplineSet
331 509 m 1,0,-1
 331 274 l 1,1,-1
 567 274 l 1,2,-1
 567 232 l 1,3,-1
 331 232 l 1,4,-1
 331 1 l 1,5,-1
 286 1 l 1,6,-1
 286 232 l 1,7,-1
 59 232 l 1,8,-1
 59 274 l 1,9,-1
 286 274 l 1,10,-1
 286 509 l 1,11,-1
 331 509 l 1,0,-1
EndSplineSet
EndChar

StartChar: comma
Encoding: 44 44 15
Width: 278
Flags: W
LayerCount: 2
Fore
SplineSet
123 84 m 1,0,-1
 210 84 l 1,1,2
 208 55 208 55 205 30 c 128,-1,3
 202 5 202 5 197 -15 c 0,4,5
 188 -60 188 -60 172 -91.5 c 128,-1,6
 156 -123 156 -123 136.5 -143.5 c 128,-1,7
 117 -164 117 -164 95 -174 c 128,-1,8
 73 -184 73 -184 52 -187 c 1,9,-1
 59 -152 l 1,10,11
 88 -149 88 -149 106 -134.5 c 128,-1,12
 124 -120 124 -120 135.5 -99 c 128,-1,13
 147 -78 147 -78 153.5 -52 c 128,-1,14
 160 -26 160 -26 166 0 c 1,15,-1
 106 0 l 1,16,-1
 123 84 l 1,0,-1
EndSplineSet
EndChar

StartChar: hyphen
Encoding: 45 45 16
Width: 398
Flags: W
LayerCount: 2
Fore
SplineSet
412 304 m 1,0,-1
 401 253 l 1,1,-1
 120 253 l 1,2,-1
 131 304 l 1,3,-1
 412 304 l 1,0,-1
EndSplineSet
EndChar

StartChar: period
Encoding: 46 46 17
Width: 271
Flags: W
LayerCount: 2
Fore
SplineSet
123 83 m 1,0,-1
 208 83 l 1,1,-1
 190 -1 l 1,2,-1
 105 -1 l 1,3,-1
 123 83 l 1,0,-1
EndSplineSet
EndChar

StartChar: slash
Encoding: 47 47 18
Width: 347
Flags: W
LayerCount: 2
Fore
SplineSet
470 753 m 1,0,-1
 517 753 l 1,1,-1
 48 -19 l 1,2,3
 37 -19 37 -19 23.5 -19.5 c 128,-1,4
 10 -20 10 -20 1 -20 c 1,5,-1
 470 753 l 1,0,-1
EndSplineSet
EndChar

StartChar: zero
Encoding: 48 48 19
Width: 670
Flags: W
LayerCount: 2
Fore
SplineSet
497 678 m 0,0,1
 448 678 448 678 404.5 661.5 c 128,-1,2
 361 645 361 645 324 605.5 c 128,-1,3
 287 566 287 566 257 501.5 c 128,-1,4
 227 437 227 437 207 341 c 0,5,6
 187 248 187 248 191.5 187 c 128,-1,7
 196 126 196 126 218 90 c 128,-1,8
 240 54 240 54 276.5 39.5 c 128,-1,9
 313 25 313 25 358 25 c 256,10,11
 403 25 403 25 445 42 c 128,-1,12
 487 59 487 59 523.5 97.5 c 128,-1,13
 560 136 560 136 590 197.5 c 128,-1,14
 620 259 620 259 638 348 c 1,15,16
 658 441 658 441 655 504.5 c 128,-1,17
 652 568 652 568 632 606.5 c 128,-1,18
 612 645 612 645 577 661.5 c 128,-1,19
 542 678 542 678 497 678 c 0,0,1
506 723 m 0,20,21
 534 723 534 723 565 718 c 128,-1,22
 596 713 596 713 624 699 c 128,-1,23
 652 685 652 685 674.5 659 c 128,-1,24
 697 633 697 633 709.5 591.5 c 128,-1,25
 722 550 722 550 722.5 490 c 128,-1,26
 723 430 723 430 705 348 c 0,27,28
 688 268 688 268 662 210 c 128,-1,29
 636 152 636 152 605 111.5 c 128,-1,30
 574 71 574 71 539 46 c 128,-1,31
 504 21 504 21 470 7.5 c 128,-1,32
 436 -6 436 -6 405 -11 c 128,-1,33
 374 -16 374 -16 349 -16 c 256,34,35
 324 -16 324 -16 294 -11 c 128,-1,36
 264 -6 264 -6 235 7.5 c 128,-1,37
 206 21 206 21 181 46 c 128,-1,38
 156 71 156 71 141 111.5 c 128,-1,39
 126 152 126 152 124 210 c 128,-1,40
 122 268 122 268 139 348 c 0,41,42
 165 466 165 466 206 539.5 c 128,-1,43
 247 613 247 613 297 654 c 128,-1,44
 347 695 347 695 401 709 c 128,-1,45
 455 723 455 723 506 723 c 0,20,21
EndSplineSet
EndChar

StartChar: one
Encoding: 49 49 20
Width: 433
Flags: W
LayerCount: 2
Fore
SplineSet
206 40 m 1,0,-1
 341 673 l 1,1,2
 319 671 319 671 295.5 665 c 128,-1,3
 272 659 272 659 251 651 c 1,4,-1
 257 682 l 1,5,6
 277 695 277 695 297.5 704.5 c 128,-1,7
 318 714 318 714 338 727 c 1,8,-1
 418 727 l 1,9,-1
 272 40 l 1,10,11
 288 35 288 35 309 30.5 c 128,-1,12
 330 26 330 26 347 21 c 1,13,-1
 343 0 l 1,14,-1
 119 0 l 1,15,-1
 123 21 l 1,16,-1
 206 40 l 1,0,-1
EndSplineSet
EndChar

StartChar: two
Encoding: 50 50 21
Width: 601
Flags: W
LayerCount: 2
Fore
SplineSet
528 128 m 1,0,-1
 550 128 l 1,1,-1
 533 0 l 1,2,-1
 43 0 l 1,3,4
 60 75 60 75 93.5 129.5 c 128,-1,5
 127 184 127 184 171.5 225.5 c 128,-1,6
 216 267 216 267 271.5 299 c 128,-1,7
 327 331 327 331 389 360 c 0,8,9
 465 395 465 395 507 441 c 128,-1,10
 549 487 549 487 560 537 c 0,11,12
 565 564 565 564 561 589 c 128,-1,13
 557 614 557 614 541.5 633 c 128,-1,14
 526 652 526 652 498 664.5 c 128,-1,15
 470 677 470 677 428 679 c 1,16,17
 390 679 390 679 359 669 c 128,-1,18
 328 659 328 659 303.5 644.5 c 128,-1,19
 279 630 279 630 262.5 615.5 c 128,-1,20
 246 601 246 601 237 592 c 1,21,22
 230 575 230 575 224 558.5 c 128,-1,23
 218 542 218 542 209 525 c 1,24,-1
 188 525 l 1,25,26
 192 554 192 554 195 579 c 128,-1,27
 198 604 198 604 202 631 c 1,28,29
 206 635 206 635 227 650.5 c 128,-1,30
 248 666 248 666 280 683 c 128,-1,31
 312 700 312 700 352 713 c 128,-1,32
 392 726 392 726 436 726 c 0,33,34
 495 726 495 726 534.5 711 c 128,-1,35
 574 696 574 696 596.5 670 c 128,-1,36
 619 644 619 644 625.5 609.5 c 128,-1,37
 632 575 632 575 624 537 c 0,38,39
 608 465 608 465 552.5 405.5 c 128,-1,40
 497 346 497 346 394 301 c 0,41,42
 350 281 350 281 309 256.5 c 128,-1,43
 268 232 268 232 233.5 201 c 128,-1,44
 199 170 199 170 174 132.5 c 128,-1,45
 149 95 149 95 136 48 c 1,46,-1
 492 48 l 1,47,-1
 528 128 l 1,0,-1
EndSplineSet
EndChar

StartChar: three
Encoding: 51 51 22
Width: 640
Flags: W
LayerCount: 2
Fore
SplineSet
213 661 m 1,0,1
 267 685 267 685 331.5 706 c 128,-1,2
 396 727 396 727 474 727 c 0,3,4
 519 727 519 727 559 717.5 c 128,-1,5
 599 708 599 708 626.5 688 c 128,-1,6
 654 668 654 668 667 636.5 c 128,-1,7
 680 605 680 605 671 561 c 0,8,9
 663 526 663 526 645.5 496.5 c 128,-1,10
 628 467 628 467 603 445 c 128,-1,11
 578 423 578 423 548.5 409.5 c 128,-1,12
 519 396 519 396 487 393 c 1,13,14
 528 387 528 387 560.5 371 c 128,-1,15
 593 355 593 355 614 330.5 c 128,-1,16
 635 306 635 306 642.5 273.5 c 128,-1,17
 650 241 650 241 641 202 c 1,18,19
 632 158 632 158 603 118.5 c 128,-1,20
 574 79 574 79 529 49 c 128,-1,21
 484 19 484 19 424 1 c 128,-1,22
 364 -17 364 -17 293 -17 c 0,23,24
 237 -17 237 -17 197 -13 c 128,-1,25
 157 -9 157 -9 128.5 -3.5 c 128,-1,26
 100 2 100 2 82.5 8.5 c 128,-1,27
 65 15 65 15 56 20 c 1,28,29
 63 47 63 47 71.5 77 c 128,-1,30
 80 107 80 107 88 134 c 1,31,-1
 109 134 l 1,32,-1
 110 58 l 1,33,34
 147 46 147 46 195.5 35 c 128,-1,35
 244 24 244 24 296 24 c 0,36,37
 362 24 362 24 409 43.5 c 128,-1,38
 456 63 456 63 487.5 91 c 128,-1,39
 519 119 519 119 536 149.5 c 128,-1,40
 553 180 553 180 557 202 c 1,41,42
 563 227 563 227 556 254.5 c 128,-1,43
 549 282 549 282 529 304.5 c 128,-1,44
 509 327 509 327 474 342 c 128,-1,45
 439 357 439 357 389 357 c 2,46,-1
 304 357 l 1,47,-1
 315 405 l 1,48,-1
 400 405 l 2,49,50
 448 405 448 405 482 417 c 128,-1,51
 516 429 516 429 538.5 448.5 c 128,-1,52
 561 468 561 468 574 493.5 c 128,-1,53
 587 519 587 519 593 546 c 0,54,55
 598 570 598 570 594 594 c 128,-1,56
 590 618 590 618 575.5 636.5 c 128,-1,57
 561 655 561 655 533.5 667 c 128,-1,58
 506 679 506 679 464 679 c 0,59,60
 416 679 416 679 359 663 c 128,-1,61
 302 647 302 647 251 627 c 1,62,63
 244 610 244 610 235.5 592 c 128,-1,64
 227 574 227 574 219 557 c 1,65,66
 211 557 211 557 206.5 556 c 128,-1,67
 202 555 202 555 197 555 c 1,68,-1
 213 661 l 1,0,1
EndSplineSet
EndChar

StartChar: four
Encoding: 52 52 23
Width: 696
Flags: W
LayerCount: 2
Fore
SplineSet
486 244 m 1,0,-1
 578 674 l 1,1,2
 418 522 418 522 309.5 417 c 128,-1,3
 201 312 201 312 131 244 c 1,4,-1
 486 244 l 1,0,-1
588 21 m 1,5,-1
 584 0 l 1,6,-1
 354 0 l 1,7,8
 355 6 355 6 355.5 11.5 c 128,-1,9
 356 17 356 17 357 21 c 1,10,-1
 442 40 l 1,11,-1
 477 201 l 1,12,-1
 89 201 l 1,13,-1
 102 263 l 1,14,15
 227 380 227 380 348 495 c 128,-1,16
 469 610 469 610 594 727 c 1,17,-1
 656 727 l 1,18,-1
 553 244 l 1,19,-1
 716 244 l 1,20,-1
 707 201 l 1,21,-1
 544 201 l 1,22,-1
 510 41 l 1,23,-1
 588 21 l 1,5,-1
EndSplineSet
EndChar

StartChar: five
Encoding: 53 53 24
Width: 640
Flags: W
LayerCount: 2
Fore
SplineSet
687 597 m 1,0,-1
 685 676 l 1,1,-1
 320 676 l 1,2,3
 301 617 301 617 281 562 c 128,-1,4
 261 507 261 507 243 447 c 1,5,6
 270 458 270 458 315.5 470.5 c 128,-1,7
 361 483 361 483 409 483 c 0,8,9
 471 483 471 483 521 467.5 c 128,-1,10
 571 452 571 452 603.5 422 c 128,-1,11
 636 392 636 392 648.5 348.5 c 128,-1,12
 661 305 661 305 650 250 c 0,13,14
 637 189 637 189 605.5 142.5 c 128,-1,15
 574 96 574 96 529 64.5 c 128,-1,16
 484 33 484 33 428 16.5 c 128,-1,17
 372 0 372 0 311 0 c 0,18,19
 254 0 254 0 211 6.5 c 128,-1,20
 168 13 168 13 138 22 c 128,-1,21
 108 31 108 31 90 40 c 128,-1,22
 72 49 72 49 65 54 c 1,23,24
 73 80 73 80 81 109.5 c 128,-1,25
 89 139 89 139 97 165 c 1,26,-1
 118 165 l 1,27,-1
 119 93 l 1,28,29
 139 83 139 83 163 73 c 128,-1,30
 187 63 187 63 213.5 55.5 c 128,-1,31
 240 48 240 48 267 43 c 128,-1,32
 294 38 294 38 319 38 c 0,33,34
 377 38 377 38 422 58.5 c 128,-1,35
 467 79 467 79 499.5 110.5 c 128,-1,36
 532 142 532 142 551.5 179.5 c 128,-1,37
 571 217 571 217 578 250 c 0,38,39
 585 286 585 286 581 320.5 c 128,-1,40
 577 355 577 355 557 382 c 128,-1,41
 537 409 537 409 499.5 425.5 c 128,-1,42
 462 442 462 442 404 442 c 0,43,44
 377 442 377 442 348 437 c 128,-1,45
 319 432 319 432 292.5 425.5 c 128,-1,46
 266 419 266 419 243.5 411.5 c 128,-1,47
 221 404 221 404 210 400 c 1,48,49
 198 408 198 408 185.5 416 c 128,-1,50
 173 424 173 424 162 432 c 1,51,52
 193 517 193 517 212.5 568 c 128,-1,53
 232 619 232 619 243.5 648.5 c 128,-1,54
 255 678 255 678 259.5 691.5 c 128,-1,55
 264 705 264 705 268 715 c 1,56,-1
 744 715 l 1,57,58
 736 683 736 683 726 656 c 128,-1,59
 716 629 716 629 707 597 c 1,60,-1
 687 597 l 1,0,-1
EndSplineSet
EndChar

StartChar: six
Encoding: 54 54 25
Width: 622
Flags: W
LayerCount: 2
Fore
SplineSet
189 219 m 0,0,1
 182 187 182 187 187 154 c 128,-1,2
 192 121 192 121 209 93 c 128,-1,3
 226 65 226 65 256 47.5 c 128,-1,4
 286 30 286 30 329 30 c 0,5,6
 392 30 392 30 440 57 c 128,-1,7
 488 84 488 84 518.5 125 c 128,-1,8
 549 166 549 166 560.5 213.5 c 128,-1,9
 572 261 572 261 562.5 302 c 128,-1,10
 553 343 553 343 522 370 c 128,-1,11
 491 397 491 397 435 397 c 0,12,13
 380 397 380 397 335 370 c 128,-1,14
 290 343 290 343 257.5 310 c 128,-1,15
 225 277 225 277 207 249 c 128,-1,16
 189 221 189 221 189 219 c 0,0,1
665 626 m 1,17,18
 630 646 630 646 585.5 661.5 c 128,-1,19
 541 677 541 677 489 677 c 0,20,21
 433 677 433 677 386.5 651 c 128,-1,22
 340 625 340 625 304.5 584.5 c 128,-1,23
 269 544 269 544 245.5 494 c 128,-1,24
 222 444 222 444 211 395 c 0,25,26
 209 384 209 384 206.5 373 c 128,-1,27
 204 362 204 362 202 348.5 c 128,-1,28
 200 335 200 335 196.5 318 c 128,-1,29
 193 301 193 301 189 277 c 1,30,31
 205 313 205 313 234 343.5 c 128,-1,32
 263 374 263 374 299 396.5 c 128,-1,33
 335 419 335 419 373 432 c 128,-1,34
 411 445 411 445 445 445 c 0,35,36
 526 445 526 445 572.5 411.5 c 128,-1,37
 619 378 619 378 634.5 327 c 128,-1,38
 650 276 650 276 636 217.5 c 128,-1,39
 622 159 622 159 581.5 108 c 128,-1,40
 541 57 541 57 475 23.5 c 128,-1,41
 409 -10 409 -10 321 -10 c 0,42,43
 261 -10 261 -10 216.5 7.5 c 128,-1,44
 172 25 172 25 147 67 c 128,-1,45
 122 109 122 109 118.5 179.5 c 128,-1,46
 115 250 115 250 137 356 c 0,47,48
 159 459 159 459 196.5 530 c 128,-1,49
 234 601 234 601 282 645 c 128,-1,50
 330 689 330 689 385.5 708 c 128,-1,51
 441 727 441 727 500 727 c 0,52,53
 536 727 536 727 565 721 c 128,-1,54
 594 715 594 715 619.5 705.5 c 128,-1,55
 645 696 645 696 668.5 684 c 128,-1,56
 692 672 692 672 717 660 c 1,57,-1
 687 554 l 1,58,-1
 666 554 l 1,59,-1
 665 626 l 1,17,18
EndSplineSet
EndChar

StartChar: seven
Encoding: 55 55 26
Width: 633
Flags: W
LayerCount: 2
Fore
SplineSet
244 710 m 1,0,-1
 735 710 l 1,1,2
 726 666 726 666 709 638 c 128,-1,3
 692 610 692 610 663 584 c 1,4,-1
 457 389 l 1,5,6
 421 349 421 349 397 304.5 c 128,-1,7
 373 260 373 260 362 210 c 2,8,-1
 318 1 l 1,9,-1
 250 1 l 1,10,-1
 294 210 l 2,11,12
 302 247 302 247 314 276 c 128,-1,13
 326 305 326 305 341 329 c 128,-1,14
 356 353 356 353 372.5 372.5 c 128,-1,15
 389 392 389 392 406 410 c 0,16,17
 442 447 442 447 470.5 475.5 c 128,-1,18
 499 504 499 504 528 533 c 128,-1,19
 557 562 557 562 590.5 595 c 128,-1,20
 624 628 624 628 670 673 c 1,21,-1
 310 673 l 1,22,23
 302 647 302 647 291.5 616.5 c 128,-1,24
 281 586 281 586 273 559 c 1,25,-1
 252 559 l 1,26,-1
 244 710 l 1,0,-1
EndSplineSet
EndChar

StartChar: eight
Encoding: 56 56 27
Width: 613
Flags: W
LayerCount: 2
Fore
SplineSet
443 445 m 1,0,1
 448 446 448 446 471 455 c 128,-1,2
 494 464 494 464 521 480 c 128,-1,3
 548 496 548 496 571 518 c 128,-1,4
 594 540 594 540 600 567 c 0,5,6
 607 601 607 601 596.5 623 c 128,-1,7
 586 645 586 645 564 657.5 c 128,-1,8
 542 670 542 670 514 675 c 128,-1,9
 486 680 486 680 459 680 c 0,10,11
 434 680 434 680 404 674.5 c 128,-1,12
 374 669 374 669 346.5 656.5 c 128,-1,13
 319 644 319 644 299 624 c 128,-1,14
 279 604 279 604 273 576 c 0,15,16
 267 549 267 549 286 527.5 c 128,-1,17
 305 506 305 506 333.5 489.5 c 128,-1,18
 362 473 362 473 393 462 c 128,-1,19
 424 451 424 451 443 445 c 1,0,1
365 402 m 1,20,21
 285 379 285 379 229.5 326 c 128,-1,22
 174 273 174 273 157 195 c 0,23,24
 147 150 147 150 158.5 118.5 c 128,-1,25
 170 87 170 87 195 67.5 c 128,-1,26
 220 48 220 48 253.5 39 c 128,-1,27
 287 30 287 30 322 30 c 0,28,29
 362 30 362 30 401.5 41.5 c 128,-1,30
 441 53 441 53 473 74 c 128,-1,31
 505 95 505 95 528 125.5 c 128,-1,32
 551 156 551 156 559 195 c 0,33,34
 569 243 569 243 555.5 280.5 c 128,-1,35
 542 318 542 318 513.5 343.5 c 128,-1,36
 485 369 485 369 445.5 384 c 128,-1,37
 406 399 406 399 365 402 c 1,20,21
312 416 m 1,38,39
 296 423 296 423 274.5 436 c 128,-1,40
 253 449 253 449 234 468 c 128,-1,41
 215 487 215 487 204 512 c 128,-1,42
 193 537 193 537 199 567 c 0,43,44
 215 643 215 643 285 684.5 c 128,-1,45
 355 726 355 726 470 726 c 0,46,47
 530 726 530 726 570.5 712.5 c 128,-1,48
 611 699 611 699 635 676 c 128,-1,49
 659 653 659 653 667 623 c 128,-1,50
 675 593 675 593 668 560 c 0,51,52
 661 531 661 531 647 510 c 128,-1,53
 633 489 633 489 611 472.5 c 128,-1,54
 589 456 589 456 560.5 443 c 128,-1,55
 532 430 532 430 496 418 c 1,56,57
 529 401 529 401 557.5 380 c 128,-1,58
 586 359 586 359 604.5 332 c 128,-1,59
 623 305 623 305 631 271 c 128,-1,60
 639 237 639 237 630 195 c 0,61,62
 619 142 619 142 589.5 102.5 c 128,-1,63
 560 63 560 63 518 36.5 c 128,-1,64
 476 10 476 10 422.5 -3.5 c 128,-1,65
 369 -17 369 -17 311 -17 c 0,66,67
 256 -17 256 -17 209.5 -6.5 c 128,-1,68
 163 4 163 4 132.5 28.5 c 128,-1,69
 102 53 102 53 89.5 93.5 c 128,-1,70
 77 134 77 134 90 195 c 0,71,72
 100 242 100 242 128 279 c 128,-1,73
 156 316 156 316 189.5 344 c 128,-1,74
 223 372 223 372 256.5 390 c 128,-1,75
 290 408 290 408 312 416 c 1,38,39
EndSplineSet
EndChar

StartChar: nine
Encoding: 57 57 28
Width: 622
Flags: W
LayerCount: 2
Fore
SplineSet
611 497 m 0,0,1
 618 528 618 528 613 561.5 c 128,-1,2
 608 595 608 595 591 623 c 128,-1,3
 574 651 574 651 544 668.5 c 128,-1,4
 514 686 514 686 471 686 c 0,5,6
 407 686 407 686 359.5 659 c 128,-1,7
 312 632 312 632 281.5 591 c 128,-1,8
 251 550 251 550 239.5 502.5 c 128,-1,9
 228 455 228 455 237.5 414 c 128,-1,10
 247 373 247 373 278 346 c 128,-1,11
 309 319 309 319 365 319 c 0,12,13
 420 319 420 319 465 346 c 128,-1,14
 510 373 510 373 542.5 406 c 128,-1,15
 575 439 575 439 593 467 c 128,-1,16
 611 495 611 495 611 497 c 0,0,1
136 90 m 1,17,18
 170 70 170 70 214.5 54.5 c 128,-1,19
 259 39 259 39 311 39 c 0,20,21
 367 39 367 39 413.5 65 c 128,-1,22
 460 91 460 91 495.5 131.5 c 128,-1,23
 531 172 531 172 554.5 222 c 128,-1,24
 578 272 578 272 589 321 c 0,25,26
 591 332 591 332 593.5 343 c 128,-1,27
 596 354 596 354 598 367.5 c 128,-1,28
 600 381 600 381 603.5 398 c 128,-1,29
 607 415 607 415 611 439 c 1,30,31
 595 403 595 403 566 372 c 128,-1,32
 537 341 537 341 501 318.5 c 128,-1,33
 465 296 465 296 427 283.5 c 128,-1,34
 389 271 389 271 355 271 c 0,35,36
 274 271 274 271 227.5 304.5 c 128,-1,37
 181 338 181 338 165.5 389 c 128,-1,38
 150 440 150 440 164 498.5 c 128,-1,39
 178 557 178 557 219 608 c 128,-1,40
 260 659 260 659 325.5 692.5 c 128,-1,41
 391 726 391 726 479 726 c 0,42,43
 539 726 539 726 583.5 708.5 c 128,-1,44
 628 691 628 691 653.5 649 c 128,-1,45
 679 607 679 607 682.5 536.5 c 128,-1,46
 686 466 686 466 663 360 c 0,47,48
 641 256 641 256 603.5 185.5 c 128,-1,49
 566 115 566 115 518 71 c 128,-1,50
 470 27 470 27 414.5 8 c 128,-1,51
 359 -11 359 -11 300 -11 c 0,52,53
 264 -11 264 -11 235 -5 c 128,-1,54
 206 1 206 1 180.5 10.5 c 128,-1,55
 155 20 155 20 131.5 32 c 128,-1,56
 108 44 108 44 83 56 c 1,57,-1
 113 162 l 1,58,-1
 134 162 l 1,59,-1
 136 90 l 1,17,18
EndSplineSet
EndChar

StartChar: colon
Encoding: 58 58 29
Width: 301
Flags: W
LayerCount: 2
Fore
SplineSet
134 83 m 1,0,-1
 218 83 l 1,1,-1
 200 -1 l 1,2,-1
 116 -1 l 1,3,-1
 134 83 l 1,0,-1
209 433 m 1,4,-1
 226 517 l 1,5,-1
 310 517 l 1,6,-1
 293 433 l 1,7,-1
 209 433 l 1,4,-1
EndSplineSet
EndChar

StartChar: semicolon
Encoding: 59 59 30
Width: 307
Flags: W
LayerCount: 2
Fore
SplineSet
117 0 m 1,0,-1
 134 84 l 1,1,-1
 220 84 l 1,2,3
 218 55 218 55 215 30 c 128,-1,4
 212 5 212 5 207 -15 c 0,5,6
 198 -60 198 -60 182 -91 c 128,-1,7
 166 -122 166 -122 146.5 -142 c 128,-1,8
 127 -162 127 -162 105.5 -172.5 c 128,-1,9
 84 -183 84 -183 63 -186 c 1,10,-1
 70 -152 l 1,11,12
 98 -149 98 -149 116 -135 c 128,-1,13
 134 -121 134 -121 145.5 -100 c 128,-1,14
 157 -79 157 -79 163.5 -53 c 128,-1,15
 170 -27 170 -27 176 0 c 1,16,-1
 117 0 l 1,0,-1
209 433 m 1,17,-1
 226 517 l 1,18,-1
 310 517 l 1,19,-1
 293 433 l 1,20,-1
 209 433 l 1,17,-1
EndSplineSet
EndChar

StartChar: less
Encoding: 60 60 31
Width: 621
Flags: W
LayerCount: 2
Fore
SplineSet
590 458 m 1,0,-1
 84 250 l 1,1,-1
 599 49 l 1,2,-1
 599 -2 l 1,3,-1
 59 224 l 1,4,-1
 59 278 l 1,5,-1
 590 511 l 1,6,-1
 590 458 l 1,0,-1
EndSplineSet
EndChar

StartChar: equal
Encoding: 61 61 32
Width: 598
Flags: W
LayerCount: 2
Fore
SplineSet
560 169 m 1,0,-1
 560 128 l 1,1,-1
 59 128 l 1,2,-1
 59 169 l 1,3,-1
 560 169 l 1,0,-1
560 378 m 1,4,-1
 560 335 l 1,5,-1
 59 335 l 1,6,-1
 59 378 l 1,7,-1
 560 378 l 1,4,-1
EndSplineSet
EndChar

StartChar: greater
Encoding: 62 62 33
Width: 618
Flags: W
LayerCount: 2
Fore
SplineSet
54 511 m 1,0,-1
 585 278 l 1,1,-1
 585 224 l 1,2,-1
 45 -2 l 1,3,-1
 45 49 l 1,4,-1
 560 250 l 1,5,-1
 54 458 l 1,6,-1
 54 511 l 1,0,-1
EndSplineSet
EndChar

StartChar: question
Encoding: 63 63 34
Width: 601
Flags: W
LayerCount: 2
Fore
SplineSet
246 84 m 1,0,-1
 331 84 l 1,1,-1
 314 0 l 1,2,-1
 229 0 l 1,3,-1
 246 84 l 1,0,-1
238 717 m 1,4,5
 289 734 289 734 337.5 741.5 c 128,-1,6
 386 749 386 749 437 749 c 0,7,8
 489 749 489 749 531.5 739 c 128,-1,9
 574 729 574 729 603.5 708 c 128,-1,10
 633 687 633 687 644.5 653.5 c 128,-1,11
 656 620 656 620 646 573 c 0,12,13
 639 541 639 541 624 515.5 c 128,-1,14
 609 490 609 490 588 469 c 128,-1,15
 567 448 567 448 543 430.5 c 128,-1,16
 519 413 519 413 495 397 c 1,17,18
 470 379 470 379 445.5 361 c 128,-1,19
 421 343 421 343 399 322 c 128,-1,20
 377 301 377 301 359.5 276.5 c 128,-1,21
 342 252 342 252 332 221 c 1,22,-1
 292 221 l 1,23,24
 304 261 304 261 322 292.5 c 128,-1,25
 340 324 340 324 362 348 c 128,-1,26
 384 372 384 372 406.5 389.5 c 128,-1,27
 429 407 429 407 450 421 c 0,28,29
 470 435 470 435 490 450 c 128,-1,30
 510 465 510 465 527 482.5 c 128,-1,31
 544 500 544 500 556.5 522 c 128,-1,32
 569 544 569 544 575 573 c 0,33,34
 587 628 587 628 553 663 c 128,-1,35
 519 698 519 698 426 698 c 0,36,37
 412 698 412 698 393 696 c 128,-1,38
 374 694 374 694 354 690.5 c 128,-1,39
 334 687 334 687 313.5 682 c 128,-1,40
 293 677 293 677 277 672 c 1,41,42
 273 639 273 639 269 602.5 c 128,-1,43
 265 566 265 566 260 533 c 1,44,-1
 239 533 l 1,45,-1
 238 717 l 1,4,5
EndSplineSet
EndChar

StartChar: at
Encoding: 64 64 35
Width: 817
Flags: W
LayerCount: 2
Fore
SplineSet
503 395 m 1,0,1
 497 409 497 409 486.5 427 c 128,-1,2
 476 445 476 445 451 463 c 1,3,4
 429 475 429 475 409.5 470.5 c 128,-1,5
 390 466 390 466 375.5 450.5 c 128,-1,6
 361 435 361 435 352.5 410.5 c 128,-1,7
 344 386 344 386 344 358 c 0,8,9
 344 315 344 315 362.5 294.5 c 128,-1,10
 381 274 381 274 413 274 c 0,11,12
 433 274 433 274 456 289 c 128,-1,13
 479 304 479 304 497 324 c 1,14,-1
 503 395 l 1,0,1
806 441 m 0,15,16
 806 401 806 401 796.5 360 c 128,-1,17
 787 319 787 319 765 285.5 c 128,-1,18
 743 252 743 252 705.5 231 c 128,-1,19
 668 210 668 210 613 210 c 0,20,21
 559 210 559 210 529 230.5 c 128,-1,22
 499 251 499 251 494 279 c 1,23,24
 482 258 482 258 455.5 240.5 c 128,-1,25
 429 223 429 223 394 223 c 0,26,27
 371 223 371 223 350 229.5 c 128,-1,28
 329 236 329 236 313 252 c 128,-1,29
 297 268 297 268 287.5 295.5 c 128,-1,30
 278 323 278 323 278 365 c 0,31,32
 278 396 278 396 287.5 425.5 c 128,-1,33
 297 455 297 455 313.5 477 c 128,-1,34
 330 499 330 499 352 512.5 c 128,-1,35
 374 526 374 526 398 526 c 0,36,37
 408 526 408 526 422.5 523.5 c 128,-1,38
 437 521 437 521 452.5 513 c 128,-1,39
 468 505 468 505 484 490.5 c 128,-1,40
 500 476 500 476 513 453 c 1,41,-1
 529 518 l 1,42,-1
 579 500 l 1,43,44
 567 421 567 421 563 379.5 c 128,-1,45
 559 338 559 338 559 313 c 0,46,47
 559 252 559 252 619 252 c 0,48,49
 647 252 647 252 668 267.5 c 128,-1,50
 689 283 689 283 703 310 c 128,-1,51
 717 337 717 337 723.5 373 c 128,-1,52
 730 409 730 409 730 449 c 0,53,54
 730 513 730 513 704 561 c 128,-1,55
 678 609 678 609 636 640.5 c 128,-1,56
 594 672 594 672 540.5 688 c 128,-1,57
 487 704 487 704 432 704 c 0,58,59
 420 704 420 704 393 702.5 c 128,-1,60
 366 701 366 701 332 691.5 c 128,-1,61
 298 682 298 682 262 661.5 c 128,-1,62
 226 641 226 641 196 603.5 c 128,-1,63
 166 566 166 566 147 508.5 c 128,-1,64
 128 451 128 451 128 367 c 0,65,66
 128 279 128 279 148 220 c 128,-1,67
 168 161 168 161 200 123.5 c 128,-1,68
 232 86 232 86 271 66.5 c 128,-1,69
 310 47 310 47 348.5 38.5 c 128,-1,70
 387 30 387 30 420 29 c 128,-1,71
 453 28 453 28 473 28 c 0,72,73
 512 28 512 28 553.5 35.5 c 128,-1,74
 595 43 595 43 636 56 c 128,-1,75
 677 69 677 69 715.5 86 c 128,-1,76
 754 103 754 103 789 123 c 1,77,-1
 789 38 l 1,78,79
 701 6 701 6 612.5 -6 c 128,-1,80
 524 -18 524 -18 436 -18 c 0,81,82
 337 -18 337 -18 263 10 c 128,-1,83
 189 38 189 38 141 89 c 128,-1,84
 93 140 93 140 70 210.5 c 128,-1,85
 47 281 47 281 49 366 c 1,86,87
 49 455 49 455 78 526.5 c 128,-1,88
 107 598 107 598 158.5 648 c 128,-1,89
 210 698 210 698 280.5 725 c 128,-1,90
 351 752 351 752 435 752 c 0,91,92
 512 752 512 752 579.5 733 c 128,-1,93
 647 714 647 714 697.5 675 c 128,-1,94
 748 636 748 636 777 577.5 c 128,-1,95
 806 519 806 519 806 441 c 0,15,16
EndSplineSet
EndChar

StartChar: A
Encoding: 65 65 36
Width: 657
Flags: W
LayerCount: 2
Fore
SplineSet
269 314 m 1,0,-1
 540 314 l 1,1,-1
 488 677 l 1,2,-1
 269 314 l 1,0,-1
-39 0 m 1,3,4
 -37 7 -37 7 -35.5 11 c 128,-1,5
 -34 15 -34 15 -33 20 c 1,6,-1
 39 37 l 1,7,-1
 427 676 l 1,8,9
 411 680 411 680 390 685.5 c 128,-1,10
 369 691 369 691 351 696 c 1,11,-1
 356 716 l 1,12,-1
 542 716 l 1,13,-1
 634 37 l 1,14,15
 651 34 651 34 668.5 29 c 128,-1,16
 686 24 686 24 702 20 c 1,17,18
 700 12 700 12 700 8.5 c 128,-1,19
 700 5 700 5 699 0 c 1,20,-1
 474 0 l 1,21,22
 475 6 475 6 476.5 11 c 128,-1,23
 478 16 478 16 479 21 c 1,24,-1
 567 40 l 1,25,-1
 544 272 l 1,26,-1
 251 272 l 1,27,-1
 108 41 l 1,28,29
 126 36 126 36 147.5 30.5 c 128,-1,30
 169 25 169 25 188 20 c 1,31,32
 186 12 186 12 186 8.5 c 128,-1,33
 186 5 186 5 185 0 c 1,34,-1
 -39 0 l 1,3,4
EndSplineSet
EndChar

StartChar: B
Encoding: 66 66 37
Width: 705
Flags: W
LayerCount: 2
Fore
SplineSet
176 33 m 1,0,-1
 325 26 l 1,1,2
 405 24 405 24 459 36 c 128,-1,3
 513 48 513 48 547 71 c 128,-1,4
 581 94 581 94 600 127.5 c 128,-1,5
 619 161 619 161 628 203 c 0,6,7
 636 242 636 242 627 272.5 c 128,-1,8
 618 303 618 303 595 324 c 128,-1,9
 572 345 572 345 535.5 356 c 128,-1,10
 499 367 499 367 452 367 c 2,11,-1
 247 367 l 1,12,-1
 176 33 l 1,0,-1
414 411 m 2,13,14
 516 411 516 411 568 441 c 128,-1,15
 620 471 620 471 634 539 c 0,16,17
 641 570 641 570 636 594.5 c 128,-1,18
 631 619 631 619 613 636.5 c 128,-1,19
 595 654 595 654 562 663.5 c 128,-1,20
 529 673 529 673 479 673 c 2,21,-1
 312 673 l 1,22,-1
 256 411 l 1,23,-1
 414 411 l 2,13,14
487 716 m 2,24,25
 561 716 561 716 608 702 c 128,-1,26
 655 688 655 688 680.5 664 c 128,-1,27
 706 640 706 640 712 607.5 c 128,-1,28
 718 575 718 575 710 539 c 0,29,30
 698 483 698 483 652.5 443 c 128,-1,31
 607 403 607 403 515 390 c 1,32,33
 560 387 560 387 598.5 374.5 c 128,-1,34
 637 362 637 362 664 338.5 c 128,-1,35
 691 315 691 315 703 279.5 c 128,-1,36
 715 244 715 244 705 195 c 0,37,38
 697 157 697 157 673.5 120.5 c 128,-1,39
 650 84 650 84 609.5 54.5 c 128,-1,40
 569 25 569 25 510 6.5 c 128,-1,41
 451 -12 451 -12 371 -13 c 1,42,43
 277 -9 277 -9 192.5 -7 c 128,-1,44
 108 -5 108 -5 26 0 c 1,45,-1
 30 22 l 1,46,-1
 111 40 l 1,47,-1
 248 677 l 1,48,-1
 173 695 l 1,49,-1
 178 716 l 1,50,-1
 487 716 l 2,24,25
EndSplineSet
EndChar

StartChar: C
Encoding: 67 67 38
Width: 700
Flags: W
LayerCount: 2
Fore
SplineSet
720 658 m 1,0,1
 692 674 692 674 657 681.5 c 128,-1,2
 622 689 622 689 582 689 c 0,3,4
 547 689 547 689 494.5 673 c 128,-1,5
 442 657 442 657 388 618 c 128,-1,6
 334 579 334 579 287 514.5 c 128,-1,7
 240 450 240 450 218 354 c 1,8,9
 206 278 206 278 212.5 224 c 128,-1,10
 219 170 219 170 237 134 c 128,-1,11
 255 98 255 98 281.5 77.5 c 128,-1,12
 308 57 308 57 337 46.5 c 128,-1,13
 366 36 366 36 394 33 c 128,-1,14
 422 30 422 30 442 30 c 0,15,16
 502 30 502 30 557 54 c 128,-1,17
 612 78 612 78 657 108 c 1,18,-1
 643 39 l 1,19,20
 629 31 629 31 607 21.5 c 128,-1,21
 585 12 585 12 557 3 c 128,-1,22
 529 -6 529 -6 496.5 -13 c 128,-1,23
 464 -20 464 -20 431 -21 c 1,24,25
 340 -21 340 -21 277.5 8.5 c 128,-1,26
 215 38 215 38 179.5 89 c 128,-1,27
 144 140 144 140 135.5 208.5 c 128,-1,28
 127 277 127 277 144 354 c 1,29,30
 161 436 161 436 199.5 505.5 c 128,-1,31
 238 575 238 575 295 625 c 128,-1,32
 352 675 352 675 426.5 703 c 128,-1,33
 501 731 501 731 591 731 c 0,34,35
 654 731 654 731 702.5 719.5 c 128,-1,36
 751 708 751 708 776 699 c 1,37,38
 767 665 767 665 757 635 c 128,-1,39
 747 605 747 605 738 573 c 1,40,-1
 719 573 l 1,41,-1
 720 658 l 1,0,1
EndSplineSet
EndChar

StartChar: D
Encoding: 68 68 39
Width: 702
Flags: W
LayerCount: 2
Fore
SplineSet
183 74 m 2,0,1
 181 62 181 62 180 55.5 c 128,-1,2
 179 49 179 49 181 46 c 128,-1,3
 183 43 183 43 188 43 c 128,-1,4
 193 43 193 43 203 43 c 2,5,-1
 292 43 l 2,6,7
 336 43 336 43 389.5 58 c 128,-1,8
 443 73 443 73 493.5 109 c 128,-1,9
 544 145 544 145 585.5 204.5 c 128,-1,10
 627 264 627 264 646 354 c 0,11,12
 664 440 664 440 648.5 500.5 c 128,-1,13
 633 561 633 561 598 599 c 128,-1,14
 563 637 563 637 516 654.5 c 128,-1,15
 469 672 469 672 425 672 c 0,16,17
 391 672 391 672 370 672 c 128,-1,18
 349 672 349 672 336.5 671.5 c 128,-1,19
 324 671 324 671 318 669 c 128,-1,20
 312 667 312 667 309 664 c 1,21,-1
 183 74 l 2,0,1
171 694 m 1,22,-1
 175 715 l 1,23,-1
 432 715 l 2,24,25
 533 715 533 715 595.5 679 c 128,-1,26
 658 643 658 643 690.5 588.5 c 128,-1,27
 723 534 723 534 729.5 471 c 128,-1,28
 736 408 736 408 725 354 c 0,29,30
 713 300 713 300 683 237.5 c 128,-1,31
 653 175 653 175 599.5 122.5 c 128,-1,32
 546 70 546 70 468 35 c 128,-1,33
 390 0 390 0 282 0 c 2,34,-1
 24 0 l 1,35,-1
 28 21 l 1,36,-1
 110 39 l 1,37,-1
 245 677 l 1,38,-1
 171 694 l 1,22,-1
EndSplineSet
EndChar

StartChar: E
Encoding: 69 69 40
Width: 588
Flags: W
LayerCount: 2
Fore
SplineSet
617 673 m 1,0,-1
 312 673 l 1,1,-1
 250 385 l 1,2,-1
 510 385 l 1,3,-1
 501 342 l 1,4,-1
 241 342 l 1,5,-1
 178 43 l 1,6,-1
 516 43 l 1,7,-1
 549 120 l 1,8,-1
 568 120 l 1,9,-1
 543 0 l 1,10,-1
 27 0 l 1,11,-1
 31 21 l 1,12,-1
 113 39 l 1,13,-1
 249 676 l 1,14,-1
 174 694 l 1,15,-1
 178 715 l 1,16,-1
 672 715 l 1,17,-1
 632 575 l 1,18,-1
 613 575 l 1,19,-1
 617 673 l 1,0,-1
EndSplineSet
EndChar

StartChar: F
Encoding: 70 70 41
Width: 599
Flags: W
LayerCount: 2
Fore
SplineSet
253 20 m 1,0,-1
 249 0 l 1,1,-1
 29 0 l 1,2,-1
 33 22 l 1,3,-1
 114 40 l 1,4,-1
 249 675 l 1,5,-1
 176 693 l 1,6,-1
 180 715 l 1,7,-1
 718 715 l 1,8,9
 708 677 708 677 699.5 643.5 c 128,-1,10
 691 610 691 610 682 574 c 1,11,-1
 660 574 l 1,12,-1
 663 671 l 1,13,-1
 312 671 l 1,14,-1
 252 386 l 1,15,-1
 499 386 l 1,16,-1
 488 336 l 1,17,-1
 241 336 l 1,18,-1
 178 38 l 1,19,-1
 253 20 l 1,0,-1
EndSplineSet
EndChar

StartChar: G
Encoding: 71 71 42
Width: 814
Flags: W
LayerCount: 2
Fore
SplineSet
759 37 m 1,0,1
 734 29 734 29 697.5 19.5 c 128,-1,2
 661 10 661 10 618.5 1 c 128,-1,3
 576 -8 576 -8 530 -14 c 128,-1,4
 484 -20 484 -20 441 -20 c 0,5,6
 335 -21 335 -21 268 6.5 c 128,-1,7
 201 34 201 34 166 84.5 c 128,-1,8
 131 135 131 135 126 205 c 128,-1,9
 121 275 121 275 139 359 c 256,10,11
 157 443 157 443 196.5 512 c 128,-1,12
 236 581 236 581 294 629.5 c 128,-1,13
 352 678 352 678 427 705 c 128,-1,14
 502 732 502 732 591 732 c 0,15,16
 689 732 689 732 753 718.5 c 128,-1,17
 817 705 817 705 844 695 c 1,18,-1
 809 574 l 1,19,-1
 788 574 l 1,20,-1
 788 655 l 1,21,22
 751 673 751 673 701.5 680 c 128,-1,23
 652 687 652 687 580 687 c 1,24,25
 538 685 538 685 499 675 c 128,-1,26
 460 665 460 665 423 646 c 0,27,28
 392 630 392 630 360.5 606 c 128,-1,29
 329 582 329 582 300.5 547 c 128,-1,30
 272 512 272 512 249 464 c 128,-1,31
 226 416 226 416 213 353 c 0,32,33
 195 270 195 270 202 214 c 128,-1,34
 209 158 209 158 231.5 122 c 128,-1,35
 254 86 254 86 286 67 c 128,-1,36
 318 48 318 48 350.5 40 c 128,-1,37
 383 32 383 32 411 31 c 128,-1,38
 439 30 439 30 452 30 c 0,39,40
 523 30 523 30 585 43.5 c 128,-1,41
 647 57 647 57 706 91 c 1,42,-1
 743 265 l 1,43,44
 723 269 723 269 710 272 c 128,-1,45
 697 275 697 275 689 277 c 128,-1,46
 681 279 681 279 676.5 280 c 128,-1,47
 672 281 672 281 668 282 c 1,48,-1
 672 301 l 1,49,-1
 815 301 l 1,50,-1
 759 37 l 1,0,1
EndSplineSet
EndChar

StartChar: H
Encoding: 72 72 43
Width: 770
Flags: W
LayerCount: 2
Fore
SplineSet
916 695 m 1,0,-1
 836 678 l 1,1,-1
 699 40 l 1,2,3
 715 36 715 36 735.5 31.5 c 128,-1,4
 756 27 756 27 773 22 c 1,5,-1
 769 0 l 1,6,-1
 546 0 l 1,7,-1
 550 21 l 1,8,-1
 632 39 l 1,9,-1
 697 337 l 1,10,-1
 245 337 l 1,11,-1
 182 38 l 1,12,-1
 256 21 l 1,13,-1
 252 0 l 1,14,-1
 27 0 l 1,15,-1
 31 21 l 1,16,-1
 110 39 l 1,17,-1
 245 677 l 1,18,19
 230 680 230 680 210.5 685 c 128,-1,20
 191 690 191 690 174 694 c 1,21,-1
 179 716 l 1,22,-1
 404 716 l 1,23,-1
 399 695 l 1,24,-1
 317 677 l 1,25,-1
 255 382 l 1,26,-1
 707 382 l 1,27,-1
 769 676 l 1,28,-1
 693 696 l 1,29,-1
 698 716 l 1,30,-1
 921 716 l 1,31,-1
 916 695 l 1,0,-1
EndSplineSet
EndChar

StartChar: I
Encoding: 73 73 44
Width: 279
Flags: W
LayerCount: 2
Fore
SplineSet
401 695 m 1,0,-1
 321 677 l 1,1,-1
 186 38 l 1,2,-1
 259 21 l 1,3,-1
 255 0 l 1,4,-1
 39 0 l 1,5,-1
 43 21 l 1,6,-1
 122 39 l 1,7,-1
 257 677 l 1,8,9
 242 680 242 680 223 685 c 128,-1,10
 204 690 204 690 187 694 c 1,11,-1
 192 716 l 1,12,-1
 406 716 l 1,13,-1
 401 695 l 1,0,-1
EndSplineSet
EndChar

StartChar: J
Encoding: 74 74 45
Width: 292
Flags: W
LayerCount: 2
Fore
SplineSet
197 695 m 1,0,-1
 202 716 l 1,1,-1
 425 716 l 1,2,-1
 420 695 l 1,3,-1
 337 677 l 1,4,-1
 186 -23 l 2,5,6
 174 -76 174 -76 153.5 -109.5 c 128,-1,7
 133 -143 133 -143 110.5 -163 c 128,-1,8
 88 -183 88 -183 65.5 -192 c 128,-1,9
 43 -201 43 -201 27 -205 c 1,10,-1
 35 -168 l 1,11,12
 42 -163 42 -163 53.5 -152.5 c 128,-1,13
 65 -142 65 -142 79 -125 c 128,-1,14
 93 -108 93 -108 105 -83 c 128,-1,15
 117 -58 117 -58 125 -23 c 2,16,-1
 273 677 l 1,17,-1
 197 695 l 1,0,-1
EndSplineSet
EndChar

StartChar: K
Encoding: 75 75 46
Width: 663
Flags: W
LayerCount: 2
Fore
SplineSet
630 37 m 1,0,1
 647 34 647 34 664 29 c 128,-1,2
 681 24 681 24 697 20 c 1,3,-1
 693 0 l 1,4,-1
 475 0 l 1,5,-1
 479 20 l 1,6,-1
 557 35 l 1,7,-1
 401 386 l 1,8,-1
 216 218 l 1,9,-1
 178 39 l 1,10,11
 194 35 194 35 214.5 30.5 c 128,-1,12
 235 26 235 26 252 21 c 1,13,-1
 248 0 l 1,14,-1
 26 0 l 1,15,-1
 30 21 l 1,16,-1
 112 39 l 1,17,-1
 248 676 l 1,18,19
 231 680 231 680 210.5 685 c 128,-1,20
 190 690 190 690 173 695 c 1,21,-1
 178 716 l 1,22,-1
 400 716 l 1,23,-1
 395 695 l 1,24,-1
 315 678 l 1,25,-1
 233 297 l 1,26,-1
 629 672 l 1,27,-1
 538 695 l 1,28,-1
 543 716 l 1,29,-1
 780 716 l 1,30,-1
 775 695 l 1,31,-1
 705 679 l 1,32,-1
 450 439 l 1,33,-1
 630 37 l 1,0,1
EndSplineSet
EndChar

StartChar: L
Encoding: 76 76 47
Width: 555
Flags: W
LayerCount: 2
Fore
SplineSet
539 0 m 1,0,-1
 28 0 l 1,1,2
 29 6 29 6 29.5 11 c 128,-1,3
 30 16 30 16 31 21 c 1,4,-1
 113 39 l 1,5,-1
 249 677 l 1,6,-1
 174 695 l 1,7,-1
 179 716 l 1,8,-1
 401 716 l 1,9,-1
 396 695 l 1,10,-1
 316 678 l 1,11,-1
 185 68 l 2,12,13
 181 51 181 51 183.5 48.5 c 128,-1,14
 186 46 186 46 205 46 c 2,15,-1
 503 46 l 1,16,17
 511 68 511 68 521.5 94.5 c 128,-1,18
 532 121 532 121 541 144 c 1,19,-1
 562 144 l 1,20,-1
 539 0 l 1,0,-1
EndSplineSet
EndChar

StartChar: M
Encoding: 77 77 48
Width: 896
Flags: W
LayerCount: 2
Fore
SplineSet
23 0 m 1,0,-1
 27 21 l 1,1,-1
 109 39 l 1,2,-1
 244 677 l 1,3,-1
 169 695 l 1,4,-1
 174 716 l 1,5,-1
 352 716 l 1,6,-1
 479 179 l 2,7,8
 485 156 485 156 500 156 c 128,-1,9
 515 156 515 156 530 179 c 2,10,-1
 880 716 l 1,11,-1
 1049 716 l 1,12,-1
 1044 695 l 1,13,-1
 962 677 l 1,14,-1
 827 40 l 1,15,-1
 904 21 l 1,16,-1
 899 0 l 1,17,-1
 674 0 l 1,18,-1
 678 21 l 1,19,-1
 761 39 l 1,20,-1
 891 643 l 1,21,-1
 521 84 l 1,22,-1
 447 84 l 1,23,-1
 303 645 l 1,24,-1
 174 38 l 1,25,-1
 252 21 l 1,26,-1
 248 0 l 1,27,-1
 23 0 l 1,0,-1
EndSplineSet
EndChar

StartChar: N
Encoding: 78 78 49
Width: 741
Flags: W
LayerCount: 2
Fore
SplineSet
803 677 m 1,0,-1
 668 38 l 1,1,-1
 743 21 l 1,2,-1
 739 0 l 1,3,-1
 584 0 l 1,4,-1
 305 653 l 1,5,-1
 174 40 l 1,6,7
 191 36 191 36 211.5 31 c 128,-1,8
 232 26 232 26 249 21 c 1,9,10
 247 13 247 13 247 9 c 128,-1,11
 247 5 247 5 246 0 c 1,12,-1
 22 0 l 1,13,14
 23 6 23 6 24.5 11 c 128,-1,15
 26 16 26 16 27 21 c 1,16,-1
 108 39 l 1,17,-1
 244 677 l 1,18,-1
 171 695 l 1,19,-1
 176 716 l 1,20,-1
 338 716 l 1,21,-1
 611 77 l 1,22,-1
 747 716 l 1,23,-1
 890 716 l 1,24,-1
 885 695 l 1,25,-1
 803 677 l 1,0,-1
EndSplineSet
EndChar

StartChar: O
Encoding: 79 79 50
Width: 844
Flags: W
LayerCount: 2
Fore
SplineSet
210 357 m 0,0,1
 192 271 192 271 198.5 213 c 128,-1,2
 205 155 205 155 226.5 118.5 c 128,-1,3
 248 82 248 82 279.5 62.5 c 128,-1,4
 311 43 311 43 342 35 c 128,-1,5
 373 27 373 27 400 26 c 128,-1,6
 427 25 427 25 439 25 c 0,7,8
 449 25 449 25 476 26.5 c 128,-1,9
 503 28 503 28 539.5 37.5 c 128,-1,10
 576 47 576 47 617.5 67 c 128,-1,11
 659 87 659 87 697.5 124 c 128,-1,12
 736 161 736 161 768 217.5 c 128,-1,13
 800 274 800 274 817 357 c 0,14,15
 835 441 835 441 827 498 c 128,-1,16
 819 555 819 555 796 592 c 128,-1,17
 773 629 773 629 740 648 c 128,-1,18
 707 667 707 667 674.5 676 c 128,-1,19
 642 685 642 685 615.5 686 c 128,-1,20
 589 687 589 687 579 687 c 0,21,22
 567 687 567 687 540 685.5 c 128,-1,23
 513 684 513 684 477.5 674.5 c 128,-1,24
 442 665 442 665 402.5 645 c 128,-1,25
 363 625 363 625 326 588.5 c 128,-1,26
 289 552 289 552 258.5 495.5 c 128,-1,27
 228 439 228 439 210 357 c 0,0,1
589 731 m 1,28,29
 784 728 784 728 854 634 c 128,-1,30
 924 540 924 540 885 356 c 0,31,32
 868 276 868 276 833 207.5 c 128,-1,33
 798 139 798 139 742.5 88.5 c 128,-1,34
 687 38 687 38 609 9 c 128,-1,35
 531 -20 531 -20 429 -20 c 0,36,37
 325 -20 325 -20 260 7 c 128,-1,38
 195 34 195 34 161.5 83.5 c 128,-1,39
 128 133 128 133 122.5 202.5 c 128,-1,40
 117 272 117 272 134 356 c 0,41,42
 173 540 173 540 291.5 634 c 128,-1,43
 410 728 410 728 589 731 c 1,28,29
EndSplineSet
EndChar

StartChar: P
Encoding: 80 80 51
Width: 636
Flags: W
LayerCount: 2
Fore
SplineSet
243 348 m 1,0,-1
 424 348 l 2,1,2
 478 348 478 348 516.5 366.5 c 128,-1,3
 555 385 555 385 580.5 410.5 c 128,-1,4
 606 436 606 436 619 462.5 c 128,-1,5
 632 489 632 489 636 506 c 0,6,7
 642 532 642 532 640.5 561.5 c 128,-1,8
 639 591 639 591 624.5 615.5 c 128,-1,9
 610 640 610 640 578.5 656 c 128,-1,10
 547 672 547 672 493 672 c 2,11,-1
 312 672 l 1,12,-1
 243 348 l 1,0,-1
175 695 m 1,13,-1
 180 716 l 1,14,-1
 503 716 l 2,15,16
 576 716 576 716 621 697 c 128,-1,17
 666 678 666 678 689 648 c 128,-1,18
 712 618 712 618 716.5 580.5 c 128,-1,19
 721 543 721 543 713 507 c 0,20,21
 706 473 706 473 686 437 c 128,-1,22
 666 401 666 401 630 371 c 128,-1,23
 594 341 594 341 541 322 c 128,-1,24
 488 303 488 303 415 303 c 2,25,-1
 234 303 l 1,26,-1
 178 40 l 1,27,28
 195 36 195 36 215.5 31 c 128,-1,29
 236 26 236 26 254 21 c 1,30,-1
 250 0 l 1,31,-1
 26 0 l 1,32,-1
 30 21 l 1,33,-1
 113 39 l 1,34,-1
 249 677 l 1,35,-1
 175 695 l 1,13,-1
EndSplineSet
EndChar

StartChar: Q
Encoding: 81 81 52
Width: 841
Flags: W
LayerCount: 2
Fore
SplineSet
210 354 m 1,0,1
 191 268 191 268 198 210 c 128,-1,2
 205 152 205 152 226 115.5 c 128,-1,3
 247 79 247 79 278.5 59.5 c 128,-1,4
 310 40 310 40 341.5 32 c 128,-1,5
 373 24 373 24 399.5 23 c 128,-1,6
 426 22 426 22 438 22 c 0,7,8
 448 22 448 22 475.5 23.5 c 128,-1,9
 503 25 503 25 539 34.5 c 128,-1,10
 575 44 575 44 616 64 c 128,-1,11
 657 84 657 84 695.5 121 c 128,-1,12
 734 158 734 158 766 214.5 c 128,-1,13
 798 271 798 271 816 354 c 0,14,15
 834 438 834 438 826 495 c 128,-1,16
 818 552 818 552 795.5 589 c 128,-1,17
 773 626 773 626 740 645 c 128,-1,18
 707 664 707 664 674 673 c 128,-1,19
 641 682 641 682 614.5 683 c 128,-1,20
 588 684 588 684 578 684 c 0,21,22
 566 684 566 684 539 682.5 c 128,-1,23
 512 681 512 681 476.5 671.5 c 128,-1,24
 441 662 441 662 402 642 c 128,-1,25
 363 622 363 622 325.5 585.5 c 128,-1,26
 288 549 288 549 257.5 492.5 c 128,-1,27
 227 436 227 436 210 354 c 1,0,1
588 728 m 1,28,29
 784 725 784 725 854 631 c 128,-1,30
 924 537 924 537 885 353 c 0,31,32
 868 277 868 277 835.5 211.5 c 128,-1,33
 803 146 803 146 750 96.5 c 128,-1,34
 697 47 697 47 623 15.5 c 128,-1,35
 549 -16 549 -16 451 -23 c 1,36,-1
 444 -56 l 2,37,38
 436 -93 436 -93 443.5 -118.5 c 128,-1,39
 451 -144 451 -144 467 -160.5 c 128,-1,40
 483 -177 483 -177 503 -185.5 c 128,-1,41
 523 -194 523 -194 541 -196 c 1,42,-1
 539 -207 l 1,43,44
 479 -204 479 -204 447.5 -185.5 c 128,-1,45
 416 -167 416 -167 403 -143 c 128,-1,46
 390 -119 390 -119 390 -94.5 c 128,-1,47
 390 -70 390 -70 393 -55 c 2,48,-1
 400 -23 l 1,49,50
 305 -15 305 -15 246 15.5 c 128,-1,51
 187 46 187 46 157 94.5 c 128,-1,52
 127 143 127 143 122.5 208.5 c 128,-1,53
 118 274 118 274 134 353 c 0,54,55
 173 537 173 537 291.5 631 c 128,-1,56
 410 725 410 725 588 728 c 1,28,29
EndSplineSet
EndChar

StartChar: R
Encoding: 82 82 53
Width: 682
Flags: W
LayerCount: 2
Fore
SplineSet
428 397 m 2,0,1
 477 397 477 397 512.5 410.5 c 128,-1,2
 548 424 548 424 571 444 c 128,-1,3
 594 464 594 464 607 488.5 c 128,-1,4
 620 513 620 513 624 535 c 0,5,6
 629 559 629 559 626 583 c 128,-1,7
 623 607 623 607 607 627 c 128,-1,8
 591 647 591 647 561.5 659.5 c 128,-1,9
 532 672 532 672 486 672 c 2,10,-1
 308 672 l 1,11,-1
 250 397 l 1,12,-1
 428 397 l 2,0,1
496 716 m 2,13,14
 556 716 556 716 597.5 701.5 c 128,-1,15
 639 687 639 687 662.5 662 c 128,-1,16
 686 637 686 637 693 604 c 128,-1,17
 700 571 700 571 692 534 c 0,18,19
 683 492 683 492 662.5 464 c 128,-1,20
 642 436 642 436 615 417 c 128,-1,21
 588 398 588 398 558 387.5 c 128,-1,22
 528 377 528 377 499 371 c 1,23,24
 523 368 523 368 538.5 356.5 c 128,-1,25
 554 345 554 345 563.5 329 c 128,-1,26
 573 313 573 313 578.5 294 c 128,-1,27
 584 275 584 275 588 257 c 2,28,-1
 629 37 l 1,29,30
 646 33 646 33 664 28.5 c 128,-1,31
 682 24 682 24 698 20 c 1,32,33
 696 12 696 12 696 8.5 c 128,-1,34
 696 5 696 5 695 0 c 1,35,-1
 472 0 l 1,36,-1
 476 21 l 1,37,-1
 566 40 l 1,38,-1
 518 283 l 1,39,40
 508 317 508 317 491 332.5 c 128,-1,41
 474 348 474 348 439 348 c 2,42,-1
 239 348 l 1,43,-1
 174 38 l 1,44,-1
 189 34 l 2,45,46
 204 30 204 30 250 21 c 1,47,48
 248 13 248 13 248 9 c 128,-1,49
 248 5 248 5 247 0 c 1,50,-1
 24 0 l 1,51,-1
 28 21 l 1,52,-1
 110 39 l 1,53,-1
 246 677 l 1,54,-1
 173 695 l 1,55,-1
 178 716 l 1,56,-1
 496 716 l 2,13,14
EndSplineSet
EndChar

StartChar: S
Encoding: 83 83 54
Width: 608
Flags: W
LayerCount: 2
Fore
SplineSet
120 82 m 1,0,1
 154 59 154 59 198.5 43.5 c 128,-1,2
 243 28 243 28 298 28 c 0,3,4
 339 28 339 28 377 39 c 128,-1,5
 415 50 415 50 445 69.5 c 128,-1,6
 475 89 475 89 495.5 114.5 c 128,-1,7
 516 140 516 140 523 170 c 0,8,9
 526 186 526 186 527 209 c 128,-1,10
 528 232 528 232 515 255.5 c 128,-1,11
 502 279 502 279 470 301.5 c 128,-1,12
 438 324 438 324 376 341 c 1,13,14
 323 357 323 357 283 376 c 128,-1,15
 243 395 243 395 218 419.5 c 128,-1,16
 193 444 193 444 183.5 476 c 128,-1,17
 174 508 174 508 184 551 c 1,18,19
 191 586 191 586 214 618.5 c 128,-1,20
 237 651 237 651 274 676 c 128,-1,21
 311 701 311 701 360 716 c 128,-1,22
 409 731 409 731 470 731 c 0,23,24
 520 731 520 731 556 728 c 128,-1,25
 592 725 592 725 616.5 719.5 c 128,-1,26
 641 714 641 714 657.5 706.5 c 128,-1,27
 674 699 674 699 686 690 c 1,28,-1
 657 584 l 1,29,-1
 635 584 l 1,30,-1
 633 656 l 1,31,32
 584 679 584 679 543.5 685.5 c 128,-1,33
 503 692 503 692 461 692 c 0,34,35
 427 692 427 692 394 682 c 128,-1,36
 361 672 361 672 334 654 c 128,-1,37
 307 636 307 636 287.5 609.5 c 128,-1,38
 268 583 268 583 261 550 c 256,39,40
 254 517 254 517 260 494 c 128,-1,41
 266 471 266 471 282 454 c 128,-1,42
 298 437 298 437 324.5 425 c 128,-1,43
 351 413 351 413 386 402 c 0,44,45
 425 390 425 390 467.5 373.5 c 128,-1,46
 510 357 510 357 543 330.5 c 128,-1,47
 576 304 576 304 593.5 265 c 128,-1,48
 611 226 611 226 599 170 c 0,49,50
 586 111 586 111 549.5 74 c 128,-1,51
 513 37 513 37 467 16 c 128,-1,52
 421 -5 421 -5 372.5 -12.5 c 128,-1,53
 324 -20 324 -20 288 -20 c 0,54,55
 243 -20 243 -20 209 -14.5 c 128,-1,56
 175 -9 175 -9 148.5 0 c 128,-1,57
 122 9 122 9 104 19 c 128,-1,58
 86 29 86 29 75 38 c 1,59,60
 81 68 81 68 86 96 c 128,-1,61
 91 124 91 124 97 154 c 1,62,-1
 117 154 l 1,63,-1
 120 82 l 1,0,1
EndSplineSet
EndChar

StartChar: T
Encoding: 84 84 55
Width: 636
Flags: W
LayerCount: 2
Fore
SplineSet
725 673 m 1,0,-1
 508 673 l 1,1,-1
 373 39 l 1,2,-1
 447 21 l 1,3,-1
 443 0 l 1,4,-1
 220 0 l 1,5,-1
 224 21 l 1,6,-1
 307 39 l 1,7,-1
 442 673 l 1,8,-1
 216 673 l 1,9,-1
 180 596 l 1,10,-1
 159 596 l 1,11,-1
 175 716 l 1,12,-1
 784 716 l 1,13,-1
 747 596 l 1,14,-1
 726 596 l 1,15,-1
 725 673 l 1,0,-1
EndSplineSet
EndChar

StartChar: U
Encoding: 85 85 56
Width: 737
Flags: W
LayerCount: 2
Fore
SplineSet
880 695 m 1,0,-1
 800 678 l 1,1,-1
 717 303 l 2,2,3
 711 276 711 276 703 242 c 128,-1,4
 695 208 695 208 680 173 c 128,-1,5
 665 138 665 138 641.5 104 c 128,-1,6
 618 70 618 70 582 43.5 c 128,-1,7
 546 17 546 17 495 1 c 128,-1,8
 444 -15 444 -15 375 -15 c 0,9,10
 305 -15 305 -15 260 1 c 128,-1,11
 215 17 215 17 189.5 43.5 c 128,-1,12
 164 70 164 70 154.5 104 c 128,-1,13
 145 138 145 138 145 174.5 c 128,-1,14
 145 211 145 211 151 246.5 c 128,-1,15
 157 282 157 282 164 312 c 2,16,-1
 241 677 l 1,17,-1
 165 694 l 1,18,-1
 170 716 l 1,19,-1
 395 716 l 1,20,-1
 390 695 l 1,21,-1
 308 678 l 1,22,-1
 226 303 l 2,23,24
 223 287 223 287 218 261 c 128,-1,25
 213 235 213 235 213 205 c 128,-1,26
 213 175 213 175 220 144 c 128,-1,27
 227 113 227 113 245.5 88.5 c 128,-1,28
 264 64 264 64 297.5 48 c 128,-1,29
 331 32 331 32 385 32 c 0,30,31
 438 32 438 32 477.5 47.5 c 128,-1,32
 517 63 517 63 546 88 c 128,-1,33
 575 113 575 113 593.5 143.5 c 128,-1,34
 612 174 612 174 624.5 204 c 128,-1,35
 637 234 637 234 644 260.5 c 128,-1,36
 651 287 651 287 654 303 c 2,37,-1
 733 677 l 1,38,-1
 658 694 l 1,39,-1
 663 716 l 1,40,-1
 886 716 l 1,41,-1
 880 695 l 1,0,-1
EndSplineSet
EndChar

StartChar: V
Encoding: 86 86 57
Width: 703
Flags: W
LayerCount: 2
Fore
SplineSet
349 36 m 1,0,-1
 714 682 l 1,1,-1
 651 696 l 1,2,-1
 656 716 l 1,3,-1
 868 716 l 1,4,-1
 863 696 l 1,5,-1
 788 679 l 1,6,-1
 390 0 l 1,7,-1
 295 0 l 1,8,-1
 191 679 l 1,9,-1
 124 696 l 1,10,-1
 129 716 l 1,11,-1
 343 716 l 1,12,-1
 338 695 l 1,13,-1
 259 679 l 1,14,-1
 349 36 l 1,0,-1
EndSplineSet
EndChar

StartChar: W
Encoding: 87 87 58
Width: 1069
Flags: W
LayerCount: 2
Fore
SplineSet
259 680 m 1,0,-1
 360 38 l 1,1,-1
 671 716 l 1,2,-1
 733 716 l 1,3,-1
 748 36 l 1,4,-1
 1121 680 l 1,5,-1
 1053 695 l 1,6,-1
 1058 716 l 1,7,-1
 1268 716 l 1,8,-1
 1263 696 l 1,9,-1
 1191 679 l 1,10,-1
 801 0 l 1,11,-1
 700 0 l 1,12,-1
 686 645 l 1,13,-1
 395 0 l 1,14,-1
 294 0 l 1,15,-1
 189 679 l 1,16,-1
 121 696 l 1,17,-1
 126 716 l 1,18,-1
 337 716 l 1,19,-1
 332 695 l 1,20,-1
 259 680 l 1,0,-1
EndSplineSet
EndChar

StartChar: X
Encoding: 88 88 59
Width: 708
Flags: W
LayerCount: 2
Fore
SplineSet
231 20 m 1,0,-1
 227 0 l 1,1,-1
 4 0 l 1,2,-1
 8 21 l 1,3,-1
 79 37 l 1,4,-1
 406 369 l 1,5,-1
 231 679 l 1,6,-1
 166 696 l 1,7,-1
 171 716 l 1,8,-1
 394 716 l 1,9,-1
 389 695 l 1,10,-1
 309 677 l 1,11,-1
 449 418 l 1,12,-1
 704 680 l 1,13,-1
 632 696 l 1,14,-1
 637 716 l 1,15,-1
 860 716 l 1,16,-1
 855 696 l 1,17,-1
 784 679 l 1,18,-1
 481 369 l 1,19,-1
 659 37 l 1,20,21
 676 34 676 34 692.5 29 c 128,-1,22
 709 24 709 24 725 20 c 1,23,-1
 721 0 l 1,24,-1
 498 0 l 1,25,-1
 502 21 l 1,26,-1
 588 41 l 1,27,-1
 429 321 l 1,28,-1
 152 39 l 1,29,-1
 231 20 l 1,0,-1
EndSplineSet
EndChar

StartChar: Y
Encoding: 89 89 60
Width: 710
Flags: W
LayerCount: 2
Fore
SplineSet
478 21 m 1,0,-1
 474 0 l 1,1,-1
 252 0 l 1,2,-1
 256 21 l 1,3,-1
 337 39 l 1,4,-1
 385 266 l 1,5,-1
 206 679 l 1,6,-1
 140 695 l 1,7,-1
 145 716 l 1,8,-1
 357 716 l 1,9,-1
 352 696 l 1,10,-1
 272 681 l 1,11,-1
 427 309 l 1,12,-1
 744 681 l 1,13,-1
 676 696 l 1,14,-1
 681 716 l 1,15,-1
 890 716 l 1,16,-1
 885 696 l 1,17,-1
 814 679 l 1,18,-1
 453 266 l 1,19,-1
 405 39 l 1,20,-1
 478 21 l 1,0,-1
EndSplineSet
EndChar

StartChar: Z
Encoding: 90 90 61
Width: 675
Flags: W
LayerCount: 2
Fore
SplineSet
671 144 m 1,0,-1
 652 0 l 1,1,-1
 45 0 l 1,2,-1
 55 50 l 1,3,-1
 717 673 l 1,4,-1
 237 673 l 1,5,6
 204 601 204 601 202 597 c 1,7,-1
 183 597 l 1,8,-1
 197 716 l 1,9,-1
 804 716 l 1,10,-1
 795 670 l 1,11,-1
 138 50 l 1,12,-1
 615 50 l 1,13,-1
 671 144 l 1,0,-1
EndSplineSet
EndChar

StartChar: bracketleft
Encoding: 91 91 62
Width: 324
Flags: W
LayerCount: 2
Fore
SplineSet
472 705 m 1,0,-1
 314 705 l 1,1,-1
 129 -169 l 1,2,-1
 287 -169 l 1,3,-1
 277 -213 l 1,4,-1
 44 -213 l 1,5,-1
 249 750 l 1,6,-1
 482 750 l 1,7,-1
 472 705 l 1,0,-1
EndSplineSet
EndChar

StartChar: backslash
Encoding: 92 92 63
Width: 347
Flags: W
LayerCount: 2
Fore
SplineSet
352 -20 m 1,0,1
 343 -20 343 -20 329.5 -19.5 c 128,-1,2
 316 -19 316 -19 305 -19 c 1,3,-1
 166 753 l 1,4,-1
 213 753 l 1,5,-1
 352 -20 l 1,0,1
EndSplineSet
EndChar

StartChar: bracketright
Encoding: 93 93 64
Width: 324
Flags: W
LayerCount: 2
Fore
SplineSet
406 750 m 1,0,-1
 201 -212 l 1,1,-1
 -30 -212 l 1,2,-1
 -20 -166 l 1,3,-1
 137 -166 l 1,4,-1
 322 705 l 1,5,-1
 164 705 l 1,6,-1
 174 750 l 1,7,-1
 406 750 l 1,0,-1
EndSplineSet
EndChar

StartChar: asciicircum
Encoding: 94 94 65
Width: 602
Flags: W
LayerCount: 2
Fore
SplineSet
64 288 m 1,0,-1
 294 715 l 1,1,-1
 348 715 l 1,2,-1
 571 280 l 1,3,-1
 521 280 l 1,4,-1
 322 695 l 1,5,-1
 116 287 l 1,6,-1
 64 288 l 1,0,-1
EndSplineSet
EndChar

StartChar: underscore
Encoding: 95 95 66
Width: 500
Flags: W
LayerCount: 2
Fore
SplineSet
485 -120 m 1,0,-1
 481 -139 l 1,1,-1
 -19 -139 l 1,2,-1
 -15 -120 l 1,3,-1
 485 -120 l 1,0,-1
EndSplineSet
EndChar

StartChar: grave
Encoding: 96 96 67
Width: 222
Flags: W
LayerCount: 2
Fore
SplineSet
241 751 m 1,0,-1
 267 639 l 1,1,-1
 225 639 l 1,2,-1
 163 751 l 1,3,-1
 241 751 l 1,0,-1
EndSplineSet
EndChar

StartChar: a
Encoding: 97 97 68
Width: 589
Flags: W
LayerCount: 2
Fore
SplineSet
534 443 m 1,0,1
 506 457 506 457 476.5 468 c 128,-1,2
 447 479 447 479 400 479 c 0,3,4
 348 479 348 479 311.5 459.5 c 128,-1,5
 275 440 275 440 250.5 410 c 128,-1,6
 226 380 226 380 212.5 344 c 128,-1,7
 199 308 199 308 193 275 c 1,8,9
 181 220 181 220 177 174.5 c 128,-1,10
 173 129 173 129 179.5 97 c 128,-1,11
 186 65 186 65 204.5 47 c 128,-1,12
 223 29 223 29 256 29 c 0,13,14
 304 29 304 29 345.5 57 c 128,-1,15
 387 85 387 85 419 124.5 c 128,-1,16
 451 164 451 164 471.5 206 c 128,-1,17
 492 248 492 248 498 275 c 2,18,-1
 534 443 l 1,0,1
514 40 m 1,19,20
 531 36 531 36 551 31 c 128,-1,21
 571 26 571 26 589 22 c 1,22,-1
 585 0 l 1,23,-1
 440 0 l 1,24,-1
 465 118 l 1,25,26
 447 91 447 91 422.5 67 c 128,-1,27
 398 43 398 43 368.5 25 c 128,-1,28
 339 7 339 7 304 -4 c 128,-1,29
 269 -15 269 -15 229 -15 c 0,30,31
 190 -15 190 -15 162.5 -1.5 c 128,-1,32
 135 12 135 12 121 45 c 128,-1,33
 107 78 107 78 108 134 c 128,-1,34
 109 190 109 190 127 275 c 0,35,36
 143 350 143 350 171.5 399 c 128,-1,37
 200 448 200 448 236 477.5 c 128,-1,38
 272 507 272 507 312.5 519 c 128,-1,39
 353 531 353 531 393 531 c 0,40,41
 435 531 435 531 467 521.5 c 128,-1,42
 499 512 499 512 524 501 c 128,-1,43
 549 490 549 490 568.5 480.5 c 128,-1,44
 588 471 588 471 605 471 c 1,45,-1
 514 40 l 1,19,20
EndSplineSet
EndChar

StartChar: b
Encoding: 98 98 69
Width: 557
Flags: W
LayerCount: 2
Fore
SplineSet
166 63 m 1,0,1
 195 49 195 49 230.5 39 c 128,-1,2
 266 29 266 29 298 29 c 0,3,4
 350 29 350 29 386 52 c 128,-1,5
 422 75 422 75 447 111 c 128,-1,6
 472 147 472 147 486 190.5 c 128,-1,7
 500 234 500 234 509 275 c 0,8,9
 517 313 517 313 521 351 c 128,-1,10
 525 389 525 389 519.5 419.5 c 128,-1,11
 514 450 514 450 496.5 469 c 128,-1,12
 479 488 479 488 445 488 c 0,13,14
 413 488 413 488 383.5 474.5 c 128,-1,15
 354 461 354 461 328.5 439.5 c 128,-1,16
 303 418 303 418 282 391 c 128,-1,17
 261 364 261 364 244.5 336.5 c 128,-1,18
 228 309 228 309 217.5 283.5 c 128,-1,19
 207 258 207 258 204 241 c 2,20,-1
 166 63 l 1,0,1
323 795 m 1,21,-1
 236 385 l 1,22,23
 245 405 245 405 266.5 431 c 128,-1,24
 288 457 288 457 317.5 479.5 c 128,-1,25
 347 502 347 502 383.5 517.5 c 128,-1,26
 420 533 420 533 459 533 c 0,27,28
 496 533 496 533 525.5 520 c 128,-1,29
 555 507 555 507 572.5 477 c 128,-1,30
 590 447 590 447 592.5 397.5 c 128,-1,31
 595 348 595 348 580 275 c 0,32,33
 548 125 548 125 475 56.5 c 128,-1,34
 402 -12 402 -12 275 -12 c 0,35,36
 224 -12 224 -12 178.5 0.5 c 128,-1,37
 133 13 133 13 92 27 c 1,38,-1
 247 755 l 1,39,40
 231 758 231 758 210.5 763.5 c 128,-1,41
 190 769 190 769 172 773 c 1,42,-1
 176 795 l 1,43,-1
 323 795 l 1,21,-1
EndSplineSet
EndChar

StartChar: c
Encoding: 99 99 70
Width: 529
Flags: W
LayerCount: 2
Fore
SplineSet
338 31 m 0,0,1
 363 31 363 31 389.5 35 c 128,-1,2
 416 39 416 39 440.5 45.5 c 128,-1,3
 465 52 465 52 486 59.5 c 128,-1,4
 507 67 507 67 522 74 c 1,5,-1
 511 16 l 1,6,7
 463 2 463 2 420.5 -6.5 c 128,-1,8
 378 -15 378 -15 328 -15 c 0,9,10
 194 -15 194 -15 140.5 52.5 c 128,-1,11
 87 120 87 120 118 264 c 0,12,13
 134 340 134 340 163.5 391.5 c 128,-1,14
 193 443 193 443 234.5 474.5 c 128,-1,15
 276 506 276 506 329 519.5 c 128,-1,16
 382 533 382 533 445 533 c 0,17,18
 493 533 493 533 532.5 520.5 c 128,-1,19
 572 508 572 508 600 491 c 1,20,21
 592 465 592 465 585 438 c 128,-1,22
 578 411 578 411 571 386 c 1,23,-1
 550 386 l 1,24,-1
 547 458 l 1,25,26
 521 471 521 471 491 479 c 128,-1,27
 461 487 461 487 435 487 c 0,28,29
 396 487 396 487 358 479 c 128,-1,30
 320 471 320 471 286.5 447 c 128,-1,31
 253 423 253 423 227 379.5 c 128,-1,32
 201 336 201 336 186 266 c 0,33,34
 171 193 171 193 177 147.5 c 128,-1,35
 183 102 183 102 205.5 76 c 128,-1,36
 228 50 228 50 262.5 40.5 c 128,-1,37
 297 31 297 31 338 31 c 0,0,1
EndSplineSet
EndChar

StartChar: d
Encoding: 100 100 71
Width: 589
Flags: W
LayerCount: 2
Fore
SplineSet
519 456 m 2,0,1
 507 462 507 462 489.5 468.5 c 128,-1,2
 472 475 472 475 453 481 c 128,-1,3
 434 487 434 487 413.5 490.5 c 128,-1,4
 393 494 393 494 375 494 c 0,5,6
 340 494 340 494 313.5 480.5 c 128,-1,7
 287 467 287 467 267.5 445.5 c 128,-1,8
 248 424 248 424 234 397.5 c 128,-1,9
 220 371 220 371 211.5 345.5 c 128,-1,10
 203 320 203 320 197.5 298.5 c 128,-1,11
 192 277 192 277 190 265 c 0,12,13
 183 233 183 233 178.5 193 c 128,-1,14
 174 153 174 153 180 118 c 128,-1,15
 186 83 186 83 206.5 59 c 128,-1,16
 227 35 227 35 271 35 c 0,17,18
 361 35 361 35 413 85.5 c 128,-1,19
 465 136 465 136 484 225 c 2,20,-1
 532 449 l 1,21,-1
 519 456 l 2,0,1
523 774 m 1,22,23
 525 782 525 782 525.5 786.5 c 128,-1,24
 526 791 526 791 527 796 c 1,25,-1
 676 796 l 1,26,-1
 514 38 l 1,27,-1
 592 21 l 1,28,-1
 588 0 l 1,29,-1
 443 0 l 1,30,-1
 452 91 l 1,31,32
 427 46 427 46 376.5 18.5 c 128,-1,33
 326 -9 326 -9 262 -9 c 0,34,35
 221 -9 221 -9 187.5 5 c 128,-1,36
 154 19 154 19 132.5 51 c 128,-1,37
 111 83 111 83 105.5 135 c 128,-1,38
 100 187 100 187 117 264 c 0,39,40
 133 339 133 339 161.5 391.5 c 128,-1,41
 190 444 190 444 226.5 477 c 128,-1,42
 263 510 263 510 303.5 525 c 128,-1,43
 344 540 344 540 384 540 c 0,44,45
 412 540 412 540 453.5 533 c 128,-1,46
 495 526 495 526 545 506 c 1,47,-1
 598 756 l 1,48,-1
 523 774 l 1,22,23
EndSplineSet
EndChar

StartChar: e
Encoding: 101 101 72
Width: 541
Flags: W
LayerCount: 2
Fore
SplineSet
499 306 m 1,0,1
 505 343 505 343 503.5 375.5 c 128,-1,2
 502 408 502 408 490.5 432.5 c 128,-1,3
 479 457 479 457 454.5 471.5 c 128,-1,4
 430 486 430 486 391 486 c 0,5,6
 347 486 347 486 313 471 c 128,-1,7
 279 456 279 456 255 430.5 c 128,-1,8
 231 405 231 405 215 372.5 c 128,-1,9
 199 340 199 340 191 305 c 1,10,-1
 499 306 l 1,0,1
293 25 m 0,11,12
 323 25 323 25 349.5 33.5 c 128,-1,13
 376 42 376 42 398 54 c 128,-1,14
 420 66 420 66 436 80 c 128,-1,15
 452 94 452 94 463 106 c 1,16,-1
 500 71 l 1,17,18
 471 44 471 44 443 27 c 128,-1,19
 415 10 415 10 387.5 0.5 c 128,-1,20
 360 -9 360 -9 334 -12.5 c 128,-1,21
 308 -16 308 -16 284 -16 c 0,22,23
 217 -16 217 -16 176.5 2.5 c 128,-1,24
 136 21 136 21 116 55 c 128,-1,25
 96 89 96 89 94.5 138 c 128,-1,26
 93 187 93 187 105 247 c 0,27,28
 133 381 133 381 206 456.5 c 128,-1,29
 279 532 279 532 401 532 c 0,30,31
 503 532 503 532 541 466 c 128,-1,32
 579 400 579 400 548 263 c 1,33,-1
 175 264 l 1,34,35
 163 211 163 211 158 167.5 c 128,-1,36
 153 124 153 124 163 92 c 128,-1,37
 173 60 173 60 203 42.5 c 128,-1,38
 233 25 233 25 293 25 c 0,11,12
EndSplineSet
EndChar

StartChar: f
Encoding: 102 102 73
Width: 314
Flags: W
LayerCount: 2
Fore
SplineSet
245 21 m 1,0,-1
 241 0 l 1,1,-1
 13 0 l 1,2,-1
 17 21 l 1,3,-1
 101 40 l 1,4,-1
 195 475 l 1,5,-1
 109 475 l 1,6,-1
 119 518 l 1,7,-1
 205 518 l 1,8,-1
 214 564 l 1,9,10
 228 627 228 627 250 669 c 128,-1,11
 272 711 272 711 302.5 735.5 c 128,-1,12
 333 760 333 760 372 770 c 128,-1,13
 411 780 411 780 459 780 c 0,14,15
 485 780 485 780 513.5 770 c 128,-1,16
 542 760 542 760 563 749 c 1,17,-1
 533 641 l 1,18,-1
 513 641 l 1,19,-1
 512 718 l 1,20,21
 492 723 492 723 476.5 725.5 c 128,-1,22
 461 728 461 728 448 728 c 0,23,24
 397 728 397 728 367 716 c 128,-1,25
 337 704 337 704 320 682.5 c 128,-1,26
 303 661 303 661 294.5 630.5 c 128,-1,27
 286 600 286 600 278 564 c 2,28,-1
 269 518 l 1,29,-1
 398 518 l 1,30,-1
 388 475 l 1,31,-1
 259 475 l 1,32,-1
 167 38 l 1,33,-1
 245 21 l 1,0,-1
EndSplineSet
EndChar

StartChar: g
Encoding: 103 103 74
Width: 587
Flags: W
LayerCount: 2
Fore
SplineSet
696 517 m 1,0,-1
 691 493 l 1,1,-1
 618 467 l 1,2,-1
 516 -11 l 2,3,4
 514 -19 514 -19 509 -39 c 128,-1,5
 504 -59 504 -59 492 -83.5 c 128,-1,6
 480 -108 480 -108 460.5 -134 c 128,-1,7
 441 -160 441 -160 410 -181.5 c 128,-1,8
 379 -203 379 -203 335 -217 c 128,-1,9
 291 -231 291 -231 232 -231 c 0,10,11
 163 -231 163 -231 120 -206 c 128,-1,12
 77 -181 77 -181 50 -138 c 1,13,14
 64 -128 64 -128 74 -121.5 c 128,-1,15
 84 -115 84 -115 97 -106 c 1,16,17
 113 -128 113 -128 135 -146 c 0,18,19
 154 -161 154 -161 180.5 -173.5 c 128,-1,20
 207 -186 207 -186 242 -186 c 0,21,22
 285 -186 285 -186 317 -175.5 c 128,-1,23
 349 -165 349 -165 371.5 -148.5 c 128,-1,24
 394 -132 394 -132 408.5 -111.5 c 128,-1,25
 423 -91 423 -91 431.5 -71.5 c 128,-1,26
 440 -52 440 -52 444 -36 c 128,-1,27
 448 -20 448 -20 449 -11 c 2,28,-1
 465 64 l 1,29,30
 444 40 444 40 424.5 24 c 128,-1,31
 405 8 405 8 384 -1 c 128,-1,32
 363 -10 363 -10 339.5 -13.5 c 128,-1,33
 316 -17 316 -17 289 -17 c 0,34,35
 220 -17 220 -17 178.5 5.5 c 128,-1,36
 137 28 137 28 116.5 66.5 c 128,-1,37
 96 105 96 105 94 155 c 128,-1,38
 92 205 92 205 104 261 c 0,39,40
 118 326 118 326 140.5 377 c 128,-1,41
 163 428 163 428 198 462.5 c 128,-1,42
 233 497 233 497 281.5 515 c 128,-1,43
 330 533 330 533 396 533 c 0,44,45
 435 533 435 533 463 527 c 128,-1,46
 491 521 491 521 510.5 509 c 128,-1,47
 530 497 530 497 542 480 c 128,-1,48
 554 463 554 463 562 442 c 1,49,-1
 583 517 l 1,50,-1
 696 517 l 1,0,-1
691 493 m 1,51,52
 691 493 691 493 693 494 c 2,53,-1
 691 493 l 1,51,52
173 261 m 0,54,55
 156 179 156 179 163 132.5 c 128,-1,56
 170 86 170 86 191 63 c 128,-1,57
 212 40 212 40 241.5 34.5 c 128,-1,58
 271 29 271 29 299 29 c 0,59,60
 321 29 321 29 349.5 33 c 128,-1,61
 378 37 378 37 407.5 58.5 c 128,-1,62
 437 80 437 80 464 127 c 128,-1,63
 491 174 491 174 509 261 c 0,64,65
 521 317 521 317 521.5 355.5 c 128,-1,66
 522 394 522 394 514 419 c 128,-1,67
 506 444 506 444 491 458 c 128,-1,68
 476 472 476 472 458.5 478.5 c 128,-1,69
 441 485 441 485 422 486 c 128,-1,70
 403 487 403 487 386 487 c 0,71,72
 360 487 360 487 330 484 c 128,-1,73
 300 481 300 481 271.5 460 c 128,-1,74
 243 439 243 439 217 393 c 128,-1,75
 191 347 191 347 173 261 c 0,54,55
EndSplineSet
EndChar

StartChar: h
Encoding: 104 104 75
Width: 600
Flags: W
LayerCount: 2
Fore
SplineSet
601 22 m 1,0,-1
 597 0 l 1,1,-1
 372 0 l 1,2,-1
 376 21 l 1,3,-1
 459 40 l 1,4,-1
 520 319 l 2,5,6
 537 396 537 396 513.5 439 c 128,-1,7
 490 482 490 482 429 482 c 0,8,9
 395 482 395 482 361.5 469.5 c 128,-1,10
 328 457 328 457 300 436 c 128,-1,11
 272 415 272 415 252 387.5 c 128,-1,12
 232 360 232 360 226 330 c 2,13,-1
 164 40 l 1,14,15
 181 35 181 35 202.5 30.5 c 128,-1,16
 224 26 224 26 242 21 c 1,17,-1
 238 0 l 1,18,-1
 11 0 l 1,19,-1
 15 22 l 1,20,-1
 99 38 l 1,21,-1
 251 756 l 1,22,23
 234 759 234 759 213 764.5 c 128,-1,24
 192 770 192 770 173 774 c 1,25,-1
 178 796 l 1,26,-1
 324 796 l 1,27,-1
 243 411 l 1,28,29
 259 433 259 433 284.5 454.5 c 128,-1,30
 310 476 310 476 340.5 493.5 c 128,-1,31
 371 511 371 511 404.5 521.5 c 128,-1,32
 438 532 438 532 470 532 c 0,33,34
 542 532 542 532 574.5 478.5 c 128,-1,35
 607 425 607 425 583 312 c 2,36,-1
 523 40 l 1,37,-1
 601 22 l 1,0,-1
EndSplineSet
EndChar

StartChar: i
Encoding: 105 105 76
Width: 239
Flags: W
LayerCount: 2
Fore
SplineSet
223 710 m 1,0,-1
 241 795 l 1,1,-1
 326 795 l 1,2,-1
 308 710 l 1,3,-1
 223 710 l 1,0,-1
115 496 m 1,4,-1
 119 517 l 1,5,-1
 267 517 l 1,6,-1
 166 40 l 1,7,-1
 242 21 l 1,8,-1
 238 0 l 1,9,-1
 10 0 l 1,10,-1
 14 21 l 1,11,-1
 98 40 l 1,12,-1
 191 477 l 1,13,-1
 115 496 l 1,4,-1
EndSplineSet
EndChar

StartChar: j
Encoding: 106 106 77
Width: 241
Flags: W
LayerCount: 2
Fore
SplineSet
308 710 m 1,0,-1
 224 710 l 1,1,-1
 242 795 l 1,2,-1
 326 795 l 1,3,-1
 308 710 l 1,0,-1
154 -17 m 2,4,5
 142 -75 142 -75 119 -112 c 128,-1,6
 96 -149 96 -149 70 -171 c 128,-1,7
 44 -193 44 -193 20 -202.5 c 128,-1,8
 -4 -212 -4 -212 -19 -215 c 1,9,-1
 -10 -170 l 1,10,11
 28 -139 28 -139 51 -105 c 128,-1,12
 74 -71 74 -71 84 -27 c 2,13,-1
 191 477 l 1,14,-1
 115 496 l 1,15,-1
 119 517 l 1,16,-1
 267 517 l 1,17,-1
 154 -17 l 2,4,5
EndSplineSet
EndChar

StartChar: k
Encoding: 107 107 78
Width: 557
Flags: W
LayerCount: 2
Fore
SplineSet
561 21 m 1,0,-1
 557 0 l 1,1,-1
 330 0 l 1,2,-1
 334 21 l 1,3,-1
 415 37 l 1,4,-1
 341 171 l 1,5,-1
 274 145 l 1,6,-1
 285 197 l 1,7,8
 320 211 320 211 362 231 c 128,-1,9
 404 251 404 251 441.5 276.5 c 128,-1,10
 479 302 479 302 506.5 333 c 128,-1,11
 534 364 534 364 542 400 c 0,12,13
 551 446 551 446 529.5 473 c 128,-1,14
 508 500 508 500 466 500 c 0,15,16
 434 500 434 500 395.5 483 c 128,-1,17
 357 466 357 466 321.5 438 c 128,-1,18
 286 410 286 410 258.5 374 c 128,-1,19
 231 338 231 338 222 300 c 2,20,-1
 167 40 l 1,21,22
 183 35 183 35 204 30.5 c 128,-1,23
 225 26 225 26 242 21 c 1,24,-1
 238 0 l 1,25,-1
 10 0 l 1,26,-1
 14 21 l 1,27,-1
 97 40 l 1,28,-1
 249 755 l 1,29,30
 233 759 233 759 212 764 c 128,-1,31
 191 769 191 769 174 774 c 1,32,-1
 178 795 l 1,33,-1
 327 795 l 1,34,-1
 244 400 l 1,35,36
 293 466 293 466 355.5 508.5 c 128,-1,37
 418 551 418 551 496 551 c 0,38,39
 528 551 528 551 551.5 540 c 128,-1,40
 575 529 575 529 589 510 c 128,-1,41
 603 491 603 491 607 465.5 c 128,-1,42
 611 440 611 440 605 411 c 0,43,44
 593 355 593 355 539 302 c 128,-1,45
 485 249 485 249 405 201 c 1,46,-1
 495 37 l 1,47,-1
 561 21 l 1,0,-1
EndSplineSet
EndChar

StartChar: l
Encoding: 108 108 79
Width: 239
Flags: W
LayerCount: 2
Fore
SplineSet
242 21 m 1,0,-1
 238 0 l 1,1,-1
 11 0 l 1,2,-1
 15 21 l 1,3,-1
 98 40 l 1,4,-1
 250 755 l 1,5,6
 234 759 234 759 213 764 c 128,-1,7
 192 769 192 769 175 774 c 1,8,-1
 179 795 l 1,9,-1
 327 795 l 1,10,-1
 167 40 l 1,11,-1
 242 21 l 1,0,-1
EndSplineSet
EndChar

StartChar: m
Encoding: 109 109 80
Width: 843
Flags: W
LayerCount: 2
Fore
SplineSet
113 496 m 1,0,-1
 117 517 l 1,1,-1
 257 517 l 1,2,-1
 248 417 l 1,3,4
 265 441 265 441 288 462 c 128,-1,5
 311 483 311 483 338 498.5 c 128,-1,6
 365 514 365 514 392.5 523.5 c 128,-1,7
 420 533 420 533 445 533 c 0,8,9
 463 533 463 533 480 527.5 c 128,-1,10
 497 522 497 522 510 508.5 c 128,-1,11
 523 495 523 495 530.5 472 c 128,-1,12
 538 449 538 449 537 415 c 1,13,14
 554 439 554 439 578.5 460 c 128,-1,15
 603 481 603 481 631 497.5 c 128,-1,16
 659 514 659 514 689.5 523.5 c 128,-1,17
 720 533 720 533 749 533 c 0,18,19
 813 533 813 533 831.5 482.5 c 128,-1,20
 850 432 850 432 827 324 c 2,21,-1
 769 41 l 1,22,-1
 847 20 l 1,23,-1
 843 0 l 1,24,-1
 698 0 l 1,25,-1
 768 330 l 2,26,27
 775 365 775 365 778 393.5 c 128,-1,28
 781 422 781 422 775.5 442 c 128,-1,29
 770 462 770 462 753.5 473 c 128,-1,30
 737 484 737 484 707 484 c 0,31,32
 669 484 669 484 638.5 469.5 c 128,-1,33
 608 455 608 455 585.5 432 c 128,-1,34
 563 409 563 409 548.5 379.5 c 128,-1,35
 534 350 534 350 528 320 c 2,36,-1
 468 40 l 1,37,-1
 542 21 l 1,38,-1
 538 0 l 1,39,-1
 392 0 l 1,40,-1
 460 320 l 2,41,42
 477 401 477 401 467 442.5 c 128,-1,43
 457 484 457 484 404 484 c 0,44,45
 366 484 366 484 335 469 c 128,-1,46
 304 454 304 454 281 430.5 c 128,-1,47
 258 407 258 407 242.5 377.5 c 128,-1,48
 227 348 227 348 222 320 c 2,49,-1
 162 41 l 1,50,-1
 241 20 l 1,51,-1
 237 0 l 1,52,-1
 8 0 l 1,53,-1
 12 21 l 1,54,-1
 96 40 l 1,55,-1
 189 477 l 1,56,-1
 113 496 l 1,0,-1
EndSplineSet
EndChar

StartChar: n
Encoding: 110 110 81
Width: 595
Flags: W
LayerCount: 2
Fore
SplineSet
599 22 m 1,0,-1
 595 0 l 1,1,-1
 451 0 l 1,2,-1
 518 319 l 2,3,4
 535 396 535 396 511.5 439 c 128,-1,5
 488 482 488 482 427 482 c 0,6,7
 393 482 393 482 359.5 469.5 c 128,-1,8
 326 457 326 457 298 436 c 128,-1,9
 270 415 270 415 250 387.5 c 128,-1,10
 230 360 230 360 224 330 c 2,11,-1
 162 40 l 1,12,-1
 241 21 l 1,13,-1
 237 0 l 1,14,-1
 9 0 l 1,15,-1
 13 22 l 1,16,-1
 97 38 l 1,17,-1
 190 477 l 1,18,19
 173 481 173 481 152 486 c 128,-1,20
 131 491 131 491 112 495 c 1,21,-1
 116 517 l 1,22,-1
 256 517 l 1,23,-1
 248 415 l 1,24,25
 287 464 287 464 346 498 c 128,-1,26
 405 532 405 532 468 532 c 0,27,28
 540 532 540 532 572.5 478.5 c 128,-1,29
 605 425 605 425 581 312 c 2,30,-1
 523 40 l 1,31,-1
 599 22 l 1,0,-1
EndSplineSet
EndChar

StartChar: o
Encoding: 111 111 82
Width: 585
Flags: W
LayerCount: 2
Fore
SplineSet
186 261 m 0,0,1
 169 179 169 179 176 132.5 c 128,-1,2
 183 86 183 86 204 63 c 128,-1,3
 225 40 225 40 255 34.5 c 128,-1,4
 285 29 285 29 313 29 c 0,5,6
 335 29 335 29 363 33 c 128,-1,7
 391 37 391 37 421 58.5 c 128,-1,8
 451 80 451 80 477.5 127 c 128,-1,9
 504 174 504 174 523 261 c 0,10,11
 541 345 541 345 533.5 391 c 128,-1,12
 526 437 526 437 505 458 c 128,-1,13
 484 479 484 479 455 483 c 128,-1,14
 426 487 426 487 401 487 c 0,15,16
 374 487 374 487 344.5 484 c 128,-1,17
 315 481 315 481 285.5 460 c 128,-1,18
 256 439 256 439 230 393 c 128,-1,19
 204 347 204 347 186 261 c 0,0,1
411 533 m 0,20,21
 482 533 482 533 525 511.5 c 128,-1,22
 568 490 568 490 588.5 453 c 128,-1,23
 609 416 609 416 610.5 366.5 c 128,-1,24
 612 317 612 317 600 261 c 0,25,26
 586 193 586 193 563 141 c 128,-1,27
 540 89 540 89 505.5 54 c 128,-1,28
 471 19 471 19 421 1 c 128,-1,29
 371 -17 371 -17 303 -17 c 0,30,31
 234 -17 234 -17 191.5 5.5 c 128,-1,32
 149 28 149 28 128.5 66.5 c 128,-1,33
 108 105 108 105 105.5 155 c 128,-1,34
 103 205 103 205 115 261 c 0,35,36
 129 326 129 326 152 376.5 c 128,-1,37
 175 427 175 427 210.5 462 c 128,-1,38
 246 497 246 497 295.5 515 c 128,-1,39
 345 533 345 533 411 533 c 0,20,21
EndSplineSet
EndChar

StartChar: p
Encoding: 112 112 83
Width: 571
Flags: W
LayerCount: 2
Fore
SplineSet
169 74 m 1,0,1
 197 60 197 60 226.5 49 c 128,-1,2
 256 38 256 38 303 38 c 0,3,4
 355 38 355 38 391.5 57.5 c 128,-1,5
 428 77 428 77 452.5 107 c 128,-1,6
 477 137 477 137 490.5 173 c 128,-1,7
 504 209 504 209 510 242 c 1,8,9
 522 297 522 297 526 342.5 c 128,-1,10
 530 388 530 388 523.5 420 c 128,-1,11
 517 452 517 452 498.5 470 c 128,-1,12
 480 488 480 488 447 488 c 0,13,14
 399 488 399 488 357.5 460 c 128,-1,15
 316 432 316 432 284 392.5 c 128,-1,16
 252 353 252 353 231.5 311 c 128,-1,17
 211 269 211 269 205 242 c 2,18,-1
 169 74 l 1,0,1
191 -191 m 1,19,-1
 186 -213 l 1,20,-1
 -34 -213 l 1,21,-1
 -29 -190 l 1,22,-1
 50 -175 l 1,23,-1
 189 477 l 1,24,25
 172 481 172 481 152 486 c 128,-1,26
 132 491 132 491 114 495 c 1,27,-1
 118 517 l 1,28,-1
 263 517 l 1,29,-1
 238 399 l 1,30,31
 256 426 256 426 280.5 450 c 128,-1,32
 305 474 305 474 334.5 492 c 128,-1,33
 364 510 364 510 399 521 c 128,-1,34
 434 532 434 532 474 532 c 0,35,36
 513 532 513 532 540.5 518.5 c 128,-1,37
 568 505 568 505 582 472 c 128,-1,38
 596 439 596 439 595 383 c 128,-1,39
 594 327 594 327 576 242 c 0,40,41
 560 167 560 167 531.5 118.5 c 128,-1,42
 503 70 503 70 467 41 c 128,-1,43
 431 12 431 12 390.5 0.5 c 128,-1,44
 350 -11 350 -11 310 -11 c 0,45,46
 283 -11 283 -11 241.5 -4 c 128,-1,47
 200 3 200 3 158 20 c 1,48,-1
 116 -176 l 1,49,-1
 191 -191 l 1,19,-1
EndSplineSet
EndChar

StartChar: q
Encoding: 113 113 84
Width: 566
Flags: W
LayerCount: 2
Fore
SplineSet
241 29 m 0,0,1
 287 29 287 29 326 49.5 c 128,-1,2
 365 70 365 70 395 100 c 128,-1,3
 425 130 425 130 444 164 c 128,-1,4
 463 198 463 198 468 225 c 2,5,-1
 516 448 l 1,6,7
 487 465 487 465 454 476 c 128,-1,8
 421 487 421 487 385 487 c 0,9,10
 334 487 334 487 298.5 466 c 128,-1,11
 263 445 263 445 239.5 412 c 128,-1,12
 216 379 216 379 202 338.5 c 128,-1,13
 188 298 188 298 180 259 c 0,14,15
 171 220 171 220 166 179 c 128,-1,16
 161 138 161 138 165.5 104.5 c 128,-1,17
 170 71 170 71 187 50 c 128,-1,18
 204 29 204 29 241 29 c 0,0,1
525 -190 m 1,19,-1
 520 -212 l 1,20,-1
 296 -212 l 1,21,-1
 301 -190 l 1,22,-1
 384 -174 l 1,23,-1
 443 104 l 1,24,25
 431 89 431 89 409.5 68 c 128,-1,26
 388 47 388 47 360.5 28.5 c 128,-1,27
 333 10 333 10 299 -3 c 128,-1,28
 265 -16 265 -16 231 -16 c 0,29,30
 183 -16 183 -16 154 3.5 c 128,-1,31
 125 23 125 23 112 58.5 c 128,-1,32
 99 94 99 94 100.5 145 c 128,-1,33
 102 196 102 196 116 259 c 0,34,35
 146 400 146 400 217 463.5 c 128,-1,36
 288 527 288 527 418 527 c 0,37,38
 449 527 449 527 475.5 522 c 128,-1,39
 502 517 502 517 524.5 510.5 c 128,-1,40
 547 504 547 504 562.5 496.5 c 128,-1,41
 578 489 578 489 589 484 c 1,42,-1
 450 -173 l 1,43,-1
 525 -190 l 1,19,-1
EndSplineSet
EndChar

StartChar: r
Encoding: 114 114 85
Width: 388
Flags: W
LayerCount: 2
Fore
SplineSet
110 496 m 1,0,-1
 114 517 l 1,1,-1
 246 517 l 1,2,-1
 248 408 l 1,3,4
 261 441 261 441 280.5 464.5 c 128,-1,5
 300 488 300 488 322 503 c 128,-1,6
 344 518 344 518 366.5 525 c 128,-1,7
 389 532 389 532 409 532 c 0,8,9
 439 532 439 532 458 527.5 c 128,-1,10
 477 523 477 523 487 518 c 1,11,12
 478 486 478 486 470.5 458 c 128,-1,13
 463 430 463 430 454 398 c 1,14,-1
 432 398 l 1,15,-1
 431 477 l 1,16,17
 420 479 420 479 410 479.5 c 128,-1,18
 400 480 400 480 398 480 c 0,19,20
 374 480 374 480 347 474.5 c 128,-1,21
 320 469 320 469 294 446 c 128,-1,22
 268 423 268 423 244.5 376.5 c 128,-1,23
 221 330 221 330 203 249 c 1,24,-1
 159 38 l 1,25,26
 178 34 178 34 189.5 31 c 128,-1,27
 201 28 201 28 209.5 26 c 128,-1,28
 218 24 218 24 222.5 23 c 128,-1,29
 227 22 227 22 231 21 c 1,30,-1
 227 0 l 1,31,-1
 9 0 l 1,32,-1
 13 21 l 1,33,-1
 91 38 l 1,34,-1
 184 477 l 1,35,-1
 110 496 l 1,0,-1
EndSplineSet
EndChar

StartChar: s
Encoding: 115 115 86
Width: 492
Flags: W
LayerCount: 2
Fore
SplineSet
484 454 m 1,0,1
 448 468 448 468 411 477 c 128,-1,2
 374 486 374 486 345 486 c 0,3,4
 324 486 324 486 304 482.5 c 128,-1,5
 284 479 284 479 267 469.5 c 128,-1,6
 250 460 250 460 237.5 442 c 128,-1,7
 225 424 225 424 218 395 c 0,8,9
 213 371 213 371 217.5 355.5 c 128,-1,10
 222 340 222 340 235 330 c 128,-1,11
 248 320 248 320 269 313 c 128,-1,12
 290 306 290 306 317 299 c 0,13,14
 420 275 420 275 464.5 239.5 c 128,-1,15
 509 204 509 204 496 143 c 0,16,17
 480 68 480 68 416 26.5 c 128,-1,18
 352 -15 352 -15 260 -15 c 0,19,20
 222 -15 222 -15 190.5 -9 c 128,-1,21
 159 -3 159 -3 134 5.5 c 128,-1,22
 109 14 109 14 91.5 22.5 c 128,-1,23
 74 31 74 31 65 37 c 1,24,25
 66 39 66 39 66.5 42 c 128,-1,26
 67 45 67 45 70.5 56 c 128,-1,27
 74 67 74 67 80 89.5 c 128,-1,28
 86 112 86 112 97 152 c 1,29,-1
 118 152 l 1,30,-1
 121 80 l 1,31,32
 153 63 153 63 192.5 49 c 128,-1,33
 232 35 232 35 270 35 c 0,34,35
 297 35 297 35 322.5 39.5 c 128,-1,36
 348 44 348 44 369 56 c 128,-1,37
 390 68 390 68 405 88.5 c 128,-1,38
 420 109 420 109 426 140 c 0,39,40
 431 163 431 163 419 180.5 c 128,-1,41
 407 198 407 198 383.5 211.5 c 128,-1,42
 360 225 360 225 327.5 234.5 c 128,-1,43
 295 244 295 244 260 252 c 0,44,45
 193 266 193 266 165 304.5 c 128,-1,46
 137 343 137 343 148 395 c 0,47,48
 152 411 152 411 163 433.5 c 128,-1,49
 174 456 174 456 197.5 477 c 128,-1,50
 221 498 221 498 259 513 c 128,-1,51
 297 528 297 528 353 528 c 0,52,53
 388 528 388 528 417.5 523 c 128,-1,54
 447 518 447 518 470.5 511 c 128,-1,55
 494 504 494 504 509.5 496.5 c 128,-1,56
 525 489 525 489 535 485 c 1,57,58
 527 457 527 457 521.5 432 c 128,-1,59
 516 407 516 407 508 381 c 1,60,-1
 486 381 l 1,61,-1
 484 454 l 1,0,1
EndSplineSet
EndChar

StartChar: t
Encoding: 116 116 87
Width: 352
Flags: W
LayerCount: 2
Fore
SplineSet
219 517 m 1,0,1
 232 553 232 553 245.5 593.5 c 128,-1,2
 259 634 259 634 273 671 c 1,3,-1
 318 671 l 1,4,-1
 285 517 l 1,5,-1
 419 517 l 1,6,-1
 410 474 l 1,7,-1
 276 474 l 1,8,-1
 205 139 l 2,9,10
 198 106 198 106 195.5 85.5 c 128,-1,11
 193 65 193 65 197.5 54.5 c 128,-1,12
 202 44 202 44 212.5 40.5 c 128,-1,13
 223 37 223 37 242 37 c 0,14,15
 263 37 263 37 283.5 42.5 c 128,-1,16
 304 48 304 48 318 54 c 1,17,-1
 307 1 l 1,18,19
 292 -3 292 -3 264 -7.5 c 128,-1,20
 236 -12 236 -12 207 -12 c 0,21,22
 183 -12 183 -12 165.5 -7.5 c 128,-1,23
 148 -3 148 -3 138 10 c 128,-1,24
 128 23 128 23 126.5 45.5 c 128,-1,25
 125 68 125 68 133 104 c 2,26,-1
 211 474 l 1,27,-1
 110 474 l 1,28,-1
 119 517 l 1,29,-1
 219 517 l 1,0,1
EndSplineSet
EndChar

StartChar: u
Encoding: 117 117 88
Width: 594
Flags: W
LayerCount: 2
Fore
SplineSet
445 497 m 1,0,-1
 449 517 l 1,1,-1
 624 517 l 1,2,-1
 523 40 l 1,3,-1
 599 21 l 1,4,-1
 595 0 l 1,5,-1
 455 0 l 1,6,-1
 463 97 l 1,7,8
 443 70 443 70 416 48.5 c 128,-1,9
 389 27 389 27 359 12 c 128,-1,10
 329 -3 329 -3 299 -10.5 c 128,-1,11
 269 -18 269 -18 243 -18 c 0,12,13
 210 -18 210 -18 182.5 -7 c 128,-1,14
 155 4 155 4 138 29 c 128,-1,15
 121 54 121 54 116.5 95 c 128,-1,16
 112 136 112 136 125 196 c 2,17,-1
 185 477 l 1,18,-1
 113 496 l 1,19,-1
 117 517 l 1,20,-1
 260 517 l 1,21,-1
 190 187 l 2,22,23
 182 149 182 149 181 119 c 128,-1,24
 180 89 180 89 189 68.5 c 128,-1,25
 198 48 198 48 217.5 37.5 c 128,-1,26
 237 27 237 27 270 27 c 256,27,28
 303 27 303 27 338.5 39 c 128,-1,29
 374 51 374 51 405.5 74 c 128,-1,30
 437 97 437 97 460.5 129.5 c 128,-1,31
 484 162 484 162 493 203 c 2,32,-1
 552 480 l 1,33,-1
 445 497 l 1,0,-1
EndSplineSet
EndChar

StartChar: v
Encoding: 118 118 89
Width: 553
Flags: W
LayerCount: 2
Fore
SplineSet
91 494 m 1,0,-1
 95 517 l 1,1,-1
 319 517 l 1,2,-1
 315 496 l 1,3,-1
 228 476 l 1,4,-1
 289 36 l 1,5,-1
 537 477 l 1,6,-1
 472 495 l 1,7,-1
 476 517 l 1,8,-1
 687 517 l 1,9,-1
 683 497 l 1,10,-1
 606 480 l 1,11,-1
 320 0 l 1,12,-1
 241 0 l 1,13,-1
 162 480 l 1,14,-1
 91 494 l 1,0,-1
EndSplineSet
EndChar

StartChar: w
Encoding: 119 119 90
Width: 794
Flags: W
LayerCount: 2
Fore
SplineSet
465 517 m 1,0,-1
 542 517 l 1,1,-1
 586 49 l 1,2,-1
 782 479 l 1,3,-1
 699 494 l 1,4,-1
 703 517 l 1,5,-1
 929 517 l 1,6,-1
 925 494 l 1,7,-1
 845 480 l 1,8,9
 841 473 841 473 620 0 c 1,10,-1
 543 0 l 1,11,-1
 497 482 l 1,12,-1
 248 0 l 1,13,-1
 171 0 l 1,14,15
 150 473 150 473 150 480 c 1,16,-1
 76 494 l 1,17,-1
 80 517 l 1,18,-1
 306 517 l 1,19,-1
 302 494 l 1,20,-1
 211 479 l 1,21,-1
 225 49 l 1,22,-1
 465 517 l 1,0,-1
EndSplineSet
EndChar

StartChar: x
Encoding: 120 120 91
Width: 546
Flags: W
LayerCount: 2
Fore
SplineSet
324 496 m 1,0,-1
 263 476 l 1,1,-1
 337 302 l 1,2,-1
 490 477 l 1,3,-1
 439 496 l 1,4,-1
 443 517 l 1,5,-1
 640 517 l 1,6,-1
 636 497 l 1,7,-1
 563 480 l 1,8,-1
 369 261 l 1,9,-1
 481 37 l 1,10,-1
 551 20 l 1,11,-1
 547 0 l 1,12,-1
 350 0 l 1,13,-1
 354 21 l 1,14,-1
 409 41 l 1,15,-1
 323 226 l 1,16,-1
 159 41 l 1,17,-1
 204 21 l 1,18,-1
 200 0 l 1,19,-1
 6 0 l 1,20,-1
 10 20 l 1,21,-1
 84 37 l 1,22,-1
 293 260 l 1,23,-1
 195 480 l 1,24,-1
 130 497 l 1,25,-1
 134 517 l 1,26,-1
 328 517 l 1,27,-1
 324 496 l 1,0,-1
EndSplineSet
EndChar

StartChar: y
Encoding: 121 121 92
Width: 570
Flags: W
LayerCount: 2
Fore
SplineSet
627 480 m 1,0,-1
 255 -174 l 1,1,-1
 340 -192 l 1,2,-1
 335 -214 l 1,3,-1
 107 -214 l 1,4,-1
 111 -193 l 1,5,-1
 192 -177 l 1,6,-1
 258 -58 l 1,7,-1
 157 480 l 1,8,-1
 87 494 l 1,9,-1
 91 517 l 1,10,-1
 315 517 l 1,11,-1
 311 497 l 1,12,-1
 224 479 l 1,13,-1
 300 -3 l 1,14,-1
 558 476 l 1,15,-1
 479 495 l 1,16,-1
 483 517 l 1,17,-1
 707 517 l 1,18,-1
 703 497 l 1,19,-1
 627 480 l 1,0,-1
EndSplineSet
EndChar

StartChar: z
Encoding: 122 122 93
Width: 478
Flags: W
LayerCount: 2
Fore
SplineSet
445 132 m 1,0,-1
 466 132 l 1,1,-1
 450 0 l 1,2,-1
 46 0 l 1,3,-1
 57 53 l 1,4,-1
 473 473 l 1,5,-1
 196 473 l 1,6,-1
 160 394 l 1,7,-1
 138 394 l 1,8,-1
 157 517 l 1,9,-1
 566 517 l 1,10,-1
 558 475 l 1,11,-1
 141 53 l 1,12,-1
 410 53 l 1,13,-1
 445 132 l 1,0,-1
EndSplineSet
EndChar

StartChar: braceleft
Encoding: 123 123 94
Width: 447
Flags: W
LayerCount: 2
Fore
SplineSet
384 -213 m 1,0,-1
 316 -213 l 2,1,2
 276 -213 276 -213 241 -202.5 c 128,-1,3
 206 -192 206 -192 181.5 -167.5 c 128,-1,4
 157 -143 157 -143 148 -103 c 128,-1,5
 139 -63 139 -63 152 -3 c 2,6,-1
 184 150 l 2,7,8
 190 175 190 175 184 192.5 c 128,-1,9
 178 210 178 210 166.5 221 c 128,-1,10
 155 232 155 232 141 238 c 128,-1,11
 127 244 127 244 118 248 c 1,12,-1
 128 294 l 1,13,14
 163 307 163 307 194 330.5 c 128,-1,15
 225 354 225 354 237 396 c 1,16,-1
 270 551 l 2,17,18
 281 606 281 606 307 644.5 c 128,-1,19
 333 683 333 683 367.5 707 c 128,-1,20
 402 731 402 731 442 742 c 128,-1,21
 482 753 482 753 522 753 c 2,22,-1
 590 753 l 1,23,-1
 580 706 l 1,24,-1
 522 706 l 2,25,26
 511 706 511 706 486 704.5 c 128,-1,27
 461 703 461 703 433 692.5 c 128,-1,28
 405 682 405 682 381 660 c 128,-1,29
 357 638 357 638 348 597 c 2,30,-1
 306 397 l 2,31,32
 302 381 302 381 295 363.5 c 128,-1,33
 288 346 288 346 277.5 331 c 128,-1,34
 267 316 267 316 252.5 304.5 c 128,-1,35
 238 293 238 293 220 290 c 1,36,-1
 212 252 l 1,37,38
 246 245 246 245 253.5 214.5 c 128,-1,39
 261 184 261 184 253 150 c 2,40,-1
 209 -60 l 2,41,42
 200 -102 200 -102 215 -123.5 c 128,-1,43
 230 -145 230 -145 253 -155 c 128,-1,44
 276 -165 276 -165 300.5 -166 c 128,-1,45
 325 -167 325 -167 336 -167 c 2,46,-1
 394 -167 l 1,47,-1
 384 -213 l 1,0,-1
EndSplineSet
EndChar

StartChar: bar
Encoding: 124 124 95
Width: 229
Flags: W
LayerCount: 2
Fore
SplineSet
271 809 m 1,0,-1
 318 809 l 1,1,-1
 97 -234 l 1,2,-1
 50 -234 l 1,3,-1
 271 809 l 1,0,-1
EndSplineSet
EndChar

StartChar: braceright
Encoding: 125 125 96
Width: 444
Flags: W
LayerCount: 2
Fore
SplineSet
-8 -213 m 1,0,-1
 1 -167 l 1,1,-1
 59 -167 l 2,2,3
 71 -167 71 -167 96 -166 c 128,-1,4
 121 -165 121 -165 149 -155 c 128,-1,5
 177 -145 177 -145 200.5 -123.5 c 128,-1,6
 224 -102 224 -102 233 -60 c 2,7,-1
 277 150 l 2,8,9
 285 185 285 185 305 214.5 c 128,-1,10
 325 244 325 244 362 251 c 1,11,-1
 370 289 l 1,12,13
 353 292 353 292 343 303.5 c 128,-1,14
 333 315 333 315 329 330.5 c 128,-1,15
 325 346 325 346 325.5 363.5 c 128,-1,16
 326 381 326 381 330 397 c 2,17,-1
 372 597 l 2,18,19
 381 638 381 638 366.5 660 c 128,-1,20
 352 682 352 682 329 692.5 c 128,-1,21
 306 703 306 703 281.5 704.5 c 128,-1,22
 257 706 257 706 245 706 c 2,23,-1
 187 706 l 1,24,-1
 197 753 l 1,25,-1
 265 753 l 2,26,27
 306 753 306 753 341.5 742 c 128,-1,28
 377 731 377 731 401 707 c 128,-1,29
 425 683 425 683 434 644.5 c 128,-1,30
 443 606 443 606 432 551 c 2,31,-1
 399 397 l 2,32,33
 393 371 393 371 399 353.5 c 128,-1,34
 405 336 405 336 416.5 324 c 128,-1,35
 428 312 428 312 441.5 305 c 128,-1,36
 455 298 455 298 466 294 c 1,37,-1
 454 247 l 1,38,39
 438 241 438 241 421 231.5 c 128,-1,40
 404 222 404 222 389 210 c 128,-1,41
 374 198 374 198 362.5 183 c 128,-1,42
 351 168 351 168 346 150 c 1,43,-1
 314 -3 l 2,44,45
 301 -63 301 -63 275 -103 c 128,-1,46
 249 -143 249 -143 215 -167.5 c 128,-1,47
 181 -192 181 -192 140.5 -202.5 c 128,-1,48
 100 -213 100 -213 59 -213 c 2,49,-1
 -8 -213 l 1,0,-1
EndSplineSet
EndChar

StartChar: asciitilde
Encoding: 126 126 97
Width: 600
Flags: W
LayerCount: 2
Fore
SplineSet
252 216 m 0,0,1
 226 216 226 216 198.5 209.5 c 128,-1,2
 171 203 171 203 149 197 c 1,3,4
 152 211 152 211 152.5 218 c 128,-1,5
 153 225 153 225 156 237 c 1,6,7
 187 250 187 250 212.5 259 c 128,-1,8
 238 268 238 268 265 268 c 0,9,10
 301 268 301 268 323 263.5 c 128,-1,11
 345 259 345 259 364.5 254 c 128,-1,12
 384 249 384 249 407.5 244.5 c 128,-1,13
 431 240 431 240 470 240 c 0,14,15
 499 240 499 240 525 246.5 c 128,-1,16
 551 253 551 253 573 262 c 1,17,-1
 564 217 l 1,18,19
 519 200 519 200 496.5 194.5 c 128,-1,20
 474 189 474 189 459 189 c 0,21,22
 422 189 422 189 398.5 193 c 128,-1,23
 375 197 375 197 355 202.5 c 128,-1,24
 335 208 335 208 312 212 c 128,-1,25
 289 216 289 216 252 216 c 0,0,1
EndSplineSet
EndChar

StartChar: exclamdown
Encoding: 161 161 98
Width: 284
Flags: W
LayerCount: 2
Fore
SplineSet
180 -2 m 1,0,-1
 135 -215 l 1,1,-1
 64 -215 l 1,2,-1
 109 -2 l 1,3,-1
 197 292 l 1,4,-1
 218 292 l 1,5,-1
 180 -2 l 1,0,-1
215 516 m 1,6,-1
 300 516 l 1,7,-1
 282 432 l 1,8,-1
 197 432 l 1,9,-1
 215 516 l 1,6,-1
EndSplineSet
EndChar

StartChar: cent
Encoding: 162 162 99
Width: 509
Flags: W
LayerCount: 2
Fore
SplineSet
416 604 m 1,0,-1
 449 604 l 1,1,-1
 433 530 l 1,2,3
 491 525 491 525 527.5 514.5 c 128,-1,4
 564 504 564 504 592 492 c 1,5,6
 587 478 587 478 583 467.5 c 128,-1,7
 579 457 579 457 574 445 c 1,8,9
 544 459 544 459 510 471.5 c 128,-1,10
 476 484 476 484 424 489 c 1,11,-1
 326 28 l 1,12,13
 391 34 391 34 437.5 47.5 c 128,-1,14
 484 61 484 61 512 73 c 1,15,16
 507 50 507 50 504 35.5 c 128,-1,17
 501 21 501 21 500 14 c 1,18,19
 478 8 478 8 458.5 3 c 128,-1,20
 439 -2 439 -2 418 -6 c 128,-1,21
 397 -10 397 -10 373 -12.5 c 128,-1,22
 349 -15 349 -15 317 -16 c 1,23,-1
 294 -124 l 1,24,-1
 261 -124 l 1,25,-1
 285 -14 l 1,26,27
 171 1 171 1 126 68.5 c 128,-1,28
 81 136 81 136 108 263 c 0,29,30
 122 329 122 329 150.5 378.5 c 128,-1,31
 179 428 179 428 218.5 461.5 c 128,-1,32
 258 495 258 495 304 512 c 128,-1,33
 350 529 350 529 400 529 c 1,34,-1
 416 604 l 1,0,-1
176 264 m 1,35,36
 152 155 152 155 186 98 c 128,-1,37
 220 41 220 41 294 30 c 1,38,-1
 392 490 l 1,39,40
 363 490 363 490 329.5 474 c 128,-1,41
 296 458 296 458 266 429 c 128,-1,42
 236 400 236 400 211.5 358 c 128,-1,43
 187 316 187 316 176 265 c 1,44,-1
 176 264 l 1,35,36
EndSplineSet
EndChar

StartChar: sterling
Encoding: 163 163 100
Width: 585
Flags: W
LayerCount: 2
Fore
SplineSet
580 197 m 1,0,1
 587 226 587 226 586.5 248 c 128,-1,2
 586 270 586 270 581.5 286.5 c 128,-1,3
 577 303 577 303 570.5 314 c 128,-1,4
 564 325 564 325 557 333 c 1,5,6
 566 341 566 341 574 347.5 c 128,-1,7
 582 354 582 354 589 361 c 1,8,9
 621 322 621 322 623.5 279 c 128,-1,10
 626 236 626 236 617 197 c 1,11,12
 606 143 606 143 578.5 105 c 128,-1,13
 551 67 551 67 513 42.5 c 128,-1,14
 475 18 475 18 430 7.5 c 128,-1,15
 385 -3 385 -3 339 -1 c 1,16,-1
 48 -1 l 1,17,-1
 57 42 l 1,18,19
 120 51 120 51 154.5 95 c 128,-1,20
 189 139 189 139 203 204 c 2,21,-1
 236 359 l 1,22,-1
 187 359 l 1,23,-1
 196 404 l 1,24,-1
 245 404 l 1,25,-1
 282 578 l 2,26,27
 292 623 292 623 315.5 655 c 128,-1,28
 339 687 339 687 370 708 c 128,-1,29
 401 729 401 729 437.5 738.5 c 128,-1,30
 474 748 474 748 509 748 c 0,31,32
 552 748 552 748 576 741 c 128,-1,33
 600 734 600 734 616 722 c 1,34,-1
 607 679 l 1,35,36
 578 694 578 694 554.5 699 c 128,-1,37
 531 704 531 704 508 704 c 0,38,39
 469 704 469 704 442.5 691.5 c 128,-1,40
 416 679 416 679 398.5 658 c 128,-1,41
 381 637 381 637 371 610 c 128,-1,42
 361 583 361 583 355 555 c 2,43,-1
 323 404 l 1,44,-1
 436 404 l 1,45,-1
 427 359 l 1,46,-1
 314 359 l 1,47,-1
 281 204 l 2,48,49
 272 162 272 162 239 121.5 c 128,-1,50
 206 81 206 81 166 43 c 1,51,-1
 341 33 l 1,52,53
 442 33 442 33 500 77.5 c 128,-1,54
 558 122 558 122 580 195 c 1,55,-1
 580 197 l 1,0,1
EndSplineSet
EndChar

StartChar: yen
Encoding: 165 165 101
Width: 690
Flags: W
LayerCount: 2
Fore
SplineSet
179 731 m 1,0,-1
 262 731 l 1,1,-1
 421 328 l 1,2,3
 503 425 503 425 591.5 529.5 c 128,-1,4
 680 634 680 634 763 731 c 1,5,-1
 847 731 l 1,6,-1
 496 325 l 1,7,-1
 670 325 l 1,8,-1
 661 284 l 1,9,-1
 456 284 l 1,10,-1
 420 115 l 1,11,-1
 625 115 l 1,12,-1
 616 75 l 1,13,-1
 411 75 l 1,14,-1
 396 0 l 1,15,-1
 321 0 l 1,16,-1
 336 75 l 1,17,-1
 133 75 l 1,18,-1
 142 115 l 1,19,-1
 345 115 l 1,20,-1
 381 284 l 1,21,-1
 178 284 l 1,22,-1
 187 325 l 1,23,-1
 358 325 l 1,24,-1
 179 731 l 1,0,-1
EndSplineSet
EndChar

StartChar: section
Encoding: 167 167 102
Width: 576
Flags: W
LayerCount: 2
Fore
SplineSet
334 419 m 0,0,1
 313 419 313 419 290.5 408 c 128,-1,2
 268 397 268 397 249 379 c 128,-1,3
 230 361 230 361 215.5 337 c 128,-1,4
 201 313 201 313 196 288 c 0,5,6
 185 239 185 239 183 206 c 128,-1,7
 181 173 181 173 196.5 152.5 c 128,-1,8
 212 132 212 132 247.5 123.5 c 128,-1,9
 283 115 283 115 349 115 c 0,10,11
 376 115 376 115 402 125.5 c 128,-1,12
 428 136 428 136 451.5 156 c 128,-1,13
 475 176 475 176 492 204 c 128,-1,14
 509 232 509 232 516 267 c 0,15,16
 527 318 527 318 520 347.5 c 128,-1,17
 513 377 513 377 489.5 392.5 c 128,-1,18
 466 408 466 408 426.5 412.5 c 128,-1,19
 387 417 387 417 334 419 c 0,0,1
597 668 m 1,20,21
 562 680 562 680 525 691 c 128,-1,22
 488 702 488 702 459 702 c 0,23,24
 438 702 438 702 417.5 699 c 128,-1,25
 397 696 397 696 380.5 687 c 128,-1,26
 364 678 364 678 350.5 660.5 c 128,-1,27
 337 643 337 643 331 614 c 0,28,29
 320 563 320 563 351 521 c 128,-1,30
 382 479 382 479 470 459 c 0,31,32
 501 452 501 452 526.5 439 c 128,-1,33
 552 426 552 426 568.5 403.5 c 128,-1,34
 585 381 585 381 590.5 347.5 c 128,-1,35
 596 314 596 314 586 267 c 0,36,37
 570 190 570 190 520.5 144 c 128,-1,38
 471 98 471 98 380 77 c 1,39,40
 405 68 405 68 426.5 54 c 128,-1,41
 448 40 448 40 462.5 22 c 128,-1,42
 477 4 477 4 483 -17.5 c 128,-1,43
 489 -39 489 -39 484 -62 c 0,44,45
 476 -99 476 -99 455 -127 c 128,-1,46
 434 -155 434 -155 402 -174 c 128,-1,47
 370 -193 370 -193 330.5 -203 c 128,-1,48
 291 -213 291 -213 247 -213 c 0,49,50
 208 -213 208 -213 176.5 -207 c 128,-1,51
 145 -201 145 -201 121 -192 c 128,-1,52
 97 -183 97 -183 80.5 -173.5 c 128,-1,53
 64 -164 64 -164 55 -158 c 1,54,55
 63 -131 63 -131 70.5 -101 c 128,-1,56
 78 -71 78 -71 86 -45 c 1,57,-1
 107 -45 l 1,58,-1
 109 -117 l 1,59,60
 140 -137 140 -137 180.5 -150 c 128,-1,61
 221 -163 221 -163 258 -163 c 0,62,63
 285 -163 285 -163 310.5 -159 c 128,-1,64
 336 -155 336 -155 356.5 -144 c 128,-1,65
 377 -133 377 -133 393 -113.5 c 128,-1,66
 409 -94 409 -94 415 -62 c 0,67,68
 420 -38 420 -38 410.5 -14 c 128,-1,69
 401 10 401 10 378.5 28.5 c 128,-1,70
 356 47 356 47 325 59 c 128,-1,71
 294 71 294 71 257 71 c 0,72,73
 211 71 211 71 181 86 c 128,-1,74
 151 101 151 101 135 127.5 c 128,-1,75
 119 154 119 154 116.5 190 c 128,-1,76
 114 226 114 226 122 267 c 0,77,78
 127 289 127 289 141 321.5 c 128,-1,79
 155 354 155 354 180 385 c 128,-1,80
 205 416 205 416 241.5 439.5 c 128,-1,81
 278 463 278 463 329 468 c 1,82,83
 309 479 309 479 294 494 c 128,-1,84
 279 509 279 509 269.5 525.5 c 128,-1,85
 260 542 260 542 256.5 559.5 c 128,-1,86
 253 577 253 577 257 593 c 1,87,88
 262 621 262 621 275 648.5 c 128,-1,89
 288 676 288 676 312 697.5 c 128,-1,90
 336 719 336 719 374 732 c 128,-1,91
 412 745 412 745 468 745 c 0,92,93
 504 745 504 745 534 740 c 128,-1,94
 564 735 564 735 587 727.5 c 128,-1,95
 610 720 610 720 626 712 c 128,-1,96
 642 704 642 704 651 699 c 1,97,-1
 619 594 l 1,98,99
 612 594 612 594 608.5 594.5 c 128,-1,100
 605 595 605 595 600 595 c 1,101,-1
 597 668 l 1,20,21
EndSplineSet
EndChar

StartChar: dieresis
Encoding: 168 168 103
Width: 222
Flags: W
LayerCount: 2
Fore
SplineSet
403 715 m 1,0,-1
 386 634 l 1,1,-1
 319 634 l 1,2,-1
 336 715 l 1,3,-1
 403 715 l 1,0,-1
197 715 m 1,4,-1
 180 634 l 1,5,-1
 114 634 l 1,6,-1
 131 715 l 1,7,-1
 197 715 l 1,4,-1
403 715 m 1,8,-1
 386 634 l 1,9,-1
 319 634 l 1,10,-1
 336 715 l 1,11,-1
 403 715 l 1,8,-1
197 715 m 1,12,-1
 180 634 l 1,13,-1
 114 634 l 1,14,-1
 131 715 l 1,15,-1
 197 715 l 1,12,-1
EndSplineSet
EndChar

StartChar: ordfeminine
Encoding: 170 170 104
Width: 277
Flags: W
LayerCount: 2
Fore
SplineSet
318 587 m 1,0,1
 294 582 294 582 279 581 c 128,-1,2
 264 580 264 580 248 580 c 0,3,4
 239 580 239 580 229.5 579 c 128,-1,5
 220 578 220 578 211 573 c 128,-1,6
 202 568 202 568 195 557 c 128,-1,7
 188 546 188 546 183 525 c 0,8,9
 177 497 177 497 190.5 484 c 128,-1,10
 204 471 204 471 227 471 c 0,11,12
 243 471 243 471 262 478.5 c 128,-1,13
 281 486 281 486 299 501 c 1,14,-1
 318 587 l 1,0,1
294 484 m 1,15,16
 279 473 279 473 256.5 461.5 c 128,-1,17
 234 450 234 450 206 450 c 0,18,19
 134 450 134 450 150 526 c 0,20,21
 153 541 153 541 160 554.5 c 128,-1,22
 167 568 167 568 178.5 578.5 c 128,-1,23
 190 589 190 589 206 595 c 128,-1,24
 222 601 222 601 245 601 c 0,25,26
 264 601 264 601 276 601 c 128,-1,27
 288 601 288 601 296.5 602.5 c 128,-1,28
 305 604 305 604 311 606.5 c 128,-1,29
 317 609 317 609 323 614 c 1,30,31
 329 640 329 640 329 655 c 128,-1,32
 329 670 329 670 324 678 c 128,-1,33
 319 686 319 686 308.5 688.5 c 128,-1,34
 298 691 298 691 282 691 c 0,35,36
 267 691 267 691 251.5 688.5 c 128,-1,37
 236 686 236 686 222 682 c 1,38,39
 219 675 219 675 215 665.5 c 128,-1,40
 211 656 211 656 207 645 c 1,41,-1
 196 645 l 1,42,43
 198 659 198 659 200 671 c 128,-1,44
 202 683 202 683 204 697 c 1,45,46
 241 714 241 714 290 714 c 0,47,48
 308 714 308 714 323 710 c 128,-1,49
 338 706 338 706 347 695 c 128,-1,50
 356 684 356 684 359 664.5 c 128,-1,51
 362 645 362 645 355 615 c 2,52,-1
 325 473 l 1,53,54
 334 471 334 471 344 468.5 c 128,-1,55
 354 466 354 466 362 464 c 1,56,-1
 360 453 l 1,57,-1
 303 453 l 1,58,-1
 294 484 l 1,15,16
EndSplineSet
EndChar

StartChar: guillemotleft
Encoding: 171 171 105
Width: 562
Flags: W
LayerCount: 2
Fore
SplineSet
124 282 m 0,0,1
 127 294 127 294 141 302 c 2,2,-1
 336 423 l 1,3,4
 333 409 333 409 329.5 396 c 128,-1,5
 326 383 326 383 315 378 c 1,6,-1
 159 282 l 1,7,8
 167 275 167 275 184 260.5 c 128,-1,9
 201 246 201 246 219 231.5 c 128,-1,10
 237 217 237 217 252 205 c 128,-1,11
 267 193 267 193 271 190 c 0,12,13
 281 181 281 181 280 167 c 128,-1,14
 279 153 279 153 276 140 c 1,15,-1
 133 262 l 1,16,17
 122 270 122 270 124 282 c 0,0,1
372 282 m 0,18,19
 375 294 375 294 389 302 c 2,20,-1
 584 423 l 1,21,22
 581 409 581 409 577.5 396 c 128,-1,23
 574 383 574 383 563 378 c 1,24,-1
 407 282 l 1,25,26
 415 275 415 275 432 260.5 c 128,-1,27
 449 246 449 246 467 231.5 c 128,-1,28
 485 217 485 217 500 205 c 128,-1,29
 515 193 515 193 519 190 c 0,30,31
 529 181 529 181 528 167 c 128,-1,32
 527 153 527 153 524 140 c 1,33,-1
 381 262 l 1,34,35
 370 270 370 270 372 282 c 0,18,19
EndSplineSet
EndChar

StartChar: degree
Encoding: 176 176 106
Width: 400
Flags: W
LayerCount: 2
Fore
SplineSet
96 592 m 0,0,1
 96 544 96 544 111 518.5 c 128,-1,2
 126 493 126 493 145 482 c 128,-1,3
 164 471 164 471 182.5 469.5 c 128,-1,4
 201 468 201 468 207 468 c 256,5,6
 213 468 213 468 231.5 470 c 128,-1,7
 250 472 250 472 270.5 484 c 128,-1,8
 291 496 291 496 306.5 521 c 128,-1,9
 322 546 322 546 322 592 c 0,10,11
 322 639 322 639 306.5 664 c 128,-1,12
 291 689 291 689 270.5 700.5 c 128,-1,13
 250 712 250 712 231.5 713.5 c 128,-1,14
 213 715 213 715 207 715 c 0,15,16
 200 715 200 715 182 713 c 128,-1,17
 164 711 164 711 145 699.5 c 128,-1,18
 126 688 126 688 111 663 c 128,-1,19
 96 638 96 638 96 592 c 0,0,1
207 731 m 1,20,21
 281 730 281 730 314 695 c 128,-1,22
 347 660 347 660 347 591 c 0,23,24
 347 561 347 561 339.5 536 c 128,-1,25
 332 511 332 511 315 492 c 128,-1,26
 298 473 298 473 271.5 462.5 c 128,-1,27
 245 452 245 452 207 452 c 256,28,29
 169 452 169 452 142.5 462 c 128,-1,30
 116 472 116 472 99.5 490.5 c 128,-1,31
 83 509 83 509 75.5 534.5 c 128,-1,32
 68 560 68 560 68 591 c 0,33,34
 68 660 68 660 104.5 695 c 128,-1,35
 141 730 141 730 207 731 c 1,20,21
EndSplineSet
EndChar

StartChar: twosuperior
Encoding: 178 178 107
Width: 368
Flags: W
LayerCount: 2
Fore
SplineSet
396 375 m 1,0,-1
 409 375 l 1,1,-1
 399 299 l 1,2,-1
 109 299 l 1,3,4
 119 343 119 343 139 375.5 c 128,-1,5
 159 408 159 408 185.5 432.5 c 128,-1,6
 212 457 212 457 245 476 c 128,-1,7
 278 495 278 495 314 512 c 1,8,9
 360 532 360 532 384 559.5 c 128,-1,10
 408 587 408 587 414 616 c 0,11,12
 421 648 421 648 404 673 c 128,-1,13
 387 698 387 698 336 700 c 0,14,15
 314 700 314 700 296 694 c 128,-1,16
 278 688 278 688 263.5 679.5 c 128,-1,17
 249 671 249 671 239.5 662.5 c 128,-1,18
 230 654 230 654 224 649 c 1,19,20
 220 639 220 639 216 629 c 128,-1,21
 212 619 212 619 207 609 c 1,22,-1
 195 609 l 1,23,24
 197 626 197 626 199 641 c 128,-1,25
 201 656 201 656 203 672 c 1,26,27
 206 675 206 675 218.5 684 c 128,-1,28
 231 693 231 693 249.5 702.5 c 128,-1,29
 268 712 268 712 291.5 720 c 128,-1,30
 315 728 315 728 341 728 c 0,31,32
 411 728 411 728 436.5 695 c 128,-1,33
 462 662 462 662 452 616 c 1,34,35
 444 574 444 574 410.5 538.5 c 128,-1,36
 377 503 377 503 317 477 c 0,37,38
 290 465 290 465 266 450.5 c 128,-1,39
 242 436 242 436 222 418 c 128,-1,40
 202 400 202 400 186.5 377.5 c 128,-1,41
 171 355 171 355 164 327 c 1,42,-1
 374 327 l 1,43,-1
 396 375 l 1,0,-1
EndSplineSet
EndChar

StartChar: threesuperior
Encoding: 179 179 108
Width: 361
Flags: W
LayerCount: 2
Fore
SplineSet
187 690 m 1,0,1
 219 704 219 704 256.5 716 c 128,-1,2
 294 728 294 728 339 728 c 0,3,4
 365 728 365 728 388.5 722.5 c 128,-1,5
 412 717 412 717 428 705.5 c 128,-1,6
 444 694 444 694 451.5 675.5 c 128,-1,7
 459 657 459 657 454 631 c 0,8,9
 445 591 445 591 414.5 563.5 c 128,-1,10
 384 536 384 536 347 533 c 1,11,12
 396 527 396 527 421.5 497 c 128,-1,13
 447 467 447 467 437 422 c 0,14,15
 432 396 432 396 415 373 c 128,-1,16
 398 350 398 350 371.5 332.5 c 128,-1,17
 345 315 345 315 310.5 304.5 c 128,-1,18
 276 294 276 294 234 294 c 0,19,20
 169 294 169 294 137.5 302 c 128,-1,21
 106 310 106 310 96 316 c 1,22,23
 100 332 100 332 104.5 349 c 128,-1,24
 109 366 109 366 115 382 c 1,25,-1
 127 382 l 1,26,-1
 127 338 l 1,27,28
 149 331 149 331 177 324.5 c 128,-1,29
 205 318 205 318 235 318 c 0,30,31
 273 318 273 318 301 329.5 c 128,-1,32
 329 341 329 341 347.5 357.5 c 128,-1,33
 366 374 366 374 375.5 391.5 c 128,-1,34
 385 409 385 409 388 422 c 0,35,36
 391 437 391 437 387 452.5 c 128,-1,37
 383 468 383 468 371.5 481.5 c 128,-1,38
 360 495 360 495 339.5 503.5 c 128,-1,39
 319 512 319 512 290 512 c 2,40,-1
 240 512 l 1,41,-1
 246 540 l 1,42,-1
 296 540 l 2,43,44
 324 540 324 540 343.5 547 c 128,-1,45
 363 554 363 554 376.5 565.5 c 128,-1,46
 390 577 390 577 398 592 c 128,-1,47
 406 607 406 607 409 623 c 0,48,49
 412 637 412 637 410 650.5 c 128,-1,50
 408 664 408 664 398.5 675 c 128,-1,51
 389 686 389 686 373 693 c 128,-1,52
 357 700 357 700 333 700 c 0,53,54
 305 700 305 700 272 690.5 c 128,-1,55
 239 681 239 681 209 670 c 1,56,57
 205 660 205 660 200 649.5 c 128,-1,58
 195 639 195 639 191 629 c 1,59,60
 186 629 186 629 183.5 628.5 c 128,-1,61
 181 628 181 628 178 628 c 1,62,-1
 187 690 l 1,0,1
EndSplineSet
EndChar

StartChar: acute
Encoding: 180 180 109
Width: 222
Flags: W
LayerCount: 2
Fore
SplineSet
377 751 m 1,0,1
 346 719 346 719 328.5 701 c 128,-1,2
 311 683 311 683 300 672 c 128,-1,3
 289 661 289 661 282 654 c 128,-1,4
 275 647 275 647 266 639 c 1,5,-1
 224 639 l 1,6,7
 245 669 245 669 261.5 695.5 c 128,-1,8
 278 722 278 722 297 751 c 1,9,-1
 377 751 l 1,0,1
EndSplineSet
EndChar

StartChar: glyph110
Encoding: 183 183 110
Width: 290
Flags: W
LayerCount: 2
Fore
SplineSet
189 391 m 1,0,-1
 274 391 l 1,1,-1
 256 306 l 1,2,-1
 171 306 l 1,3,-1
 189 391 l 1,0,-1
EndSplineSet
EndChar

StartChar: cedilla
Encoding: 184 184 111
Width: 245
Flags: W
LayerCount: 2
Fore
SplineSet
89 -91 m 0,0,1
 80 -91 80 -91 70.5 -92 c 128,-1,2
 61 -93 61 -93 51 -95 c 1,3,4
 58 -90 58 -90 76.5 -63.5 c 128,-1,5
 95 -37 95 -37 123 0 c 1,6,-1
 130 0 l 1,7,-1
 72 -78 l 1,8,9
 106 -74 106 -74 126.5 -80 c 128,-1,10
 147 -86 147 -86 159 -97 c 128,-1,11
 171 -108 171 -108 173.5 -123 c 128,-1,12
 176 -138 176 -138 173 -151 c 0,13,14
 166 -185 166 -185 140.5 -202.5 c 128,-1,15
 115 -220 115 -220 77 -224 c 1,16,17
 56 -224 56 -224 43 -222.5 c 128,-1,18
 30 -221 30 -221 15 -216 c 1,19,-1
 19 -196 l 1,20,21
 42 -206 42 -206 65 -206 c 0,22,23
 72 -206 72 -206 82.5 -204.5 c 128,-1,24
 93 -203 93 -203 104 -197.5 c 128,-1,25
 115 -192 115 -192 124 -181 c 128,-1,26
 133 -170 133 -170 137 -151 c 0,27,28
 150 -91 150 -91 89 -91 c 0,0,1
EndSplineSet
EndChar

StartChar: onesuperior
Encoding: 185 185 112
Width: 317
Flags: W
LayerCount: 2
Fore
SplineSet
235 376 m 1,0,-1
 304 699 l 1,1,2
 281 697 281 697 259 688 c 1,3,-1
 262 704 l 1,4,5
 273 711 273 711 283.5 715.5 c 128,-1,6
 294 720 294 720 303 727 c 1,7,-1
 344 727 l 1,8,-1
 269 376 l 1,9,-1
 308 367 l 1,10,-1
 305 356 l 1,11,-1
 191 356 l 1,12,-1
 194 367 l 1,13,-1
 235 376 l 1,0,-1
EndSplineSet
EndChar

StartChar: ordmasculine
Encoding: 186 186 113
Width: 400
Flags: W
LayerCount: 2
Fore
SplineSet
221 592 m 0,0,1
 211 544 211 544 220.5 518.5 c 128,-1,2
 230 493 230 493 247 482 c 128,-1,3
 264 471 264 471 282 469.5 c 128,-1,4
 300 468 300 468 306 468 c 256,5,6
 312 468 312 468 331 470 c 128,-1,7
 350 472 350 472 373 484 c 128,-1,8
 396 496 396 496 417 521 c 128,-1,9
 438 546 438 546 447 592 c 0,10,11
 457 639 457 639 447 664 c 128,-1,12
 437 689 437 689 419 700.5 c 128,-1,13
 401 712 401 712 382.5 713.5 c 128,-1,14
 364 715 364 715 358 715 c 0,15,16
 351 715 351 715 333 713 c 128,-1,17
 315 711 315 711 293.5 699.5 c 128,-1,18
 272 688 272 688 251.5 663 c 128,-1,19
 231 638 231 638 221 592 c 0,0,1
362 731 m 1,20,21
 436 730 436 730 461.5 695 c 128,-1,22
 487 660 487 660 472 591 c 0,23,24
 466 561 466 561 453 536 c 128,-1,25
 440 511 440 511 419 492 c 128,-1,26
 398 473 398 473 369.5 462.5 c 128,-1,27
 341 452 341 452 303 452 c 256,28,29
 265 452 265 452 240.5 462 c 128,-1,30
 216 472 216 472 203.5 490.5 c 128,-1,31
 191 509 191 509 189 534.5 c 128,-1,32
 187 560 187 560 193 591 c 0,33,34
 208 660 208 660 252 695 c 128,-1,35
 296 730 296 730 362 731 c 1,20,21
EndSplineSet
EndChar

StartChar: guillemotright
Encoding: 187 187 114
Width: 555
Flags: W
LayerCount: 2
Fore
SplineSet
568 282 m 0,0,1
 566 270 566 270 551 262 c 1,2,-1
 356 140 l 1,3,4
 359 153 359 153 364 167 c 128,-1,5
 369 181 369 181 383 190 c 0,6,7
 389 193 389 193 409 205 c 128,-1,8
 429 217 429 217 453 231.5 c 128,-1,9
 477 246 477 246 500 260.5 c 128,-1,10
 523 275 523 275 533 282 c 1,11,-1
 419 378 l 1,12,13
 410 383 410 383 411.5 396 c 128,-1,14
 413 409 413 409 416 423 c 1,15,-1
 561 302 l 2,16,17
 571 294 571 294 568 282 c 0,0,1
320 282 m 0,18,19
 318 270 318 270 303 262 c 1,20,-1
 108 140 l 1,21,22
 111 153 111 153 116 167 c 128,-1,23
 121 181 121 181 135 190 c 0,24,25
 141 193 141 193 161 205 c 128,-1,26
 181 217 181 217 205 231.5 c 128,-1,27
 229 246 229 246 252 260.5 c 128,-1,28
 275 275 275 275 285 282 c 1,29,-1
 171 378 l 1,30,31
 162 383 162 383 163.5 396 c 128,-1,32
 165 409 165 409 168 423 c 1,33,-1
 313 302 l 2,34,35
 323 294 323 294 320 282 c 0,18,19
EndSplineSet
EndChar

StartChar: questiondown
Encoding: 191 191 115
Width: 582
Flags: W
LayerCount: 2
Fore
SplineSet
478 433 m 1,0,-1
 393 433 l 1,1,-1
 410 517 l 1,2,-1
 495 517 l 1,3,-1
 478 433 l 1,0,-1
486 -201 m 1,4,5
 436 -218 436 -218 385.5 -225 c 128,-1,6
 335 -232 335 -232 287 -232 c 0,7,8
 234 -232 234 -232 191 -222 c 128,-1,9
 148 -212 148 -212 119.5 -191 c 128,-1,10
 91 -170 91 -170 79.5 -136.5 c 128,-1,11
 68 -103 68 -103 78 -56 c 0,12,13
 84 -24 84 -24 99.5 1.5 c 128,-1,14
 115 27 115 27 136 48 c 128,-1,15
 157 69 157 69 180.5 86 c 128,-1,16
 204 103 204 103 229 120 c 0,17,18
 255 137 255 137 279.5 155 c 128,-1,19
 304 173 304 173 325.5 194 c 128,-1,20
 347 215 347 215 364.5 240 c 128,-1,21
 382 265 382 265 391 296 c 1,22,-1
 431 296 l 1,23,24
 420 255 420 255 402 224 c 128,-1,25
 384 193 384 193 362 169 c 128,-1,26
 340 145 340 145 317.5 127 c 128,-1,27
 295 109 295 109 274 96 c 0,28,29
 253 82 253 82 233.5 67.5 c 128,-1,30
 214 53 214 53 197 35 c 128,-1,31
 180 17 180 17 167.5 -5 c 128,-1,32
 155 -27 155 -27 149 -56 c 0,33,34
 137 -111 137 -111 171 -146 c 128,-1,35
 205 -181 205 -181 298 -181 c 0,36,37
 312 -181 312 -181 331 -179 c 128,-1,38
 350 -177 350 -177 370.5 -173.5 c 128,-1,39
 391 -170 391 -170 411 -165 c 128,-1,40
 431 -160 431 -160 448 -155 c 1,41,-1
 464 -16 l 1,42,-1
 485 -16 l 1,43,-1
 486 -201 l 1,4,5
EndSplineSet
EndChar

StartChar: AE
Encoding: 198 198 122
Width: 1051
Flags: W
LayerCount: 2
Fore
SplineSet
1101 674 m 1,0,-1
 798 674 l 1,1,2
 782 600 782 600 768 529.5 c 128,-1,3
 754 459 754 459 738 385 c 1,4,-1
 993 385 l 1,5,-1
 984 342 l 1,6,-1
 729 342 l 1,7,-1
 667 43 l 1,8,-1
 1000 43 l 1,9,-1
 1033 120 l 1,10,-1
 1052 120 l 1,11,-1
 1027 0 l 1,12,-1
 588 0 l 1,13,-1
 646 273 l 1,14,-1
 351 273 l 1,15,-1
 127 42 l 1,16,17
 147 38 147 38 171 31.5 c 128,-1,18
 195 25 195 25 215 20 c 1,19,-1
 211 0 l 1,20,-1
 -11 0 l 1,21,-1
 -6 20 l 1,22,-1
 66 37 l 1,23,-1
 708 716 l 1,24,-1
 1155 716 l 1,25,26
 1144 678 1144 678 1135.5 645 c 128,-1,27
 1127 612 1127 612 1117 576 c 1,28,-1
 1097 576 l 1,29,-1
 1101 674 l 1,0,-1
383 315 m 1,30,-1
 654 315 l 1,31,-1
 734 687 l 1,32,-1
 383 315 l 1,30,-1
EndSplineSet
EndChar

StartChar: Oslash
Encoding: 216 216 138
Width: 824
Flags: W
LayerCount: 2
Fore
SplineSet
743 736 m 1,0,-1
 728 712 l 1,1,2
 834 668 834 668 868 580.5 c 128,-1,3
 902 493 902 493 873 356 c 0,4,5
 856 276 856 276 821 207.5 c 128,-1,6
 786 139 786 139 730.5 88.5 c 128,-1,7
 675 38 675 38 597.5 9 c 128,-1,8
 520 -20 520 -20 419 -20 c 0,9,10
 389 -20 389 -20 357.5 -16 c 128,-1,11
 326 -12 326 -12 291 -6 c 1,12,-1
 284 -20 l 1,13,-1
 267 -20 l 1,14,-1
 277 -5 l 1,15,16
 219 16 219 16 183 51 c 128,-1,17
 147 86 147 86 129.5 132.5 c 128,-1,18
 112 179 112 179 111 235 c 128,-1,19
 110 291 110 291 123 356 c 1,20,21
 142 444 142 444 185 514 c 128,-1,22
 228 584 228 584 288 632 c 128,-1,23
 348 680 348 680 422.5 705.5 c 128,-1,24
 497 731 497 731 579 731 c 0,25,26
 617 731 617 731 647.5 727.5 c 128,-1,27
 678 724 678 724 712 717 c 1,28,-1
 724 736 l 1,29,-1
 743 736 l 1,0,-1
200 357 m 0,30,31
 186 290 186 290 189 239 c 128,-1,32
 192 188 192 188 208 150 c 128,-1,33
 224 112 224 112 249 86 c 128,-1,34
 274 60 274 60 304 43 c 1,35,-1
 502 367 l 1,36,-1
 684 669 l 1,37,38
 658 676 658 676 640.5 679.5 c 128,-1,39
 623 683 623 683 609.5 684.5 c 128,-1,40
 596 686 596 686 587 686.5 c 128,-1,41
 578 687 578 687 569 687 c 0,42,43
 556 687 556 687 529 685.5 c 128,-1,44
 502 684 502 684 466.5 674.5 c 128,-1,45
 431 665 431 665 391.5 645 c 128,-1,46
 352 625 352 625 315.5 588 c 128,-1,47
 279 551 279 551 248.5 495 c 128,-1,48
 218 439 218 439 200 357 c 0,30,31
429 25 m 0,49,50
 439 25 439 25 466 26.5 c 128,-1,51
 493 28 493 28 529 37.5 c 128,-1,52
 565 47 565 47 606.5 67 c 128,-1,53
 648 87 648 87 687 124 c 128,-1,54
 726 161 726 161 758 217.5 c 128,-1,55
 790 274 790 274 807 357 c 0,56,57
 821 421 821 421 817 470.5 c 128,-1,58
 813 520 813 520 796.5 557 c 128,-1,59
 780 594 780 594 754 620 c 128,-1,60
 728 646 728 646 699 664 c 1,61,-1
 320 38 l 1,62,63
 357 27 357 27 382.5 26 c 128,-1,64
 408 25 408 25 429 25 c 0,49,50
EndSplineSet
EndChar

StartChar: germandbls
Encoding: 223 223 144
Width: 592
Flags: W
LayerCount: 2
Fore
SplineSet
159 0 m 1,0,-1
 11 0 l 1,1,-1
 15 21 l 1,2,-1
 97 40 l 1,3,-1
 184 450 l 2,4,5
 198 513 198 513 213.5 568 c 128,-1,6
 229 623 229 623 257 664 c 128,-1,7
 285 705 285 705 330.5 728.5 c 128,-1,8
 376 752 376 752 450 752 c 0,9,10
 480 752 480 752 514.5 745 c 128,-1,11
 549 738 549 738 576.5 717.5 c 128,-1,12
 604 697 604 697 617 660 c 128,-1,13
 630 623 630 623 617 564 c 0,14,15
 612 538 612 538 597.5 510.5 c 128,-1,16
 583 483 583 483 560.5 458.5 c 128,-1,17
 538 434 538 434 507.5 416.5 c 128,-1,18
 477 399 477 399 440 395 c 1,19,20
 474 391 474 391 502 374.5 c 128,-1,21
 530 358 530 358 548.5 332.5 c 128,-1,22
 567 307 567 307 574.5 273.5 c 128,-1,23
 582 240 582 240 574 203 c 0,24,25
 559 134 559 134 527.5 93 c 128,-1,26
 496 52 496 52 454.5 29.5 c 128,-1,27
 413 7 413 7 367 -0.5 c 128,-1,28
 321 -8 321 -8 278 -8 c 1,29,30
 290 29 290 29 299.5 63.5 c 128,-1,31
 309 98 309 98 320 133 c 1,32,-1
 341 133 l 1,33,-1
 341 47 l 1,34,35
 471 89 471 89 496 205 c 0,36,37
 502 231 502 231 503.5 254 c 128,-1,38
 505 277 505 277 493 298 c 128,-1,39
 481 319 481 319 451 337.5 c 128,-1,40
 421 356 421 356 362 372 c 1,41,-1
 373 425 l 1,42,43
 449 428 449 428 496.5 460.5 c 128,-1,44
 544 493 544 493 560 565 c 0,45,46
 568 604 568 604 561 630 c 128,-1,47
 554 656 554 656 537 671.5 c 128,-1,48
 520 687 520 687 494 693.5 c 128,-1,49
 468 700 468 700 439 700 c 0,50,51
 396 700 396 700 368 689 c 128,-1,52
 340 678 340 678 320.5 653.5 c 128,-1,53
 301 629 301 629 288.5 590.5 c 128,-1,54
 276 552 276 552 264 498 c 2,55,-1
 159 0 l 1,0,-1
EndSplineSet
EndChar

StartChar: ae
Encoding: 230 230 151
Width: 846
Flags: W
LayerCount: 2
Fore
SplineSet
349 491 m 0,0,1
 319 491 319 491 292 482.5 c 128,-1,2
 265 474 265 474 243 461 c 128,-1,3
 221 448 221 448 204 434 c 128,-1,4
 187 420 187 420 176 409 c 1,5,6
 158 426 158 426 151 432.5 c 128,-1,7
 144 439 144 439 140 443 c 1,8,9
 167 469 167 469 196 486 c 128,-1,10
 225 503 225 503 253.5 513.5 c 128,-1,11
 282 524 282 524 308.5 528 c 128,-1,12
 335 532 335 532 358 532 c 0,13,14
 423 532 423 532 466 508 c 128,-1,15
 509 484 509 484 538 440 c 1,16,17
 639 532 639 532 752 532 c 0,18,19
 800 532 800 532 836 517.5 c 128,-1,20
 872 503 872 503 892.5 471.5 c 128,-1,21
 913 440 913 440 916 390 c 128,-1,22
 919 340 919 340 902 270 c 1,23,24
 896 270 896 270 861 269.5 c 128,-1,25
 826 269 826 269 774 267.5 c 128,-1,26
 722 266 722 266 658.5 263 c 128,-1,27
 595 260 595 260 530 254 c 1,28,29
 519 201 519 201 513 158.5 c 128,-1,30
 507 116 507 116 516.5 86.5 c 128,-1,31
 526 57 526 57 555.5 41 c 128,-1,32
 585 25 585 25 645 25 c 0,33,34
 675 25 675 25 701 33.5 c 128,-1,35
 727 42 727 42 749.5 55 c 128,-1,36
 772 68 772 68 789 82 c 128,-1,37
 806 96 806 96 816 107 c 1,38,39
 826 98 826 98 833.5 88.5 c 128,-1,40
 841 79 841 79 851 71 c 1,41,42
 822 44 822 44 794 27 c 128,-1,43
 766 10 766 10 739 0.5 c 128,-1,44
 712 -9 712 -9 686 -12.5 c 128,-1,45
 660 -16 660 -16 636 -16 c 0,46,47
 570 -16 570 -16 526.5 8 c 128,-1,48
 483 32 483 32 451 74 c 1,49,50
 353 -16 353 -16 242 -16 c 0,51,52
 194 -16 194 -16 158.5 -3 c 128,-1,53
 123 10 123 10 102 39 c 128,-1,54
 81 68 81 68 76.5 113.5 c 128,-1,55
 72 159 72 159 87 225 c 1,56,-1
 463 260 l 1,57,58
 474 313 474 313 480 356 c 128,-1,59
 486 399 486 399 477 429 c 128,-1,60
 468 459 468 459 438.5 475 c 128,-1,61
 409 491 409 491 349 491 c 0,0,1
855 320 m 1,62,63
 858 351 858 351 855.5 381 c 128,-1,64
 853 411 853 411 840.5 434.5 c 128,-1,65
 828 458 828 458 804 472 c 128,-1,66
 780 486 780 486 742 486 c 0,67,68
 698 486 698 486 665 467 c 128,-1,69
 632 448 632 448 609 420 c 128,-1,70
 586 392 586 392 571 360.5 c 128,-1,71
 556 329 556 329 550 304 c 1,72,-1
 855 320 l 1,62,63
137 181 m 1,73,74
 134 160 134 160 137 133.5 c 128,-1,75
 140 107 140 107 152 84 c 128,-1,76
 164 61 164 61 188.5 45.5 c 128,-1,77
 213 30 213 30 252 30 c 0,78,79
 297 30 297 30 329.5 48.5 c 128,-1,80
 362 67 362 67 385 94.5 c 128,-1,81
 408 122 408 122 422.5 153.5 c 128,-1,82
 437 185 437 185 444 210 c 1,83,-1
 137 181 l 1,73,74
EndSplineSet
EndChar

StartChar: oslash
Encoding: 248 248 167
Width: 585
Flags: W
LayerCount: 2
Fore
SplineSet
565 533 m 1,0,-1
 581 533 l 1,1,-1
 159 -19 l 1,2,3
 153 -19 153 -19 151.5 -19 c 128,-1,4
 150 -19 150 -19 149.5 -19.5 c 128,-1,5
 149 -20 149 -20 148 -20 c 128,-1,6
 147 -20 147 -20 143 -20 c 1,7,-1
 565 533 l 1,0,-1
186 261 m 0,8,9
 169 179 169 179 176 132.5 c 128,-1,10
 183 86 183 86 204 63 c 128,-1,11
 225 40 225 40 255 34.5 c 128,-1,12
 285 29 285 29 313 29 c 0,13,14
 335 29 335 29 363 33 c 128,-1,15
 391 37 391 37 421 58.5 c 128,-1,16
 451 80 451 80 477.5 127 c 128,-1,17
 504 174 504 174 523 261 c 0,18,19
 541 345 541 345 533.5 391 c 128,-1,20
 526 437 526 437 505 458 c 128,-1,21
 484 479 484 479 455 483 c 128,-1,22
 426 487 426 487 401 487 c 0,23,24
 374 487 374 487 344.5 484 c 128,-1,25
 315 481 315 481 285.5 460 c 128,-1,26
 256 439 256 439 230 393 c 128,-1,27
 204 347 204 347 186 261 c 0,8,9
411 533 m 0,28,29
 482 533 482 533 525 511.5 c 128,-1,30
 568 490 568 490 588.5 453 c 128,-1,31
 609 416 609 416 610.5 366.5 c 128,-1,32
 612 317 612 317 600 261 c 0,33,34
 586 193 586 193 563 141 c 128,-1,35
 540 89 540 89 505.5 54 c 128,-1,36
 471 19 471 19 421 1 c 128,-1,37
 371 -17 371 -17 303 -17 c 0,38,39
 234 -17 234 -17 191.5 5.5 c 128,-1,40
 149 28 149 28 128.5 66.5 c 128,-1,41
 108 105 108 105 105.5 155 c 128,-1,42
 103 205 103 205 115 261 c 0,43,44
 129 326 129 326 152 376.5 c 128,-1,45
 175 427 175 427 210.5 462 c 128,-1,46
 246 497 246 497 295.5 515 c 128,-1,47
 345 533 345 533 411 533 c 0,28,29
EndSplineSet
EndChar

StartChar: dotlessi
Encoding: 305 305 174
Width: 261
Flags: W
LayerCount: 2
Fore
SplineSet
127 496 m 1,0,-1
 131 517 l 1,1,-1
 279 517 l 1,2,-1
 178 40 l 1,3,-1
 254 21 l 1,4,-1
 250 0 l 1,5,-1
 22 0 l 1,6,-1
 26 21 l 1,7,-1
 110 40 l 1,8,-1
 203 477 l 1,9,-1
 127 496 l 1,0,-1
EndSplineSet
EndChar

StartChar: florin
Encoding: 402 402 180
Width: 322
Flags: W
LayerCount: 2
Fore
SplineSet
571 697 m 1,0,1
 547 711 547 711 522.5 719 c 128,-1,2
 498 727 498 727 466 727 c 0,3,4
 414 727 414 727 384 714.5 c 128,-1,5
 354 702 354 702 337 680.5 c 128,-1,6
 320 659 320 659 312 629 c 128,-1,7
 304 599 304 599 296 563 c 2,8,-1
 286 517 l 1,9,-1
 415 517 l 1,10,-1
 406 474 l 1,11,-1
 277 474 l 1,12,-1
 172 -21 l 1,13,14
 158 -79 158 -79 135.5 -115.5 c 128,-1,15
 113 -152 113 -152 88 -173.5 c 128,-1,16
 63 -195 63 -195 40 -203.5 c 128,-1,17
 17 -212 17 -212 2 -215 c 1,18,-1
 11 -170 l 1,19,20
 29 -156 29 -156 42.5 -143.5 c 128,-1,21
 56 -131 56 -131 66 -115 c 128,-1,22
 76 -99 76 -99 85.5 -78.5 c 128,-1,23
 95 -58 95 -58 107 -28 c 1,24,-1
 213 474 l 1,25,-1
 127 474 l 1,26,-1
 136 517 l 1,27,-1
 222 517 l 1,28,-1
 232 563 l 2,29,30
 246 626 246 626 267.5 668 c 128,-1,31
 289 710 289 710 320 734.5 c 128,-1,32
 351 759 351 759 390 769 c 128,-1,33
 429 779 429 779 477 779 c 0,34,35
 503 779 503 779 531.5 769 c 128,-1,36
 560 759 560 759 580 748 c 1,37,-1
 571 697 l 1,0,1
EndSplineSet
EndChar

StartChar: circumflex
Encoding: 710 710 181
Width: 245
Flags: W
LayerCount: 2
Fore
SplineSet
383 625 m 1,0,-1
 340 625 l 1,1,-1
 280 733 l 1,2,-1
 174 625 l 1,3,-1
 131 625 l 1,4,-1
 262 754 l 1,5,-1
 308 754 l 1,6,-1
 383 625 l 1,0,-1
EndSplineSet
EndChar

StartChar: caron
Encoding: 711 711 182
Width: 241
Flags: W
LayerCount: 2
Fore
SplineSet
280 625 m 1,0,-1
 234 625 l 1,1,-1
 159 754 l 1,2,-1
 202 754 l 1,3,-1
 262 646 l 1,4,-1
 368 754 l 1,5,-1
 411 754 l 1,6,-1
 280 625 l 1,0,-1
EndSplineSet
EndChar

StartChar: ring
Encoding: 730 730 183
Width: 400
Flags: W
LayerCount: 2
Fore
SplineSet
221 592 m 0,0,1
 211 544 211 544 220.5 518.5 c 128,-1,2
 230 493 230 493 247 482 c 128,-1,3
 264 471 264 471 282 469.5 c 128,-1,4
 300 468 300 468 306 468 c 256,5,6
 312 468 312 468 331 470 c 128,-1,7
 350 472 350 472 373 484 c 128,-1,8
 396 496 396 496 417 521 c 128,-1,9
 438 546 438 546 447 592 c 0,10,11
 457 639 457 639 447 664 c 128,-1,12
 437 689 437 689 419 700.5 c 128,-1,13
 401 712 401 712 382.5 713.5 c 128,-1,14
 364 715 364 715 358 715 c 0,15,16
 351 715 351 715 333 713 c 128,-1,17
 315 711 315 711 293.5 699.5 c 128,-1,18
 272 688 272 688 251.5 663 c 128,-1,19
 231 638 231 638 221 592 c 0,0,1
362 731 m 1,20,21
 436 730 436 730 461.5 695 c 128,-1,22
 487 660 487 660 472 591 c 0,23,24
 466 561 466 561 453 536 c 128,-1,25
 440 511 440 511 419 492 c 128,-1,26
 398 473 398 473 369.5 462.5 c 128,-1,27
 341 452 341 452 303 452 c 256,28,29
 265 452 265 452 240.5 462 c 128,-1,30
 216 472 216 472 203.5 490.5 c 128,-1,31
 191 509 191 509 189 534.5 c 128,-1,32
 187 560 187 560 193 591 c 0,33,34
 208 660 208 660 252 695 c 128,-1,35
 296 730 296 730 362 731 c 1,20,21
EndSplineSet
EndChar

StartChar: tilde
Encoding: 732 732 184
Width: 222
Flags: W
LayerCount: 2
Fore
SplineSet
131 705 m 1,0,1
 137 711 137 711 151 718 c 128,-1,2
 165 725 165 725 193 725 c 0,3,4
 213 725 213 725 231.5 720.5 c 128,-1,5
 250 716 250 716 268.5 711 c 128,-1,6
 287 706 287 706 306 701.5 c 128,-1,7
 325 697 325 697 346 697 c 0,8,9
 366 697 366 697 382 699.5 c 128,-1,10
 398 702 398 702 411 707 c 1,11,-1
 403 669 l 1,12,13
 370 646 370 646 336 646 c 0,14,15
 313 646 313 646 294.5 650 c 128,-1,16
 276 654 276 654 258 659 c 128,-1,17
 240 664 240 664 220.5 668 c 128,-1,18
 201 672 201 672 179 672 c 0,19,20
 150 672 150 672 123 662 c 1,21,-1
 131 705 l 1,0,1
EndSplineSet
EndChar

StartChar: gravecmb
Encoding: 768 768 185
Width: 222
Flags: W
LayerCount: 2
Fore
SplineSet
241 751 m 1,0,-1
 267 639 l 1,1,-1
 225 639 l 1,2,-1
 163 751 l 1,3,-1
 241 751 l 1,0,-1
EndSplineSet
EndChar

StartChar: acutecmb
Encoding: 769 769 186
Width: 222
Flags: W
LayerCount: 2
Fore
SplineSet
377 751 m 1,0,1
 346 719 346 719 328.5 701 c 128,-1,2
 311 683 311 683 300 672 c 128,-1,3
 289 661 289 661 282 654 c 128,-1,4
 275 647 275 647 266 639 c 1,5,-1
 224 639 l 1,6,7
 245 669 245 669 261.5 695.5 c 128,-1,8
 278 722 278 722 297 751 c 1,9,-1
 377 751 l 1,0,1
EndSplineSet
EndChar

StartChar: circumflexcmb
Encoding: 770 770 187
Width: 245
Flags: W
LayerCount: 2
Fore
SplineSet
383 625 m 1,0,-1
 340 625 l 1,1,-1
 280 733 l 1,2,-1
 174 625 l 1,3,-1
 131 625 l 1,4,-1
 262 754 l 1,5,-1
 308 754 l 1,6,-1
 383 625 l 1,0,-1
EndSplineSet
EndChar

StartChar: tildecmb
Encoding: 771 771 188
Width: 222
Flags: W
LayerCount: 2
Fore
SplineSet
131 705 m 1,0,1
 137 711 137 711 151 718 c 128,-1,2
 165 725 165 725 193 725 c 0,3,4
 213 725 213 725 231.5 720.5 c 128,-1,5
 250 716 250 716 268.5 711 c 128,-1,6
 287 706 287 706 306 701.5 c 128,-1,7
 325 697 325 697 346 697 c 0,8,9
 366 697 366 697 382 699.5 c 128,-1,10
 398 702 398 702 411 707 c 1,11,-1
 403 669 l 1,12,13
 370 646 370 646 336 646 c 0,14,15
 313 646 313 646 294.5 650 c 128,-1,16
 276 654 276 654 258 659 c 128,-1,17
 240 664 240 664 220.5 668 c 128,-1,18
 201 672 201 672 179 672 c 0,19,20
 150 672 150 672 123 662 c 1,21,-1
 131 705 l 1,0,1
EndSplineSet
EndChar

StartChar: ringcmb
Encoding: 778 778 190
Width: 400
Flags: W
LayerCount: 2
Fore
SplineSet
221 592 m 0,0,1
 211 544 211 544 220.5 518.5 c 128,-1,2
 230 493 230 493 247 482 c 128,-1,3
 264 471 264 471 282 469.5 c 128,-1,4
 300 468 300 468 306 468 c 256,5,6
 312 468 312 468 331 470 c 128,-1,7
 350 472 350 472 373 484 c 128,-1,8
 396 496 396 496 417 521 c 128,-1,9
 438 546 438 546 447 592 c 0,10,11
 457 639 457 639 447 664 c 128,-1,12
 437 689 437 689 419 700.5 c 128,-1,13
 401 712 401 712 382.5 713.5 c 128,-1,14
 364 715 364 715 358 715 c 0,15,16
 351 715 351 715 333 713 c 128,-1,17
 315 711 315 711 293.5 699.5 c 128,-1,18
 272 688 272 688 251.5 663 c 128,-1,19
 231 638 231 638 221 592 c 0,0,1
362 731 m 1,20,21
 436 730 436 730 461.5 695 c 128,-1,22
 487 660 487 660 472 591 c 0,23,24
 466 561 466 561 453 536 c 128,-1,25
 440 511 440 511 419 492 c 128,-1,26
 398 473 398 473 369.5 462.5 c 128,-1,27
 341 452 341 452 303 452 c 256,28,29
 265 452 265 452 240.5 462 c 128,-1,30
 216 472 216 472 203.5 490.5 c 128,-1,31
 191 509 191 509 189 534.5 c 128,-1,32
 187 560 187 560 193 591 c 0,33,34
 208 660 208 660 252 695 c 128,-1,35
 296 730 296 730 362 731 c 1,20,21
EndSplineSet
EndChar

StartChar: caroncmb
Encoding: 780 780 191
Width: 241
Flags: W
LayerCount: 2
Fore
SplineSet
280 625 m 1,0,-1
 234 625 l 1,1,-1
 159 754 l 1,2,-1
 202 754 l 1,3,-1
 262 646 l 1,4,-1
 368 754 l 1,5,-1
 411 754 l 1,6,-1
 280 625 l 1,0,-1
EndSplineSet
EndChar

StartChar: cedillacmb
Encoding: 807 807 192
Width: 245
Flags: W
LayerCount: 2
Fore
SplineSet
89 -91 m 0,0,1
 80 -91 80 -91 70.5 -92 c 128,-1,2
 61 -93 61 -93 51 -95 c 1,3,4
 58 -90 58 -90 76.5 -63.5 c 128,-1,5
 95 -37 95 -37 123 0 c 1,6,-1
 130 0 l 1,7,-1
 72 -78 l 1,8,9
 106 -74 106 -74 126.5 -80 c 128,-1,10
 147 -86 147 -86 159 -97 c 128,-1,11
 171 -108 171 -108 173.5 -123 c 128,-1,12
 176 -138 176 -138 173 -151 c 0,13,14
 166 -185 166 -185 140.5 -202.5 c 128,-1,15
 115 -220 115 -220 77 -224 c 1,16,17
 56 -224 56 -224 43 -222.5 c 128,-1,18
 30 -221 30 -221 15 -216 c 1,19,-1
 19 -196 l 1,20,21
 42 -206 42 -206 65 -206 c 0,22,23
 72 -206 72 -206 82.5 -204.5 c 128,-1,24
 93 -203 93 -203 104 -197.5 c 128,-1,25
 115 -192 115 -192 124 -181 c 128,-1,26
 133 -170 133 -170 137 -151 c 0,27,28
 150 -91 150 -91 89 -91 c 0,0,1
EndSplineSet
EndChar

StartChar: endash
Encoding: 8211 8211 194
Width: 500
Flags: W
LayerCount: 2
Fore
SplineSet
575 304 m 1,0,-1
 564 253 l 1,1,-1
 64 253 l 1,2,-1
 75 304 l 1,3,-1
 575 304 l 1,0,-1
EndSplineSet
EndChar

StartChar: emdash
Encoding: 8212 8212 195
Width: 1000
Flags: W
LayerCount: 2
Fore
SplineSet
207 304 m 1,0,-1
 966 304 l 1,1,-1
 955 253 l 1,2,-1
 196 253 l 1,3,-1
 207 304 l 1,0,-1
EndSplineSet
EndChar

StartChar: quoteleft
Encoding: 8216 8216 196
Width: 278
Flags: W
LayerCount: 2
Fore
SplineSet
301 533 m 1,0,-1
 283 448 l 1,1,-1
 195 448 l 1,2,3
 196 478 196 478 199 501.5 c 128,-1,4
 202 525 202 525 207 548 c 0,5,6
 217 593 217 593 232.5 625 c 128,-1,7
 248 657 248 657 268 677 c 128,-1,8
 288 697 288 697 309.5 707.5 c 128,-1,9
 331 718 331 718 353 721 c 1,10,-1
 344 682 l 1,11,12
 317 679 317 679 299 665.5 c 128,-1,13
 281 652 281 652 269 631.5 c 128,-1,14
 257 611 257 611 250.5 585.5 c 128,-1,15
 244 560 244 560 238 533 c 1,16,-1
 301 533 l 1,0,-1
EndSplineSet
EndChar

StartChar: quoteright
Encoding: 8217 8217 197
Width: 278
Flags: W
LayerCount: 2
Fore
SplineSet
256 722 m 1,0,-1
 343 722 l 1,1,2
 341 693 341 693 337.5 667.5 c 128,-1,3
 334 642 334 642 329 620 c 0,4,5
 320 575 320 575 304 544 c 128,-1,6
 288 513 288 513 268 493 c 128,-1,7
 248 473 248 473 226.5 463 c 128,-1,8
 205 453 205 453 184 449 c 1,9,-1
 192 485 l 1,10,11
 220 488 220 488 238 502 c 128,-1,12
 256 516 256 516 267.5 537 c 128,-1,13
 279 558 279 558 285.5 584 c 128,-1,14
 292 610 292 610 298 637 c 1,15,-1
 238 637 l 1,16,-1
 256 722 l 1,0,-1
EndSplineSet
EndChar

StartChar: quotesinglbase
Encoding: 8218 8218 198
Width: 278
Flags: W
LayerCount: 2
Fore
SplineSet
123 84 m 1,0,-1
 210 84 l 1,1,2
 208 55 208 55 205 30 c 128,-1,3
 202 5 202 5 197 -15 c 0,4,5
 188 -60 188 -60 172 -91.5 c 128,-1,6
 156 -123 156 -123 136.5 -143.5 c 128,-1,7
 117 -164 117 -164 95 -174 c 128,-1,8
 73 -184 73 -184 52 -187 c 1,9,-1
 59 -152 l 1,10,11
 88 -149 88 -149 106 -134.5 c 128,-1,12
 124 -120 124 -120 135.5 -99 c 128,-1,13
 147 -78 147 -78 153.5 -52 c 128,-1,14
 160 -26 160 -26 166 0 c 1,15,-1
 106 0 l 1,16,-1
 123 84 l 1,0,-1
EndSplineSet
EndChar

StartChar: quotedblleft
Encoding: 8220 8220 199
Width: 440
Flags: W
LayerCount: 2
Fore
SplineSet
328 683 m 1,0,1
 300 679 300 679 281.5 665.5 c 128,-1,2
 263 652 263 652 251.5 631.5 c 128,-1,3
 240 611 240 611 233.5 585.5 c 128,-1,4
 227 560 227 560 221 533 c 1,5,-1
 283 533 l 1,6,-1
 265 448 l 1,7,-1
 178 448 l 1,8,9
 180 504 180 504 189 548 c 0,10,11
 199 593 199 593 215 624.5 c 128,-1,12
 231 656 231 656 251 676.5 c 128,-1,13
 271 697 271 697 293 707.5 c 128,-1,14
 315 718 315 718 336 721 c 1,15,-1
 328 683 l 1,0,1
490 533 m 1,16,-1
 472 448 l 1,17,-1
 385 448 l 1,18,19
 388 477 388 477 391 501.5 c 128,-1,20
 394 526 394 526 399 548 c 0,21,22
 409 594 409 594 424.5 625.5 c 128,-1,23
 440 657 440 657 459.5 677 c 128,-1,24
 479 697 479 697 500.5 707.5 c 128,-1,25
 522 718 522 718 544 721 c 1,26,-1
 536 683 l 1,27,28
 508 679 508 679 490.5 665.5 c 128,-1,29
 473 652 473 652 461 631.5 c 128,-1,30
 449 611 449 611 442.5 585.5 c 128,-1,31
 436 560 436 560 430 533 c 1,32,-1
 490 533 l 1,16,-1
EndSplineSet
EndChar

StartChar: quotedblright
Encoding: 8221 8221 200
Width: 444
Flags: W
LayerCount: 2
Fore
SplineSet
443 722 m 1,0,-1
 531 722 l 1,1,2
 531 692 531 692 527 667.5 c 128,-1,3
 523 643 523 643 518 620 c 0,4,5
 509 575 509 575 493 544 c 128,-1,6
 477 513 477 513 457.5 493 c 128,-1,7
 438 473 438 473 416.5 463 c 128,-1,8
 395 453 395 453 373 449 c 1,9,-1
 381 485 l 1,10,11
 409 488 409 488 427 502 c 128,-1,12
 445 516 445 516 456.5 537 c 128,-1,13
 468 558 468 558 474.5 584 c 128,-1,14
 481 610 481 610 487 637 c 1,15,-1
 425 637 l 1,16,-1
 443 722 l 1,0,-1
237 722 m 1,17,-1
 324 722 l 1,18,19
 321 693 321 693 318 667.5 c 128,-1,20
 315 642 315 642 310 620 c 0,21,22
 301 575 301 575 285 544 c 128,-1,23
 269 513 269 513 249 493 c 128,-1,24
 229 473 229 473 207 463 c 128,-1,25
 185 453 185 453 164 449 c 1,26,-1
 172 485 l 1,27,28
 200 488 200 488 218 502 c 128,-1,29
 236 516 236 516 247.5 537 c 128,-1,30
 259 558 259 558 266 584 c 128,-1,31
 273 610 273 610 279 637 c 1,32,-1
 219 637 l 1,33,-1
 237 722 l 1,17,-1
EndSplineSet
EndChar

StartChar: quotedblbase
Encoding: 8222 8222 201
Width: 487
Flags: W
LayerCount: 2
Fore
SplineSet
119 84 m 1,0,-1
 205 84 l 1,1,2
 202 25 202 25 193 -15 c 0,3,4
 184 -60 184 -60 168 -91.5 c 128,-1,5
 152 -123 152 -123 132.5 -143.5 c 128,-1,6
 113 -164 113 -164 91 -174 c 128,-1,7
 69 -184 69 -184 48 -187 c 1,8,-1
 55 -152 l 1,9,10
 83 -149 83 -149 101 -134.5 c 128,-1,11
 119 -120 119 -120 130.5 -99 c 128,-1,12
 142 -78 142 -78 148.5 -52 c 128,-1,13
 155 -26 155 -26 161 0 c 1,14,-1
 102 0 l 1,15,-1
 119 84 l 1,0,-1
345 84 m 1,16,-1
 432 84 l 1,17,18
 431 53 431 53 428.5 30.5 c 128,-1,19
 426 8 426 8 421 -15 c 0,20,21
 412 -61 412 -61 395.5 -92.5 c 128,-1,22
 379 -124 379 -124 359.5 -144 c 128,-1,23
 340 -164 340 -164 317.5 -174 c 128,-1,24
 295 -184 295 -184 275 -187 c 1,25,-1
 282 -152 l 1,26,27
 311 -149 311 -149 328.5 -135 c 128,-1,28
 346 -121 346 -121 356.5 -100.5 c 128,-1,29
 367 -80 367 -80 374 -54 c 128,-1,30
 381 -28 381 -28 386 -1 c 1,31,32
 373 -1 373 -1 357.5 -0.5 c 128,-1,33
 342 0 342 0 328 0 c 1,34,-1
 345 84 l 1,16,-1
EndSplineSet
EndChar

StartChar: bullet
Encoding: 8226 8226 202
Width: 500
Flags: W
LayerCount: 2
Fore
SplineSet
78 364 m 0,0,1
 78 401 78 401 92 434 c 128,-1,2
 106 467 106 467 131 492 c 128,-1,3
 156 517 156 517 188.5 531 c 128,-1,4
 221 545 221 545 259 545 c 0,5,6
 296 545 296 545 329 531 c 128,-1,7
 362 517 362 517 387 492 c 128,-1,8
 412 467 412 467 426 434 c 128,-1,9
 440 401 440 401 440 364 c 0,10,11
 440 326 440 326 426 293.5 c 128,-1,12
 412 261 412 261 387 236 c 128,-1,13
 362 211 362 211 329 197 c 128,-1,14
 296 183 296 183 259 183 c 0,15,16
 221 183 221 183 188.5 197 c 128,-1,17
 156 211 156 211 131 236 c 128,-1,18
 106 261 106 261 92 293.5 c 128,-1,19
 78 326 78 326 78 364 c 0,0,1
EndSplineSet
EndChar

StartChar: ellipsis
Encoding: 8230 8230 203
Width: 813
Flags: W
LayerCount: 2
Fore
SplineSet
110 83 m 1,0,-1
 195 83 l 1,1,-1
 177 -1 l 1,2,-1
 92 -1 l 1,3,-1
 110 83 l 1,0,-1
404 83 m 1,4,-1
 489 83 l 1,5,-1
 471 -1 l 1,6,-1
 386 -1 l 1,7,-1
 404 83 l 1,4,-1
698 83 m 1,8,-1
 782 83 l 1,9,-1
 764 -1 l 1,10,-1
 680 -1 l 1,11,-1
 698 83 l 1,8,-1
EndSplineSet
EndChar

StartChar: guilsinglleft
Encoding: 8249 8249 204
Width: 306
Flags: W
LayerCount: 2
Fore
SplineSet
128 282 m 0,0,1
 131 294 131 294 145 302 c 2,2,-1
 340 423 l 1,3,4
 337 409 337 409 333.5 396 c 128,-1,5
 330 383 330 383 319 378 c 1,6,-1
 163 282 l 1,7,8
 171 275 171 275 188 260.5 c 128,-1,9
 205 246 205 246 223 231.5 c 128,-1,10
 241 217 241 217 256 205 c 128,-1,11
 271 193 271 193 275 190 c 0,12,13
 285 181 285 181 284 167 c 128,-1,14
 283 153 283 153 280 140 c 1,15,-1
 137 262 l 1,16,17
 126 270 126 270 128 282 c 0,0,1
EndSplineSet
EndChar

StartChar: guilsinglright
Encoding: 8250 8250 205
Width: 311
Flags: W
LayerCount: 2
Fore
SplineSet
316 282 m 0,0,1
 314 270 314 270 299 262 c 1,2,-1
 104 140 l 1,3,4
 107 153 107 153 112 167 c 128,-1,5
 117 181 117 181 131 190 c 0,6,7
 137 193 137 193 157 205 c 128,-1,8
 177 217 177 217 201 231.5 c 128,-1,9
 225 246 225 246 248 260.5 c 128,-1,10
 271 275 271 275 281 282 c 1,11,-1
 167 378 l 1,12,13
 158 383 158 383 159.5 396 c 128,-1,14
 161 409 161 409 164 423 c 1,15,-1
 309 302 l 2,16,17
 319 294 319 294 316 282 c 0,0,1
EndSplineSet
EndChar

StartChar: fraction
Encoding: 8260 8260 206
Width: 347
Flags: W
LayerCount: 2
Fore
SplineSet
500 753 m 1,0,-1
 517 753 l 1,1,-1
 1 -19 l 1,2,3
 -4 -19 -4 -19 -5.5 -19 c 128,-1,4
 -7 -19 -7 -19 -7.5 -19.5 c 128,-1,5
 -8 -20 -8 -20 -9.5 -20 c 128,-1,6
 -11 -20 -11 -20 -15 -20 c 1,7,-1
 500 753 l 1,0,-1
EndSplineSet
EndChar

StartChar: Euro
Encoding: 8364 8364 207
Width: 615
Flags: W
LayerCount: 2
Fore
SplineSet
216 481 m 1,0,1
 275 626 275 626 362.5 697.5 c 128,-1,2
 450 769 450 769 565 769 c 0,3,4
 620 769 620 769 667 757.5 c 128,-1,5
 714 746 714 746 753 734 c 1,6,-1
 739 672 l 1,7,8
 699 692 699 692 653 708.5 c 128,-1,9
 607 725 607 725 556 725 c 0,10,11
 531 725 531 725 500 718 c 128,-1,12
 469 711 469 711 434.5 686.5 c 128,-1,13
 400 662 400 662 365 613.5 c 128,-1,14
 330 565 330 565 297 481 c 1,15,-1
 548 481 l 1,16,-1
 536 460 l 1,17,-1
 292 460 l 1,18,19
 286 434 286 434 280.5 415.5 c 128,-1,20
 275 397 275 397 271 379 c 128,-1,21
 267 361 267 361 264 341 c 128,-1,22
 261 321 261 321 258 293 c 1,23,-1
 453 293 l 1,24,25
 451 288 451 288 448.5 282.5 c 128,-1,26
 446 277 446 277 443 272 c 1,27,-1
 256 272 l 1,28,29
 259 188 259 188 282.5 143.5 c 128,-1,30
 306 99 306 99 333 79 c 128,-1,31
 360 59 360 59 384 56 c 128,-1,32
 408 53 408 53 413 53 c 0,33,34
 478 53 478 53 531.5 75.5 c 128,-1,35
 585 98 585 98 632 130 c 1,36,-1
 617 60 l 1,37,38
 602 51 602 51 580.5 40.5 c 128,-1,39
 559 30 559 30 531.5 21 c 128,-1,40
 504 12 504 12 471.5 6 c 128,-1,41
 439 0 439 0 402 0 c 0,42,43
 351 0 351 0 309 18.5 c 128,-1,44
 267 37 267 37 237 72 c 128,-1,45
 207 107 207 107 190 157.5 c 128,-1,46
 173 208 173 208 170 272 c 1,47,-1
 97 272 l 1,48,-1
 116 293 l 1,49,-1
 174 293 l 1,50,51
 181 338 181 338 189 378.5 c 128,-1,52
 197 419 197 419 210 460 c 1,53,-1
 137 460 l 1,54,-1
 155 481 l 1,55,-1
 216 481 l 1,0,1
EndSplineSet
EndChar

StartChar: ff
Encoding: 64256 64256 209
Width: 646
Flags: W
LayerCount: 2
Fore
SplineSet
441 726 m 0,0,1
 380 726 380 726 337 681 c 128,-1,2
 294 636 294 636 278 562 c 2,3,-1
 268 516 l 1,4,-1
 366 516 l 1,5,-1
 357 473 l 1,6,-1
 259 473 l 1,7,-1
 122 -173 l 1,8,-1
 201 -189 l 1,9,-1
 197 -211 l 1,10,-1
 -30 -211 l 1,11,-1
 -26 -190 l 1,12,-1
 57 -173 l 1,13,-1
 196 473 l 1,14,-1
 110 473 l 1,15,-1
 119 516 l 1,16,-1
 205 516 l 1,17,-1
 215 562 l 2,18,19
 239 673 239 673 301.5 725.5 c 128,-1,20
 364 778 364 778 453 778 c 0,21,22
 478 778 478 778 501.5 774 c 128,-1,23
 525 770 525 770 544 760.5 c 128,-1,24
 563 751 563 751 575.5 735 c 128,-1,25
 588 719 588 719 593 695 c 1,26,27
 617 722 617 722 642 738.5 c 128,-1,28
 667 755 667 755 692.5 763.5 c 128,-1,29
 718 772 718 772 743.5 775 c 128,-1,30
 769 778 769 778 793 778 c 0,31,32
 820 778 820 778 848.5 768 c 128,-1,33
 877 758 877 758 897 747 c 1,34,35
 889 719 889 719 881.5 692 c 128,-1,36
 874 665 874 665 866 639 c 1,37,-1
 846 639 l 1,38,-1
 845 716 l 1,39,40
 826 721 826 721 811 723.5 c 128,-1,41
 796 726 796 726 782 726 c 0,42,43
 731 726 731 726 700.5 714 c 128,-1,44
 670 702 670 702 652.5 680 c 128,-1,45
 635 658 635 658 627 628 c 128,-1,46
 619 598 619 598 611 562 c 2,47,-1
 601 516 l 1,48,-1
 730 516 l 1,49,-1
 721 473 l 1,50,-1
 592 473 l 1,51,-1
 500 38 l 1,52,53
 518 34 518 34 539 29 c 128,-1,54
 560 24 560 24 579 20 c 1,55,-1
 575 0 l 1,56,-1
 347 0 l 1,57,-1
 351 21 l 1,58,-1
 435 40 l 1,59,-1
 529 473 l 1,60,-1
 443 473 l 1,61,-1
 452 516 l 1,62,-1
 538 516 l 1,63,64
 552 580 552 580 551 620.5 c 128,-1,65
 550 661 550 661 537 684.5 c 128,-1,66
 524 708 524 708 499.5 717 c 128,-1,67
 475 726 475 726 441 726 c 0,0,1
EndSplineSet
EndChar

StartChar: fi
Encoding: 64257 64257 210
Width: 626
Flags: W
LayerCount: 2
Fore
SplineSet
644 20 m 1,0,-1
 640 0 l 1,1,-1
 414 0 l 1,2,-1
 418 20 l 1,3,-1
 500 36 l 1,4,-1
 593 474 l 1,5,-1
 275 474 l 1,6,-1
 182 37 l 1,7,-1
 262 20 l 1,8,-1
 258 0 l 1,9,-1
 31 0 l 1,10,-1
 35 20 l 1,11,-1
 118 36 l 1,12,-1
 211 474 l 1,13,-1
 132 474 l 1,14,-1
 141 517 l 1,15,-1
 220 517 l 1,16,-1
 240 610 l 2,17,18
 252 664 252 664 275 703.5 c 128,-1,19
 298 743 298 743 329 769 c 128,-1,20
 360 795 360 795 398 807.5 c 128,-1,21
 436 820 436 820 475 820 c 0,22,23
 505 820 505 820 528 815.5 c 128,-1,24
 551 811 551 811 570 804 c 128,-1,25
 589 797 589 797 605 788 c 128,-1,26
 621 779 621 779 637 770 c 1,27,-1
 645 805 l 1,28,-1
 733 805 l 1,29,-1
 714 716 l 1,30,-1
 613 716 l 1,31,32
 601 728 601 728 585.5 739 c 128,-1,33
 570 750 570 750 552 758.5 c 128,-1,34
 534 767 534 767 514 772.5 c 128,-1,35
 494 778 494 778 475 778 c 0,36,37
 436 778 436 778 406 761 c 128,-1,38
 376 744 376 744 355 718.5 c 128,-1,39
 334 693 334 693 321 663 c 128,-1,40
 308 633 308 633 302 606 c 2,41,-1
 283 517 l 1,42,-1
 671 517 l 1,43,-1
 569 37 l 1,44,-1
 644 20 l 1,0,-1
EndSplineSet
EndChar

StartChar: fl
Encoding: 64258 64258 211
Width: 622
Flags: W
LayerCount: 2
Fore
SplineSet
270 21 m 1,0,-1
 266 0 l 1,1,-1
 39 0 l 1,2,-1
 43 21 l 1,3,-1
 126 40 l 1,4,-1
 218 475 l 1,5,-1
 130 475 l 1,6,-1
 140 519 l 1,7,-1
 228 519 l 1,8,-1
 247 608 l 2,9,10
 260 672 260 672 283 713.5 c 128,-1,11
 306 755 306 755 336 779.5 c 128,-1,12
 366 804 366 804 403.5 813.5 c 128,-1,13
 441 823 441 823 484 823 c 256,14,15
 527 823 527 823 569.5 815.5 c 128,-1,16
 612 808 612 808 644 787.5 c 128,-1,17
 676 767 676 767 690.5 730.5 c 128,-1,18
 705 694 705 694 692 635 c 2,19,-1
 566 40 l 1,20,21
 582 35 582 35 603 30.5 c 128,-1,22
 624 26 624 26 641 21 c 1,23,-1
 637 0 l 1,24,-1
 411 0 l 1,25,-1
 415 21 l 1,26,-1
 497 40 l 1,27,-1
 623 635 l 2,28,29
 631 671 631 671 622.5 696.5 c 128,-1,30
 614 722 614 722 594.5 738.5 c 128,-1,31
 575 755 575 755 545 763 c 128,-1,32
 515 771 515 771 481 771 c 0,33,34
 441 770 441 770 412.5 757 c 128,-1,35
 384 744 384 744 364 722 c 128,-1,36
 344 700 344 700 332.5 671 c 128,-1,37
 321 642 321 642 314 608 c 2,38,-1
 295 519 l 1,39,-1
 422 519 l 1,40,-1
 412 475 l 1,41,-1
 285 475 l 1,42,-1
 193 40 l 1,43,-1
 270 21 l 1,0,-1
EndSplineSet
EndChar

StartChar: st
Encoding: 64262 64262 212
Width: 852
Flags: W
LayerCount: 2
Fore
SplineSet
480 455 m 1,0,1
 464 464 464 464 445 469.5 c 128,-1,2
 426 475 426 475 407.5 479 c 128,-1,3
 389 483 389 483 372 484.5 c 128,-1,4
 355 486 355 486 342 486 c 0,5,6
 321 486 321 486 301 482.5 c 128,-1,7
 281 479 281 479 264 469.5 c 128,-1,8
 247 460 247 460 234.5 442 c 128,-1,9
 222 424 222 424 215 395 c 0,10,11
 210 371 210 371 214.5 355.5 c 128,-1,12
 219 340 219 340 232 330 c 128,-1,13
 245 320 245 320 265.5 313 c 128,-1,14
 286 306 286 306 313 299 c 0,15,16
 417 275 417 275 461 239.5 c 128,-1,17
 505 204 505 204 492 143 c 0,18,19
 476 68 476 68 412 26.5 c 128,-1,20
 348 -15 348 -15 257 -15 c 0,21,22
 219 -15 219 -15 187.5 -9 c 128,-1,23
 156 -3 156 -3 131 5.5 c 128,-1,24
 106 14 106 14 88.5 22.5 c 128,-1,25
 71 31 71 31 62 37 c 1,26,27
 63 39 63 39 63.5 42 c 128,-1,28
 64 45 64 45 67.5 56 c 128,-1,29
 71 67 71 67 76.5 89.5 c 128,-1,30
 82 112 82 112 93 152 c 1,31,-1
 115 152 l 1,32,-1
 117 80 l 1,33,34
 149 63 149 63 189 49 c 128,-1,35
 229 35 229 35 267 35 c 0,36,37
 294 35 294 35 319.5 39.5 c 128,-1,38
 345 44 345 44 365.5 56 c 128,-1,39
 386 68 386 68 401.5 88.5 c 128,-1,40
 417 109 417 109 423 140 c 0,41,42
 428 163 428 163 416 180.5 c 128,-1,43
 404 198 404 198 380 211.5 c 128,-1,44
 356 225 356 225 323.5 234.5 c 128,-1,45
 291 244 291 244 256 252 c 1,46,47
 191 272 191 272 162 307.5 c 128,-1,48
 133 343 133 343 144 395 c 0,49,50
 148 411 148 411 159 433.5 c 128,-1,51
 170 456 170 456 193.5 477 c 128,-1,52
 217 498 217 498 255 513 c 128,-1,53
 293 528 293 528 350 528 c 0,54,55
 391 528 391 528 428 520.5 c 128,-1,56
 465 513 465 513 494 502 c 1,57,58
 511 551 511 551 538 608.5 c 128,-1,59
 565 666 565 666 602.5 715 c 128,-1,60
 640 764 640 764 686.5 796.5 c 128,-1,61
 733 829 733 829 789 829 c 0,62,63
 826 829 826 829 848 818.5 c 128,-1,64
 870 808 870 808 880.5 790 c 128,-1,65
 891 772 891 772 892 748.5 c 128,-1,66
 893 725 893 725 887 700 c 1,67,68
 882 673 882 673 870.5 644.5 c 128,-1,69
 859 616 859 616 847 591 c 128,-1,70
 835 566 835 566 823.5 546 c 128,-1,71
 812 526 812 526 807 517 c 1,72,-1
 941 517 l 1,73,-1
 932 474 l 1,74,-1
 798 474 l 1,75,-1
 727 139 l 2,76,77
 720 106 720 106 717.5 85.5 c 128,-1,78
 715 65 715 65 719 54.5 c 128,-1,79
 723 44 723 44 733.5 40.5 c 128,-1,80
 744 37 744 37 763 37 c 0,81,82
 784 37 784 37 804.5 42.5 c 128,-1,83
 825 48 825 48 840 54 c 1,84,-1
 829 1 l 1,85,86
 814 -3 814 -3 785.5 -7.5 c 128,-1,87
 757 -12 757 -12 728 -12 c 0,88,89
 704 -12 704 -12 686.5 -7.5 c 128,-1,90
 669 -3 669 -3 659 10 c 128,-1,91
 649 23 649 23 647.5 45.5 c 128,-1,92
 646 68 646 68 654 104 c 2,93,-1
 732 474 l 1,94,-1
 631 474 l 1,95,-1
 640 517 l 1,96,-1
 737 517 l 1,97,98
 780 590 780 590 805 640 c 128,-1,99
 830 690 830 690 837 720 c 1,100,101
 844 756 844 756 829.5 772.5 c 128,-1,102
 815 789 815 789 775 789 c 0,103,104
 744 789 744 789 710.5 768 c 128,-1,105
 677 747 677 747 645.5 708 c 128,-1,106
 614 669 614 669 584.5 613.5 c 128,-1,107
 555 558 555 558 531 488 c 1,108,109
 525 462 525 462 517.5 434.5 c 128,-1,110
 510 407 510 407 503 381 c 1,111,-1
 482 381 l 1,112,-1
 480 455 l 1,0,1
EndSplineSet
EndChar

StartChar: ti
Encoding: 65539 -1 213
Width: 570
Flags: W
LayerCount: 2
Fore
SplineSet
446 496 m 1,0,-1
 450 517 l 1,1,-1
 598 517 l 1,2,-1
 499 40 l 1,3,-1
 573 21 l 1,4,-1
 569 0 l 1,5,6
 497 -2 497 -2 429 -8.5 c 128,-1,7
 361 -15 361 -15 295 -15 c 0,8,9
 269 -15 269 -15 236.5 -10 c 128,-1,10
 204 -5 204 -5 177.5 8 c 128,-1,11
 151 21 151 21 135.5 44 c 128,-1,12
 120 67 120 67 127 103 c 2,13,-1
 206 474 l 1,14,-1
 105 474 l 1,15,-1
 114 517 l 1,16,-1
 214 517 l 1,17,18
 220 533 220 533 226.5 553 c 128,-1,19
 233 573 233 573 240 593.5 c 128,-1,20
 247 614 247 614 254 634 c 128,-1,21
 261 654 261 654 267 671 c 1,22,-1
 314 671 l 1,23,-1
 201 138 l 2,24,25
 193 100 193 100 207.5 79 c 128,-1,26
 222 58 222 58 245 48.5 c 128,-1,27
 268 39 268 39 293 37.5 c 128,-1,28
 318 36 318 36 331 36 c 0,29,30
 346 36 346 36 371.5 37.5 c 128,-1,31
 397 39 397 39 430 44 c 1,32,-1
 522 477 l 1,33,-1
 446 496 l 1,0,-1
555 710 m 1,34,-1
 573 795 l 1,35,-1
 657 795 l 1,36,-1
 639 710 l 1,37,-1
 555 710 l 1,34,-1
EndSplineSet
EndChar

StartChar: th
Encoding: 65540 -1 214
Width: 933
Flags: W
LayerCount: 2
Fore
SplineSet
938 21 m 1,0,-1
 934 0 l 1,1,-1
 706 0 l 1,2,-1
 710 21 l 1,3,-1
 793 40 l 1,4,-1
 853 319 l 2,5,6
 860 352 860 352 860.5 382 c 128,-1,7
 861 412 861 412 852.5 434 c 128,-1,8
 844 456 844 456 826 469 c 128,-1,9
 808 482 808 482 779 482 c 0,10,11
 736 482 736 482 698 468 c 128,-1,12
 660 454 660 454 630.5 433 c 128,-1,13
 601 412 601 412 581.5 386.5 c 128,-1,14
 562 361 562 361 557 338 c 0,15,16
 539 254 539 254 523 172.5 c 128,-1,17
 507 91 507 91 489 6 c 1,18,19
 482 4 482 4 463.5 0.5 c 128,-1,20
 445 -3 445 -3 418.5 -6.5 c 128,-1,21
 392 -10 392 -10 361 -12.5 c 128,-1,22
 330 -15 330 -15 299 -15 c 0,23,24
 272 -15 272 -15 239.5 -10 c 128,-1,25
 207 -5 207 -5 180.5 8 c 128,-1,26
 154 21 154 21 139 44 c 128,-1,27
 124 67 124 67 131 103 c 2,28,-1
 210 474 l 1,29,-1
 108 474 l 1,30,-1
 117 517 l 1,31,-1
 218 517 l 1,32,-1
 270 671 l 1,33,-1
 316 671 l 1,34,-1
 283 517 l 1,35,-1
 417 517 l 1,36,-1
 408 474 l 1,37,-1
 274 474 l 1,38,-1
 203 138 l 2,39,40
 195 100 195 100 209.5 79 c 128,-1,41
 224 58 224 58 247.5 48.5 c 128,-1,42
 271 39 271 39 296 37.5 c 128,-1,43
 321 36 321 36 335 36 c 0,44,45
 353 36 353 36 371 39.5 c 128,-1,46
 389 43 389 43 403.5 49 c 128,-1,47
 418 55 418 55 428 62.5 c 128,-1,48
 438 70 438 70 440 78 c 2,49,-1
 584 756 l 1,50,51
 568 760 568 760 547 765 c 128,-1,52
 526 770 526 770 509 775 c 1,53,-1
 514 796 l 1,54,-1
 659 796 l 1,55,-1
 579 423 l 1,56,57
 612 448 612 448 641 468 c 128,-1,58
 670 488 670 488 699 501.5 c 128,-1,59
 728 515 728 515 757.5 522 c 128,-1,60
 787 529 787 529 819 529 c 0,61,62
 852 529 852 529 877 516.5 c 128,-1,63
 902 504 902 504 916 478 c 128,-1,64
 930 452 930 452 930.5 411 c 128,-1,65
 931 370 931 370 916 312 c 1,66,-1
 858 40 l 1,67,-1
 938 21 l 1,0,-1
EndSplineSet
EndChar

StartChar: ck
Encoding: 65541 -1 215
Width: 1099
Flags: W
LayerCount: 2
Fore
SplineSet
559 385 m 1,0,-1
 538 385 l 1,1,-1
 537 457 l 1,2,3
 473 486 473 486 426 486 c 0,4,5
 387 486 387 486 348 477.5 c 128,-1,6
 309 469 309 469 276 445 c 128,-1,7
 243 421 243 421 217 378 c 128,-1,8
 191 335 191 335 176 265 c 0,9,10
 160 192 160 192 166.5 146.5 c 128,-1,11
 173 101 173 101 195.5 75 c 128,-1,12
 218 49 218 49 253 39.5 c 128,-1,13
 288 30 288 30 329 30 c 0,14,15
 372 30 372 30 417 44.5 c 128,-1,16
 462 59 462 59 506 81 c 128,-1,17
 550 103 550 103 591 129 c 128,-1,18
 632 155 632 155 668 178 c 1,19,-1
 791 755 l 1,20,21
 775 759 775 759 753.5 764 c 128,-1,22
 732 769 732 769 715 774 c 1,23,-1
 719 795 l 1,24,-1
 868 795 l 1,25,-1
 784 400 l 1,26,27
 809 437 809 437 840.5 465 c 128,-1,28
 872 493 872 493 905.5 512 c 128,-1,29
 939 531 939 531 972.5 540.5 c 128,-1,30
 1006 550 1006 550 1036 550 c 0,31,32
 1067 550 1067 550 1090.5 539 c 128,-1,33
 1114 528 1114 528 1128 509 c 128,-1,34
 1142 490 1142 490 1146.5 464.5 c 128,-1,35
 1151 439 1151 439 1145 410 c 0,36,37
 1133 356 1133 356 1079.5 302 c 128,-1,38
 1026 248 1026 248 947 200 c 1,39,-1
 1037 37 l 1,40,-1
 1103 20 l 1,41,-1
 1099 0 l 1,42,-1
 871 0 l 1,43,-1
 875 21 l 1,44,-1
 955 37 l 1,45,-1
 880 169 l 1,46,47
 862 161 862 161 848.5 155.5 c 128,-1,48
 835 150 835 150 817 143 c 1,49,-1
 826 196 l 1,50,51
 861 210 861 210 902.5 231 c 128,-1,52
 944 252 944 252 981.5 278.5 c 128,-1,53
 1019 305 1019 305 1046.5 335.5 c 128,-1,54
 1074 366 1074 366 1081 399 c 0,55,56
 1091 444 1091 444 1069.5 471.5 c 128,-1,57
 1048 499 1048 499 1006 499 c 0,58,59
 975 499 975 499 936 482 c 128,-1,60
 897 465 897 465 861.5 437 c 128,-1,61
 826 409 826 409 798.5 372.5 c 128,-1,62
 771 336 771 336 762 298 c 2,63,-1
 733 164 l 1,64,65
 706 142 706 142 664.5 111 c 128,-1,66
 623 80 623 80 570 52 c 128,-1,67
 517 24 517 24 453.5 4 c 128,-1,68
 390 -16 390 -16 319 -16 c 0,69,70
 186 -16 186 -16 130.5 52.5 c 128,-1,71
 75 121 75 121 105 263 c 0,72,73
 122 339 122 339 151 390.5 c 128,-1,74
 180 442 180 442 222.5 473.5 c 128,-1,75
 265 505 265 505 318.5 518.5 c 128,-1,76
 372 532 372 532 436 532 c 0,77,78
 530 532 530 532 590 490 c 1,79,-1
 559 385 l 1,0,-1
EndSplineSet
EndChar

StartChar: mm
Encoding: 65542 -1 216
Width: 1447
Flags: W
LayerCount: 2
Fore
SplineSet
112 496 m 1,0,-1
 116 517 l 1,1,-1
 256 517 l 1,2,-1
 245 412 l 1,3,4
 263 439 263 439 287 461.5 c 128,-1,5
 311 484 311 484 338 499.5 c 128,-1,6
 365 515 365 515 392 524 c 128,-1,7
 419 533 419 533 443 533 c 0,8,9
 461 533 461 533 478 526 c 128,-1,10
 495 519 495 519 507 504 c 128,-1,11
 519 489 519 489 526.5 466.5 c 128,-1,12
 534 444 534 444 533 413 c 1,13,14
 576 470 576 470 632 501.5 c 128,-1,15
 688 533 688 533 748 533 c 0,16,17
 793 533 793 533 815.5 500.5 c 128,-1,18
 838 468 838 468 842 408 c 1,19,20
 862 439 862 439 887.5 462 c 128,-1,21
 913 485 913 485 940 501 c 128,-1,22
 967 517 967 517 995 525 c 128,-1,23
 1023 533 1023 533 1048 533 c 0,24,25
 1085 533 1085 533 1111 507.5 c 128,-1,26
 1137 482 1137 482 1140 415 c 1,27,28
 1180 472 1180 472 1236.5 502.5 c 128,-1,29
 1293 533 1293 533 1353 533 c 0,30,31
 1416 533 1416 533 1434.5 480.5 c 128,-1,32
 1453 428 1453 428 1431 324 c 2,33,-1
 1372 41 l 1,34,-1
 1451 22 l 1,35,-1
 1447 0 l 1,36,-1
 1301 0 l 1,37,-1
 1371 330 l 2,38,39
 1378 365 1378 365 1381 393.5 c 128,-1,40
 1384 422 1384 422 1379 442 c 128,-1,41
 1374 462 1374 462 1357.5 473 c 128,-1,42
 1341 484 1341 484 1311 484 c 0,43,44
 1273 484 1273 484 1242.5 469.5 c 128,-1,45
 1212 455 1212 455 1189 432 c 128,-1,46
 1166 409 1166 409 1151.5 379.5 c 128,-1,47
 1137 350 1137 350 1131 320 c 2,48,-1
 1071 40 l 1,49,-1
 1145 21 l 1,50,-1
 1141 0 l 1,51,-1
 994 0 l 1,52,-1
 1062 320 l 2,53,54
 1078 399 1078 399 1069 441.5 c 128,-1,55
 1060 484 1060 484 1006 484 c 0,56,57
 968 484 968 484 937.5 469.5 c 128,-1,58
 907 455 907 455 884 431.5 c 128,-1,59
 861 408 861 408 846 379 c 128,-1,60
 831 350 831 350 825 322 c 2,61,-1
 767 41 l 1,62,-1
 846 22 l 1,63,-1
 842 0 l 1,64,-1
 696 0 l 1,65,-1
 766 330 l 2,66,67
 773 365 773 365 776 393.5 c 128,-1,68
 779 422 779 422 773.5 442 c 128,-1,69
 768 462 768 462 751.5 473 c 128,-1,70
 735 484 735 484 705 484 c 0,71,72
 667 484 667 484 636.5 469.5 c 128,-1,73
 606 455 606 455 583.5 432 c 128,-1,74
 561 409 561 409 546.5 379.5 c 128,-1,75
 532 350 532 350 526 320 c 2,76,-1
 466 40 l 1,77,-1
 540 21 l 1,78,-1
 536 0 l 1,79,-1
 390 0 l 1,80,-1
 458 320 l 2,81,82
 475 401 475 401 465 442.5 c 128,-1,83
 455 484 455 484 402 484 c 0,84,85
 364 484 364 484 333.5 469 c 128,-1,86
 303 454 303 454 280 430.5 c 128,-1,87
 257 407 257 407 241.5 377.5 c 128,-1,88
 226 348 226 348 221 320 c 2,89,-1
 161 41 l 1,90,-1
 239 22 l 1,91,-1
 235 0 l 1,92,-1
 7 0 l 1,93,-1
 11 21 l 1,94,-1
 95 38 l 1,95,-1
 188 477 l 1,96,-1
 112 496 l 1,0,-1
EndSplineSet
EndChar

StartChar: oo
Encoding: 65543 -1 217
Width: 984
Flags: W
LayerCount: 2
Fore
SplineSet
816 533 m 0,0,1
 888 533 888 533 931 511.5 c 128,-1,2
 974 490 974 490 994.5 453 c 128,-1,3
 1015 416 1015 416 1016.5 366.5 c 128,-1,4
 1018 317 1018 317 1006 261 c 0,5,6
 992 193 992 193 968.5 141 c 128,-1,7
 945 89 945 89 910.5 54 c 128,-1,8
 876 19 876 19 826 1 c 128,-1,9
 776 -17 776 -17 708 -17 c 0,10,11
 645 -17 645 -17 600 8 c 128,-1,12
 555 33 555 33 525 80 c 1,13,14
 476 33 476 33 419.5 8 c 128,-1,15
 363 -17 363 -17 294 -17 c 256,16,17
 225 -17 225 -17 183 5.5 c 128,-1,18
 141 28 141 28 120.5 66.5 c 128,-1,19
 100 105 100 105 98 155 c 128,-1,20
 96 205 96 205 108 261 c 0,21,22
 122 326 122 326 144.5 376.5 c 128,-1,23
 167 427 167 427 202.5 462 c 128,-1,24
 238 497 238 497 287.5 515 c 128,-1,25
 337 533 337 533 404 533 c 0,26,27
 470 533 470 533 515 508.5 c 128,-1,28
 560 484 560 484 590 437 c 1,29,30
 640 484 640 484 695 508.5 c 128,-1,31
 750 533 750 533 816 533 c 0,0,1
178 261 m 0,32,33
 161 179 161 179 168 132.5 c 128,-1,34
 175 86 175 86 196.5 63 c 128,-1,35
 218 40 218 40 247.5 34.5 c 128,-1,36
 277 29 277 29 304 29 c 0,37,38
 325 29 325 29 355.5 33 c 128,-1,39
 386 37 386 37 418 58.5 c 128,-1,40
 450 80 450 80 478.5 127 c 128,-1,41
 507 174 507 174 526 261 c 0,42,43
 544 345 544 345 534.5 391 c 128,-1,44
 525 437 525 437 502 458 c 128,-1,45
 479 479 479 479 449 483 c 128,-1,46
 419 487 419 487 394 487 c 0,47,48
 367 487 367 487 337 484 c 128,-1,49
 307 481 307 481 277.5 460 c 128,-1,50
 248 439 248 439 222 393 c 128,-1,51
 196 347 196 347 178 261 c 0,32,33
584 261 m 0,52,53
 574 213 574 213 573 170.5 c 128,-1,54
 572 128 572 128 585.5 96.5 c 128,-1,55
 599 65 599 65 631 47 c 128,-1,56
 663 29 663 29 718 29 c 0,57,58
 740 29 740 29 768 33 c 128,-1,59
 796 37 796 37 826 58.5 c 128,-1,60
 856 80 856 80 882.5 127 c 128,-1,61
 909 174 909 174 928 261 c 0,62,63
 946 345 946 345 938.5 391 c 128,-1,64
 931 437 931 437 910 458 c 128,-1,65
 889 479 889 479 860 483 c 128,-1,66
 831 487 831 487 806 487 c 0,67,68
 750 487 750 487 711.5 468.5 c 128,-1,69
 673 450 673 450 648 418.5 c 128,-1,70
 623 387 623 387 608 346 c 128,-1,71
 593 305 593 305 584 261 c 0,52,53
EndSplineSet
EndChar

StartChar: rt
Encoding: 65544 -1 218
Width: 717
Flags: W
LayerCount: 2
Fore
SplineSet
604 536 m 1,0,-1
 652 671 l 1,1,-1
 698 671 l 1,2,-1
 665 517 l 1,3,-1
 799 517 l 1,4,-1
 790 474 l 1,5,-1
 656 474 l 1,6,-1
 585 139 l 2,7,8
 578 106 578 106 575.5 85.5 c 128,-1,9
 573 65 573 65 577 54.5 c 128,-1,10
 581 44 581 44 591.5 40.5 c 128,-1,11
 602 37 602 37 622 37 c 0,12,13
 644 37 644 37 663.5 42 c 128,-1,14
 683 47 683 47 699 55 c 1,15,-1
 688 3 l 1,16,17
 671 -2 671 -2 643 -7 c 128,-1,18
 615 -12 615 -12 587 -12 c 0,19,20
 563 -12 563 -12 545.5 -7.5 c 128,-1,21
 528 -3 528 -3 518 10 c 128,-1,22
 508 23 508 23 506.5 45.5 c 128,-1,23
 505 68 505 68 513 104 c 2,24,-1
 604 536 l 1,0,-1
113 496 m 1,25,-1
 117 517 l 1,26,-1
 249 517 l 1,27,-1
 240 404 l 1,28,29
 259 439 259 439 280.5 463.5 c 128,-1,30
 302 488 302 488 324.5 503 c 128,-1,31
 347 518 347 518 369.5 525 c 128,-1,32
 392 532 392 532 412 532 c 0,33,34
 444 532 444 532 462.5 527 c 128,-1,35
 481 522 481 522 490 517 c 1,36,-1
 457 398 l 1,37,-1
 435 398 l 1,38,-1
 434 477 l 1,39,40
 420 479 420 479 411.5 479.5 c 128,-1,41
 403 480 403 480 401 480 c 0,42,43
 377 480 377 480 350 474.5 c 128,-1,44
 323 469 323 469 297 446 c 128,-1,45
 271 423 271 423 247.5 376.5 c 128,-1,46
 224 330 224 330 206 249 c 1,47,-1
 162 38 l 1,48,-1
 234 21 l 1,49,-1
 230 0 l 1,50,-1
 12 0 l 1,51,-1
 16 21 l 1,52,-1
 95 38 l 1,53,-1
 188 477 l 1,54,-1
 113 496 l 1,25,-1
EndSplineSet
EndChar

StartChar: periodcentered
Encoding: 65545 -1 219
Width: 290
Flags: W
LayerCount: 2
Fore
SplineSet
189 391 m 1,0,-1
 274 391 l 1,1,-1
 256 306 l 1,2,-1
 171 306 l 1,3,-1
 189 391 l 1,0,-1
EndSplineSet
EndChar

StartChar: tt
Encoding: 65546 -1 220
Width: 653
Flags: W
LayerCount: 2
Fore
SplineSet
354 517 m 1,0,-1
 534 517 l 1,1,2
 554 576 554 576 566.5 613.5 c 128,-1,3
 579 651 579 651 587 672 c 1,4,-1
 633 672 l 1,5,-1
 600 517 l 1,6,-1
 733 517 l 1,7,-1
 724 474 l 1,8,-1
 591 474 l 1,9,-1
 520 139 l 2,10,11
 513 106 513 106 510.5 85.5 c 128,-1,12
 508 65 508 65 512 54.5 c 128,-1,13
 516 44 516 44 526.5 40.5 c 128,-1,14
 537 37 537 37 557 37 c 0,15,16
 600 37 600 37 633 54 c 1,17,-1
 622 3 l 1,18,19
 585 -5 585 -5 562 -8.5 c 128,-1,20
 539 -12 539 -12 523 -12 c 0,21,22
 514 -12 514 -12 501.5 -10.5 c 128,-1,23
 489 -9 489 -9 476.5 -4.5 c 128,-1,24
 464 0 464 0 453.5 7.5 c 128,-1,25
 443 15 443 15 438 28 c 1,26,27
 409 7 409 7 373 -4 c 128,-1,28
 337 -15 337 -15 300 -15 c 0,29,30
 273 -15 273 -15 240 -13.5 c 128,-1,31
 207 -12 207 -12 180.5 1.5 c 128,-1,32
 154 15 154 15 140 46.5 c 128,-1,33
 126 78 126 78 139 138 c 2,34,-1
 210 473 l 1,35,-1
 109 473 l 1,36,-1
 118 516 l 1,37,-1
 218 516 l 1,38,-1
 272 671 l 1,39,-1
 317 671 l 1,40,-1
 204 138 l 2,41,42
 195 98 195 98 207 77 c 128,-1,43
 219 56 219 56 240.5 47 c 128,-1,44
 262 38 262 38 286 37 c 128,-1,45
 310 36 310 36 327 36 c 0,46,47
 335 36 335 36 354 40 c 128,-1,48
 373 44 373 44 392.5 51.5 c 128,-1,49
 412 59 412 59 428 70.5 c 128,-1,50
 444 82 444 82 447 97 c 2,51,-1
 527 474 l 1,52,-1
 345 474 l 1,53,-1
 354 517 l 1,0,-1
EndSplineSet
EndChar

StartChar: Wh
Encoding: 65547 -1 221
Width: 1701
Flags: W
LayerCount: 2
Fore
SplineSet
274 680 m 1,0,-1
 356 50 l 1,1,-1
 666 716 l 1,2,-1
 751 716 l 1,3,-1
 774 45 l 1,4,-1
 1018 515 l 1,5,6
 1069 611 1069 611 1109 667.5 c 128,-1,7
 1149 724 1149 724 1182 754 c 128,-1,8
 1215 784 1215 784 1243.5 792.5 c 128,-1,9
 1272 801 1272 801 1301 801 c 0,10,11
 1367 801 1367 801 1393.5 765.5 c 128,-1,12
 1420 730 1420 730 1401 642 c 2,13,-1
 1351 406 l 1,14,15
 1369 430 1369 430 1394.5 451.5 c 128,-1,16
 1420 473 1420 473 1449.5 489.5 c 128,-1,17
 1479 506 1479 506 1511 516 c 128,-1,18
 1543 526 1543 526 1575 526 c 0,19,20
 1610 526 1610 526 1636.5 513 c 128,-1,21
 1663 500 1663 500 1678 473 c 128,-1,22
 1693 446 1693 446 1696 405 c 128,-1,23
 1699 364 1699 364 1687 309 c 2,24,-1
 1629 39 l 1,25,-1
 1705 22 l 1,26,-1
 1701 0 l 1,27,-1
 1478 0 l 1,28,-1
 1482 21 l 1,29,-1
 1564 39 l 1,30,-1
 1625 316 l 2,31,32
 1641 392 1641 392 1618 434 c 128,-1,33
 1595 476 1595 476 1535 476 c 0,34,35
 1502 476 1502 476 1468.5 463.5 c 128,-1,36
 1435 451 1435 451 1407 430 c 128,-1,37
 1379 409 1379 409 1359.5 382 c 128,-1,38
 1340 355 1340 355 1334 326 c 2,39,-1
 1273 39 l 1,40,41
 1290 35 1290 35 1311.5 30.5 c 128,-1,42
 1333 26 1333 26 1351 21 c 1,43,-1
 1347 0 l 1,44,-1
 1121 0 l 1,45,-1
 1125 22 l 1,46,-1
 1208 38 l 1,47,-1
 1331 618 l 2,48,49
 1347 694 1347 694 1340 729 c 128,-1,50
 1333 764 1333 764 1293 764 c 0,51,52
 1275 764 1275 764 1257.5 755 c 128,-1,53
 1240 746 1240 746 1218.5 719 c 128,-1,54
 1197 692 1197 692 1167 642 c 128,-1,55
 1137 592 1137 592 1094 511 c 2,56,-1
 818 0 l 1,57,-1
 716 0 l 1,58,-1
 702 645 l 1,59,-1
 683 645 l 1,60,-1
 392 0 l 1,61,-1
 297 0 l 1,62,-1
 192 679 l 1,63,-1
 124 696 l 1,64,-1
 129 716 l 1,65,-1
 352 716 l 1,66,-1
 347 695 l 1,67,-1
 274 680 l 1,0,-1
EndSplineSet
EndChar

StartChar: wh
Encoding: 65548 -1 222
Width: 1357
Flags: W
LayerCount: 2
Fore
SplineSet
218 479 m 1,0,-1
 233 50 l 1,1,-1
 478 517 l 1,2,-1
 545 517 l 1,3,-1
 573 49 l 1,4,-1
 752 476 l 1,5,6
 744 477 744 477 719.5 491.5 c 128,-1,7
 695 506 695 506 671.5 533.5 c 128,-1,8
 648 561 648 561 633 602 c 128,-1,9
 618 643 618 643 630 698 c 0,10,11
 637 731 637 731 654.5 753.5 c 128,-1,12
 672 776 672 776 697 789 c 128,-1,13
 722 802 722 802 752 807.5 c 128,-1,14
 782 813 782 813 815 813 c 0,15,16
 863 813 863 813 910.5 807.5 c 128,-1,17
 958 802 958 802 995.5 796 c 128,-1,18
 1033 790 1033 790 1056 784.5 c 128,-1,19
 1079 779 1079 779 1079 779 c 1,20,-1
 1002 412 l 1,21,22
 1019 434 1019 434 1044.5 456 c 128,-1,23
 1070 478 1070 478 1100 495 c 128,-1,24
 1130 512 1130 512 1163 522.5 c 128,-1,25
 1196 533 1196 533 1228 533 c 0,26,27
 1300 533 1300 533 1333 479.5 c 128,-1,28
 1366 426 1366 426 1342 313 c 2,29,-1
 1284 40 l 1,30,-1
 1360 22 l 1,31,-1
 1356 0 l 1,32,-1
 1130 0 l 1,33,-1
 1134 21 l 1,34,-1
 1219 40 l 1,35,-1
 1279 320 l 2,36,37
 1295 397 1295 397 1271.5 440 c 128,-1,38
 1248 483 1248 483 1187 483 c 0,39,40
 1154 483 1154 483 1120.5 470.5 c 128,-1,41
 1087 458 1087 458 1059 437 c 128,-1,42
 1031 416 1031 416 1011 388.5 c 128,-1,43
 991 361 991 361 985 331 c 2,44,-1
 923 40 l 1,45,-1
 1001 21 l 1,46,-1
 997 0 l 1,47,-1
 769 0 l 1,48,-1
 773 22 l 1,49,-1
 857 38 l 1,50,-1
 1006 742 l 1,51,52
 953 763 953 763 902.5 773.5 c 128,-1,53
 852 784 852 784 812 784 c 0,54,55
 756 784 756 784 717.5 763.5 c 128,-1,56
 679 743 679 743 669 693 c 0,57,58
 663 667 663 667 668 637.5 c 128,-1,59
 673 608 673 608 692 582 c 128,-1,60
 711 556 711 556 746 538 c 128,-1,61
 781 520 781 520 835 517 c 1,62,-1
 609 0 l 1,63,-1
 527 0 l 1,64,-1
 506 485 l 1,65,-1
 260 0 l 1,66,-1
 178 0 l 1,67,-1
 156 480 l 1,68,-1
 82 494 l 1,69,-1
 86 517 l 1,70,-1
 313 517 l 1,71,-1
 309 494 l 1,72,-1
 218 479 l 1,0,-1
EndSplineSet
EndChar

StartChar: St
Encoding: 65549 -1 223
Width: 943
Flags: W
LayerCount: 2
Fore
SplineSet
836 517 m 1,0,1
 876 585 876 585 901 635 c 128,-1,2
 926 685 926 685 933 717 c 0,3,4
 940 751 940 751 926 769.5 c 128,-1,5
 912 788 912 788 869 788 c 0,6,7
 846 788 846 788 817.5 779 c 128,-1,8
 789 770 789 770 761 750.5 c 128,-1,9
 733 731 733 731 707.5 700 c 128,-1,10
 682 669 682 669 664 625 c 1,11,-1
 654 584 l 1,12,-1
 632 584 l 1,13,-1
 631 656 l 1,14,15
 582 679 582 679 541.5 685.5 c 128,-1,16
 501 692 501 692 459 692 c 0,17,18
 425 692 425 692 391.5 682 c 128,-1,19
 358 672 358 672 331.5 654 c 128,-1,20
 305 636 305 636 285 609.5 c 128,-1,21
 265 583 265 583 258 550 c 256,22,23
 251 517 251 517 257 494 c 128,-1,24
 263 471 263 471 279.5 454 c 128,-1,25
 296 437 296 437 322.5 425 c 128,-1,26
 349 413 349 413 384 402 c 0,27,28
 423 390 423 390 465.5 373.5 c 128,-1,29
 508 357 508 357 541 330.5 c 128,-1,30
 574 304 574 304 591.5 265 c 128,-1,31
 609 226 609 226 597 170 c 0,32,33
 584 111 584 111 547.5 74 c 128,-1,34
 511 37 511 37 464.5 16 c 128,-1,35
 418 -5 418 -5 369.5 -12.5 c 128,-1,36
 321 -20 321 -20 285 -20 c 0,37,38
 240 -20 240 -20 206 -14.5 c 128,-1,39
 172 -9 172 -9 145.5 0 c 128,-1,40
 119 9 119 9 101 19 c 128,-1,41
 83 29 83 29 72 38 c 1,42,-1
 96 154 l 1,43,-1
 116 154 l 1,44,-1
 117 82 l 1,45,46
 151 59 151 59 195.5 43.5 c 128,-1,47
 240 28 240 28 295 28 c 0,48,49
 336 28 336 28 374 39 c 128,-1,50
 412 50 412 50 442.5 69.5 c 128,-1,51
 473 89 473 89 493.5 114.5 c 128,-1,52
 514 140 514 140 521 170 c 0,53,54
 524 186 524 186 525 209 c 128,-1,55
 526 232 526 232 513 255.5 c 128,-1,56
 500 279 500 279 468 301.5 c 128,-1,57
 436 324 436 324 374 341 c 1,58,-1
 375 341 l 1,59,60
 321 357 321 357 280.5 376 c 128,-1,61
 240 395 240 395 215 419.5 c 128,-1,62
 190 444 190 444 180.5 476 c 128,-1,63
 171 508 171 508 181 551 c 1,64,65
 188 586 188 586 211 618.5 c 128,-1,66
 234 651 234 651 271 676 c 128,-1,67
 308 701 308 701 357.5 716 c 128,-1,68
 407 731 407 731 468 731 c 0,69,70
 538 731 538 731 582 724 c 128,-1,71
 626 717 626 717 655 706 c 1,72,73
 671 725 671 725 694 746.5 c 128,-1,74
 717 768 717 768 745.5 786 c 128,-1,75
 774 804 774 804 808.5 816 c 128,-1,76
 843 828 843 828 882 828 c 0,77,78
 919 828 919 828 941 817.5 c 128,-1,79
 963 807 963 807 973.5 789.5 c 128,-1,80
 984 772 984 772 984.5 749 c 128,-1,81
 985 726 985 726 980 701 c 0,82,83
 973 669 973 669 959.5 636.5 c 128,-1,84
 946 604 946 604 933 577.5 c 128,-1,85
 920 551 920 551 909.5 534 c 128,-1,86
 899 517 899 517 899 517 c 1,87,-1
 1032 517 l 1,88,-1
 1023 475 l 1,89,-1
 890 475 l 1,90,-1
 819 138 l 2,91,92
 812 105 812 105 809.5 85 c 128,-1,93
 807 65 807 65 811 54.5 c 128,-1,94
 815 44 815 44 825.5 40.5 c 128,-1,95
 836 37 836 37 855 37 c 0,96,97
 876 37 876 37 895.5 42 c 128,-1,98
 915 47 915 47 931 53 c 1,99,-1
 920 1 l 1,100,101
 905 -3 905 -3 877 -7.5 c 128,-1,102
 849 -12 849 -12 820 -12 c 0,103,104
 796 -12 796 -12 779 -7.5 c 128,-1,105
 762 -3 762 -3 752 10 c 128,-1,106
 742 23 742 23 740.5 45 c 128,-1,107
 739 67 739 67 746 103 c 2,108,-1
 825 475 l 1,109,-1
 726 475 l 1,110,-1
 735 517 l 1,111,-1
 836 517 l 1,0,1
EndSplineSet
EndChar

StartChar: ch
Encoding: 65550 -1 224
Width: 1146
Flags: W
LayerCount: 2
Fore
SplineSet
332 31 m 0,0,1
 357 31 357 31 383.5 35 c 128,-1,2
 410 39 410 39 434.5 45.5 c 128,-1,3
 459 52 459 52 480 59.5 c 128,-1,4
 501 67 501 67 517 74 c 1,5,-1
 505 16 l 1,6,7
 457 2 457 2 414.5 -6.5 c 128,-1,8
 372 -15 372 -15 322 -15 c 0,9,10
 187 -15 187 -15 134 52.5 c 128,-1,11
 81 120 81 120 112 264 c 0,12,13
 128 340 128 340 157.5 391.5 c 128,-1,14
 187 443 187 443 228.5 474.5 c 128,-1,15
 270 506 270 506 323 519.5 c 128,-1,16
 376 533 376 533 439 533 c 0,17,18
 472 533 472 533 501.5 524.5 c 128,-1,19
 531 516 531 516 552 505 c 1,20,-1
 577 623 l 2,21,22
 588 674 588 674 602.5 709.5 c 128,-1,23
 617 745 617 745 636.5 767 c 128,-1,24
 656 789 656 789 681.5 798.5 c 128,-1,25
 707 808 707 808 740 808 c 0,26,27
 806 808 806 808 834 772 c 128,-1,28
 862 736 862 736 843 647 c 2,29,-1
 793 411 l 1,30,31
 813 435 813 435 838.5 457 c 128,-1,32
 864 479 864 479 893.5 495.5 c 128,-1,33
 923 512 923 512 955.5 522 c 128,-1,34
 988 532 988 532 1020 532 c 0,35,36
 1091 532 1091 532 1124 478 c 128,-1,37
 1157 424 1157 424 1133 312 c 2,38,-1
 1075 40 l 1,39,-1
 1151 22 l 1,40,-1
 1147 0 l 1,41,-1
 921 0 l 1,42,-1
 925 21 l 1,43,-1
 1008 40 l 1,44,-1
 1069 319 l 2,45,46
 1086 396 1086 396 1063 439 c 128,-1,47
 1040 482 1040 482 979 482 c 0,48,49
 945 482 945 482 911.5 469.5 c 128,-1,50
 878 457 878 457 850 436 c 128,-1,51
 822 415 822 415 802 387.5 c 128,-1,52
 782 360 782 360 776 330 c 2,53,-1
 714 40 l 1,54,-1
 792 21 l 1,55,-1
 788 0 l 1,56,-1
 560 0 l 1,57,-1
 564 22 l 1,58,-1
 648 38 l 1,59,-1
 772 623 l 2,60,61
 788 700 788 700 780.5 735 c 128,-1,62
 773 770 773 770 732 770 c 0,63,64
 693 770 693 770 668.5 735.5 c 128,-1,65
 644 701 644 701 624 623 c 2,66,-1
 563 386 l 1,67,-1
 543 386 l 1,68,-1
 541 458 l 1,69,70
 515 471 515 471 485 479 c 128,-1,71
 455 487 455 487 429 487 c 0,72,73
 390 487 390 487 351.5 479 c 128,-1,74
 313 471 313 471 279.5 447 c 128,-1,75
 246 423 246 423 220 379.5 c 128,-1,76
 194 336 194 336 179 266 c 0,77,78
 164 193 164 193 170.5 147.5 c 128,-1,79
 177 102 177 102 199 76 c 128,-1,80
 221 50 221 50 256 40.5 c 128,-1,81
 291 31 291 31 332 31 c 0,0,1
EndSplineSet
EndChar

StartChar: Ch
Encoding: 65551 -1 225
Width: 1257
Flags: W
LayerCount: 2
Fore
SplineSet
717 659 m 1,0,1
 682 679 682 679 650 684.5 c 128,-1,2
 618 690 618 690 578 690 c 0,3,4
 560 690 560 690 531 683 c 128,-1,5
 502 676 502 676 467.5 660.5 c 128,-1,6
 433 645 433 645 396 619.5 c 128,-1,7
 359 594 359 594 325 557 c 128,-1,8
 291 520 291 520 264 470 c 128,-1,9
 237 420 237 420 222 356 c 1,10,11
 210 280 210 280 218.5 226 c 128,-1,12
 227 172 227 172 248.5 136 c 128,-1,13
 270 100 270 100 299 79 c 128,-1,14
 328 58 328 58 356 47.5 c 128,-1,15
 384 37 384 37 407 34 c 128,-1,16
 430 31 430 31 438 31 c 0,17,18
 498 31 498 31 553 55 c 128,-1,19
 608 79 608 79 653 109 c 1,20,-1
 638 40 l 1,21,22
 624 32 624 32 602 22.5 c 128,-1,23
 580 13 580 13 552 4 c 128,-1,24
 524 -5 524 -5 492 -12 c 128,-1,25
 460 -19 460 -19 427 -20 c 1,26,27
 335 -20 335 -20 273 9.5 c 128,-1,28
 211 39 211 39 175.5 90 c 128,-1,29
 140 141 140 141 132 209.5 c 128,-1,30
 124 278 124 278 140 355 c 0,31,32
 157 437 157 437 195.5 506.5 c 128,-1,33
 234 576 234 576 291 626 c 128,-1,34
 348 676 348 676 422.5 704 c 128,-1,35
 497 732 497 732 587 732 c 0,36,37
 628 732 628 732 666 725.5 c 128,-1,38
 704 719 704 719 737 709 c 1,39,40
 762 760 762 760 794 781 c 128,-1,41
 826 802 826 802 871 802 c 0,42,43
 937 802 937 802 964 766.5 c 128,-1,44
 991 731 991 731 972 643 c 2,45,-1
 923 409 l 1,46,47
 943 433 943 433 968 454 c 128,-1,48
 993 475 993 475 1022.5 491.5 c 128,-1,49
 1052 508 1052 508 1084 517.5 c 128,-1,50
 1116 527 1116 527 1147 527 c 0,51,52
 1182 527 1182 527 1208 514 c 128,-1,53
 1234 501 1234 501 1249.5 474 c 128,-1,54
 1265 447 1265 447 1267.5 406 c 128,-1,55
 1270 365 1270 365 1258 310 c 2,56,-1
 1201 40 l 1,57,-1
 1276 23 l 1,58,-1
 1272 1 l 1,59,-1
 1049 1 l 1,60,-1
 1053 22 l 1,61,-1
 1135 40 l 1,62,-1
 1194 317 l 2,63,64
 1210 393 1210 393 1188 435 c 128,-1,65
 1166 477 1166 477 1106 477 c 0,66,67
 1073 477 1073 477 1039.5 464.5 c 128,-1,68
 1006 452 1006 452 978.5 431 c 128,-1,69
 951 410 951 410 931 383 c 128,-1,70
 911 356 911 356 905 327 c 2,71,-1
 844 40 l 1,72,-1
 921 22 l 1,73,-1
 917 1 l 1,74,-1
 692 1 l 1,75,-1
 696 23 l 1,76,-1
 779 39 l 1,77,-1
 902 619 l 2,78,79
 918 695 918 695 911 729.5 c 128,-1,80
 904 764 904 764 863 764 c 0,81,82
 832 764 832 764 803 740 c 128,-1,83
 774 716 774 716 761 665 c 1,84,-1
 735 574 l 1,85,-1
 715 574 l 1,86,-1
 717 659 l 1,0,1
EndSplineSet
EndChar
